<?xml version="1.0" encoding="utf-8"?>
<!-- Generator: Adobe Illustrator 25.4.1, SVG Export Plug-In . SVG Version: 6.00 Build 0)  -->
<svg version="1.1" id="Layer_1" xmlns="http://www.w3.org/2000/svg" xmlns:xlink="http://www.w3.org/1999/xlink" x="0px" y="0px"
	 viewBox="0 0 150 90" style="enable-background:new 0 0 150 90;" xml:space="preserve">
<style type="text/css">
	.st0{fill:#FFFFFF;}
	.st1{fill-rule:evenodd;clip-rule:evenodd;fill:#4360DF;}
	.st2{fill-rule:evenodd;clip-rule:evenodd;fill:#FFFFFF;}
	.st3{fill-rule:evenodd;clip-rule:evenodd;fill:#090909;}
	.st4{opacity:0.4;}
	.st5{fill:none;}
	.st6{fill:#BBBFC5;}
	.st7{opacity:0.6;}
	.st8{fill:#9DA4AE;}
	.st9{fill-rule:evenodd;clip-rule:evenodd;fill:#BBBFC5;}
	.st10{opacity:0.2;}
	.st11{fill:#090909;}
	.st12{fill-rule:evenodd;clip-rule:evenodd;fill:#67778E;}
	.st13{fill:#4360DF;}
</style>
<g id="Layer_2_00000107577373879662943830000010582296201046057913_">
	<g id="Layer_1-2">
		<rect y="0" class="st0" width="150" height="90"/>
		<path class="st1" d="M70.9,83c5.7,0,10.4-4.7,10.4-10.4c0-5.7-4.7-10.4-10.4-10.4c-5.7,0-10.4,4.7-10.4,10.4
			C60.5,78.4,65.1,83,70.9,83z"/>
		<path class="st2" d="M71,72.4c0.6,0.1,1.2,0.1,1.7,0.1c1.8-0.1,2.8-1,2.8-2.4c-0.2-1.4-1.6-2.4-3-2.2c-2.3,0.2-4.1,2.2-4.2,4.5
			c0.3-0.1,0.7-0.1,1-0.1C69.8,72.3,70.4,72.3,71,72.4z M66.4,75.4c0.2,1.3,1.5,2.2,2.8,2c2.2-0.2,3.9-2,4-4.1
			c-0.3,0.1-0.6,0.1-0.9,0.1c-0.5,0-1.1,0-1.6-0.1c-0.5-0.1-1.1-0.1-1.6-0.1C67.4,73.3,66.3,74.2,66.4,75.4L66.4,75.4z"/>
		<path class="st3" d="M126.5,87c3.5,0,6.2-2.8,6.2-6.3s-2.8-6.2-6.3-6.2c-3.4,0-6.2,2.8-6.2,6.2C120.2,84.2,123,87,126.5,87
			C126.5,87,126.5,87,126.5,87z"/>
		<path class="st2" d="M126.5,80.6c0.3,0,0.7,0,1,0c1.1-0.1,1.7-0.6,1.7-1.4c-0.1-0.8-0.9-1.4-1.8-1.3c-1.4,0.2-2.5,1.3-2.6,2.7
			c0.2,0,0.4-0.1,0.6-0.1C125.8,80.5,126.2,80.6,126.5,80.6z M123.8,82.4c0.1,0.8,0.9,1.3,1.7,1.2c1.3-0.1,2.3-1.2,2.4-2.5
			c-0.2,0-0.4,0.1-0.6,0.1c-0.3,0-0.7,0-1,0c-0.3,0-0.7,0-1,0C124.3,81.2,123.7,81.7,123.8,82.4z"/>
		<g class="st4">
			<path class="st5" d="M149.8,65c-4.4,0-8-3.6-8-8s3.6-8,8-8h0.2V0H0v90h150V65H149.8z"/>
			<path class="st5" d="M142,57c0,4.3,3.5,7.7,7.8,7.7h0.2V49.3h-0.2C145.5,49.3,142,52.7,142,57z"/>
			<path class="st6" d="M141.7,57c0,4.4,3.6,8,8.1,8h0.2v-0.3h-0.2c-4.3,0-7.7-3.5-7.7-7.7c0-4.3,3.5-7.7,7.7-7.7c0,0,0,0,0,0h0.2
				V49h-0.2C145.3,49,141.7,52.6,141.7,57z"/>
		</g>
		<g class="st7">
			<path class="st5" d="M149.8,62.8c-3.2,0.1-5.9-2.3-6-5.5c-0.1-3.2,2.3-5.9,5.5-6c0.2,0,0.3,0,0.5,0h0.2V0H0v90h150V62.8
				L149.8,62.8z"/>
			<path class="st5" d="M144.3,57c0,3,2.5,5.5,5.5,5.5h0.2V51.5h-0.2C146.7,51.5,144.3,54,144.3,57z"/>
			<path class="st6" d="M144,57c0,3.2,2.6,5.8,5.8,5.8h0.2v-0.3h-0.2c-3,0.1-5.6-2.2-5.7-5.2c-0.1-3,2.2-5.6,5.2-5.7
				c0.2,0,0.3,0,0.5,0h0.2v-0.3h-0.2C146.6,51.3,144,53.8,144,57z"/>
		</g>
		<path class="st5" d="M149.8,60.1c-1.7,0-3.1-1.4-3.1-3.1c0-1.7,1.4-3.1,3.1-3.1c0,0,0,0,0,0h0.2V0H0v90h150V60.1L149.8,60.1z"/>
		<path class="st8" d="M146.6,57c0,1.7,1.4,3.1,3.1,3.1c0,0,0,0,0,0h0.2v-6.2h-0.2C148,53.9,146.6,55.3,146.6,57z"/>
		<path class="st5" d="M149.2,58.4c-0.4,0.1-0.8-0.2-0.8-0.6c0-0.4,0.3-0.6,0.8-0.7c0.2,0,0.3,0,0.5,0h0.3v-0.3h-0.2
			c-0.2,0-0.3,0-0.5,0H149c0-0.6,0.4-1.1,1-1.3V0H0v90h150V58.1C149.8,58.3,149.5,58.4,149.2,58.4z"/>
		<path class="st0" d="M149.2,57.2c-0.5,0-0.8,0.3-0.8,0.7c0.1,0.4,0.4,0.7,0.8,0.6c0.3,0,0.6-0.1,0.8-0.3v-0.9h-0.3
			C149.5,57.2,149.4,57.2,149.2,57.2z"/>
		<path class="st0" d="M149,56.9h0.3c0.2,0,0.3,0,0.5,0h0.2v-1.3C149.4,55.8,149,56.3,149,56.9z"/>
		<g class="st4">
			<path class="st6" d="M25.1,71.2c-10.5,0-19-8.6-18.9-19.1s8.6-19,19.1-18.9c10.5,0,18.9,8.5,18.9,19
				C44.1,62.7,35.6,71.2,25.1,71.2z M25.1,33.4c-10.3,0-18.7,8.4-18.7,18.8c0,10.3,8.4,18.7,18.8,18.7c10.3,0,18.7-8.4,18.7-18.7
				C43.8,41.8,35.4,33.4,25.1,33.4z"/>
		</g>
		<g class="st7">
			<path class="st6" d="M25.1,65.7c-7.5,0-13.6-6.1-13.6-13.6c0-7.5,6.1-13.6,13.6-13.6c7.5,0,13.6,6.1,13.6,13.6
				C38.7,59.6,32.6,65.7,25.1,65.7z M25.1,38.8c-7.3,0-13.3,6-13.3,13.3s6,13.3,13.3,13.3c7.3,0,13.3-6,13.3-13.3
				C38.4,44.8,32.4,38.8,25.1,38.8z"/>
		</g>
		<path class="st9" d="M25.1,59.6c4.1,0,7.5-3.4,7.5-7.5c0-4.1-3.4-7.5-7.5-7.5c-4.1,0-7.5,3.4-7.5,7.5
			C17.6,56.2,20.9,59.6,25.1,59.6C25.1,59.6,25.1,59.6,25.1,59.6z"/>
		<path class="st2" d="M25.1,52c0.4,0,0.8,0,1.2,0c1.3-0.1,2.1-0.7,2-1.7c-0.2-1-1.1-1.7-2.1-1.5c-1.7,0.2-3,1.6-3.1,3.3
			c0.2,0,0.5-0.1,0.7-0.1C24.3,51.9,24.7,51.9,25.1,52z M21.8,54.2c0.2,0.9,1.1,1.6,2,1.4c1.6-0.1,2.8-1.4,2.9-3
			c-0.2,0-0.4,0.1-0.7,0.1c-0.4,0-0.8,0-1.2,0c-0.4,0-0.8,0-1.2,0C22.5,52.6,21.8,53.2,21.8,54.2L21.8,54.2z"/>
		<g class="st10">
			<path class="st5" d="M0,69.2V90h9.6c1.7-2.2,2.6-5,2.6-7.8C12.2,75.4,6.9,69.7,0,69.2z"/>
			<path class="st5" d="M0,0v68.9c7,0.5,12.5,6.3,12.5,13.3c0,2.8-0.9,5.5-2.5,7.8h140V0H0z"/>
			<path class="st11" d="M0,68.9v0.3c6.8,0.5,12.2,6.1,12.2,13c0,2.8-0.9,5.5-2.6,7.8H10c1.6-2.3,2.5-5,2.5-7.8
				C12.5,75.2,7,69.4,0,68.9z"/>
		</g>
		<g class="st4">
			<path class="st5" d="M8.4,82.2c0-4.7-3.6-8.7-8.4-9.2v17h4.1C6.7,88.3,8.4,85.4,8.4,82.2z"/>
			<path class="st5" d="M0,0v72.6c4.9,0.5,8.7,4.6,8.7,9.5c0,3.1-1.5,6-4.1,7.8H150V0H0z"/>
			<path class="st11" d="M8.7,82.2c0-4.9-3.8-9.1-8.7-9.5V73c4.7,0.5,8.3,4.5,8.4,9.2c0,3.2-1.6,6.1-4.3,7.8h0.6
				C7.2,88.2,8.7,85.3,8.7,82.2z"/>
		</g>
		<g class="st7">
			<path class="st5" d="M0,0v75.4c3.4,0.5,6,3.4,6,6.8c0,3.5-2.6,6.4-6,6.8v1h150V0H0z"/>
			<path class="st5" d="M5.7,82.2c0-3.3-2.4-6-5.7-6.5v13C3.2,88.2,5.6,85.5,5.7,82.2z"/>
			<path class="st11" d="M6,82.2c0-3.5-2.6-6.4-6-6.8v0.3c3.2,0.5,5.6,3.2,5.7,6.5c0,3.3-2.4,6-5.7,6.5V89C3.4,88.5,6,85.6,6,82.2z"
				/>
		</g>
		<path class="st5" d="M0,0v78.6c1.6,0.4,2.8,1.9,2.8,3.6c0,1.7-1.2,3.2-2.8,3.6V90h150V0H0z"/>
		<path class="st11" d="M2.8,82.2c0-1.7-1.2-3.2-2.8-3.6v7.2C1.6,85.4,2.8,83.9,2.8,82.2z"/>
		<path class="st5" d="M0,0v80.5c0.4,0.1,0.7,0.4,0.7,0.7c0,0.4-0.3,0.8-0.7,0.8V90h150V0H0z"/>
		<path class="st0" d="M0.7,81.3c0-0.4-0.3-0.7-0.7-0.7v1.6C0.4,82,0.7,81.7,0.7,81.3z"/>
		<path class="st12" d="M37.5,58.1c0.4,0,0.8-0.3,0.8-0.8c0-0.4-0.3-0.8-0.8-0.8c-0.4,0-0.8,0.3-0.8,0.8c0,0,0,0,0,0
			C36.7,57.8,37,58.1,37.5,58.1z"/>
		<path class="st1" d="M43.7,49.1c0.4,0,0.8-0.3,0.8-0.8c0-0.4-0.3-0.8-0.8-0.8c-0.4,0-0.8,0.3-0.8,0.8c0,0,0,0,0,0
			C42.9,48.8,43.3,49.1,43.7,49.1z"/>
		<path class="st12" d="M50,43.5c0.4,0,0.8-0.3,0.8-0.8c0-0.4-0.3-0.8-0.8-0.8c-0.4,0-0.8,0.3-0.8,0.8c0,0,0,0,0,0
			C49.2,43.2,49.6,43.5,50,43.5z"/>
		<path class="st1" d="M51.5,55.6c0.4,0,0.8-0.3,0.8-0.8c0-0.4-0.3-0.8-0.8-0.8c-0.4,0-0.8,0.3-0.8,0.8c0,0,0,0,0,0
			C50.7,55.3,51.1,55.6,51.5,55.6z"/>
		<path class="st3" d="M107.7,69.9c0.4,0,0.8-0.3,0.8-0.8c0-0.4-0.4-0.8-0.8-0.8c-0.4,0-0.8,0.3-0.8,0.8
			C106.9,69.6,107.2,69.9,107.7,69.9z"/>
		<path class="st1" d="M105.2,87.1c0.4,0,0.8-0.3,0.9-0.7c0-0.4-0.3-0.8-0.7-0.9c-0.1,0-0.1,0-0.2,0c-0.4,0-0.8,0.3-0.9,0.7
			c0,0.4,0.3,0.8,0.7,0.9C105.1,87.1,105.1,87.1,105.2,87.1z"/>
		<path class="st3" d="M142,65.6c0.4,0,0.8-0.3,0.8-0.8S142.4,64,142,64s-0.8,0.3-0.8,0.8l0,0C141.2,65.2,141.6,65.6,142,65.6z"/>
		<path class="st12" d="M45,70.6c0.4,0,0.8-0.3,0.8-0.8c0,0,0,0,0,0c0-0.4-0.3-0.8-0.8-0.8c-0.4,0-0.8,0.3-0.8,0.8
			C44.2,70.2,44.6,70.6,45,70.6C45,70.6,45,70.6,45,70.6z"/>
		<path class="st12" d="M34.4,69c0.4,0,0.8-0.3,0.8-0.8c0-0.4-0.3-0.8-0.8-0.8s-0.8,0.3-0.8,0.8l0,0C33.6,68.7,33.9,69,34.4,69z"/>
		<path class="st1" d="M34.4,77.7c0.4,0,0.8-0.3,0.8-0.8c0-0.4-0.3-0.8-0.8-0.8s-0.8,0.3-0.8,0.8l0,0C33.6,77.4,33.9,77.7,34.4,77.7
			z"/>
		<path class="st3" d="M7.8,73.1c0.4,0,0.8-0.3,0.8-0.8c0-0.4-0.3-0.8-0.8-0.8c-0.4,0-0.8,0.3-0.8,0.8l0,0
			C7.1,72.7,7.4,73.1,7.8,73.1z"/>
		<g class="st10">
			<path class="st5" d="M25.1,78.5c14.5,0,26.3-11.8,26.2-26.4c0-14.5-11.8-26.3-26.4-26.2c-11.5,0-21.6,7.5-25,18.4v15.7
				C3.5,71,13.7,78.5,25.1,78.5z"/>
			<path class="st5" d="M0,0v43.4c4.9-13.9,20.1-21.1,33.9-16.2S55.1,47.2,50.2,61S30.1,82.2,16.2,77.3C8.7,74.6,2.7,68.6,0,61v29
				h150V0H0z"/>
			<path class="st6" d="M25.1,78.8c14.7,0,26.6-12,26.5-26.7c0-14.7-12-26.6-26.7-26.5c-11.3,0-21.3,7.1-25,17.8v1
				c4.3-13.9,19.1-21.6,32.9-17.2s21.6,19.1,17.2,32.9S31.1,81.7,17.2,77.3C9,74.7,2.6,68.3,0,60.1v1C3.8,71.7,13.9,78.8,25.1,78.8z
				"/>
		</g>
		<g class="st10">
			<path class="st5" d="M138.9,57c0,6,4.9,10.9,10.9,10.9h0.2V46.2h-0.2C143.8,46.1,138.9,51,138.9,57z"/>
			<path class="st5" d="M149.8,68.2c-6.2,0-11.2-5-11.2-11.2s5-11.2,11.2-11.2h0.2V0H0v90h150V68.2L149.8,68.2z"/>
			<path class="st6" d="M138.6,57c0,6.2,5,11.2,11.2,11.2h0.2v-0.3h-0.2c-6,0-10.9-4.9-10.9-10.9c0-6,4.9-10.9,10.9-10.9
				c0,0,0,0,0,0h0.2v-0.3h-0.2C143.6,45.8,138.6,50.8,138.6,57z"/>
		</g>
		<g class="st7">
			<path class="st5" d="M0,0v90h119.8c-5.1-3.7-6.3-10.8-2.6-15.9s10.8-6.3,15.9-2.6c5.1,3.7,6.3,10.8,2.6,15.9
				c-0.7,1-1.6,1.9-2.6,2.6H150V0H0z"/>
			<path class="st5" d="M137.6,80.8c0-6.1-4.9-11.1-11.1-11.2c-6.1,0-11.1,4.9-11.2,11.1c0,3.8,1.9,7.3,5,9.3h12.2
				C135.7,88,137.6,84.5,137.6,80.8z"/>
			<path class="st11" d="M137.9,80.8c0-6.3-5.1-11.5-11.4-11.5c-6.3,0-11.5,5.1-11.5,11.4c0,3.7,1.8,7.2,4.8,9.4h0.5
				c-5.1-3.4-6.5-10.3-3.2-15.4s10.3-6.5,15.4-3.2c5.1,3.4,6.5,10.3,3.2,15.4c-0.8,1.3-1.9,2.3-3.2,3.2h0.5
				C136.1,87.9,137.9,84.4,137.9,80.8z"/>
		</g>
		<g class="st4">
			<path class="st5" d="M0,0v90h113.5c-1.9-2.7-3-5.9-3-9.2c0.6-8.8,8.2-15.5,17-14.9c8,0.5,14.4,6.9,14.9,14.9c0,3.3-1.1,6.6-3,9.2
				H150V0H0z"/>
			<path class="st5" d="M126.5,65.1c-8.6,0-15.6,7-15.7,15.6c0,3.3,1.1,6.6,3.1,9.2h25.2c2-2.7,3.1-5.9,3.1-9.2
				C142.1,72.1,135.1,65.1,126.5,65.1z"/>
			<path class="st11" d="M126.5,64.8c-8.8,0-16,7.1-16,15.9c0,3.3,1.1,6.6,3,9.2h0.4c-2-2.7-3.1-5.9-3.1-9.2
				c0.2-8.6,7.4-15.5,16.1-15.3c8.3,0.2,15,6.9,15.3,15.3c0,3.3-1.1,6.6-3,9.2h0.4c1.9-2.7,3-5.9,3-9.2
				C142.4,72,135.3,64.8,126.5,64.8z"/>
		</g>
		<g class="st10">
			<path class="st5" d="M0,0v90h106.2c-5.1-11.2-0.1-24.4,11.1-29.5s24.4-0.1,29.5,11.1c2.7,5.9,2.7,12.6,0,18.4h3.1V0H0z"/>
			<path class="st5" d="M126.6,58.9c-12.1-0.1-22,9.7-22,21.8c0,3.2,0.7,6.4,2,9.3h40c5.1-11,0.3-24-10.7-29.1
				C132.9,59.6,129.8,58.9,126.6,58.9z"/>
			<path class="st11" d="M126.6,58.6c-12.3,0-22.3,9.9-22.3,22.1c0,3.2,0.7,6.4,2,9.3h0.3c-5.1-11-0.2-24.1,10.8-29.2
				s24.1-0.2,29.2,10.8c2.7,5.8,2.7,12.5,0,18.3h0.3c1.3-2.9,2-6,2-9.2C148.9,68.5,138.9,58.6,126.6,58.6
				C126.6,58.6,126.6,58.6,126.6,58.6z"/>
		</g>
		<g class="st7">
			<path class="st5" d="M0,0v90h63.6C54,86,49.4,74.9,53.4,65.3s15.1-14.2,24.7-10.2s14.2,15.1,10.2,24.7
				c-1.9,4.6-5.6,8.3-10.2,10.2H150V0H0z"/>
			<path class="st5" d="M89.5,72.6C89.5,62.3,81.2,54,71,54s-18.6,8.2-18.7,18.5c0,7.8,4.9,14.9,12.2,17.5h12.7
				C84.6,87.3,89.4,80.4,89.5,72.6z"/>
			<path class="st13" d="M89.8,72.6c0-10.4-8.4-18.9-18.8-18.9C60.5,53.6,52,62.1,52,72.5c0,7.7,4.6,14.6,11.6,17.5h0.9
				c-9.6-3.5-14.6-14.2-11.1-23.8c3.5-9.6,14.2-14.6,23.8-11.1c9.6,3.5,14.6,14.2,11.1,23.8c-1.9,5.2-5.9,9.2-11.1,11.1h0.9
				C85.2,87.1,89.8,80.2,89.8,72.6z"/>
		</g>
		<g class="st4">
			<path class="st5" d="M70.9,46.6c-14.4-0.1-26.1,11.5-26.1,25.9c0,6.5,2.4,12.8,6.7,17.6h38.8c9.6-10.6,8.8-27.1-1.8-36.7
				C83.6,48.9,77.4,46.5,70.9,46.6z"/>
			<path class="st5" d="M0,0v90h51c-9.7-11-8.6-27.7,2.4-37.3S81,44.1,90.7,55c8.8,10,8.8,25,0,35H150V0H0z"/>
			<path class="st13" d="M70.9,46.2c-14.5-0.1-26.4,11.7-26.5,26.2c0,6.5,2.3,12.7,6.6,17.6h0.4c-9.6-10.7-8.8-27.2,2-36.9
				s27.2-8.8,36.9,2c8.9,9.9,8.9,25,0,34.9h0.4c9.6-10.9,8.6-27.5-2.3-37.2C83.6,48.6,77.3,46.2,70.9,46.2z"/>
		</g>
		<g class="st10">
			<path class="st5" d="M0,0v90h38.4C35.5,84.7,34,78.8,34,72.7c0.8-20.4,18-36.3,38.5-35.5c19.3,0.8,34.7,16.2,35.5,35.5
				c0,6-1.4,11.9-4.3,17.3H150V0H0z"/>
			<path class="st5" d="M71,36.2c-20.2-0.1-36.6,16.2-36.6,36.4c0,6.1,1.5,12.1,4.4,17.4h64.6c9.5-17.8,2.9-39.9-14.9-49.5
				C83.1,37.7,77.1,36.2,71,36.2z"/>
			<path class="st13" d="M71,35.9c-20.4,0-36.9,16.5-37,36.9c0,6,1.5,12,4.4,17.3h0.3C29.3,72.1,36.1,50,54,40.5s40-2.6,49.5,15.3
				c2.8,5.2,4.2,11,4.2,16.9c0,6-1.5,12-4.4,17.3h0.3c2.8-5.3,4.3-11.2,4.3-17.3C107.9,52.4,91.4,35.9,71,35.9z"/>
		</g>
	</g>
</g>
</svg>
