<?xml version="1.0" encoding="utf-8"?>
<!-- Generator: Adobe Illustrator 25.4.1, SVG Export Plug-In . SVG Version: 6.00 Build 0)  -->
<svg version="1.1" id="Layer_1" xmlns="http://www.w3.org/2000/svg" xmlns:xlink="http://www.w3.org/1999/xlink" x="0px" y="0px"
	 viewBox="0 0 150 90" style="enable-background:new 0 0 150 90;" xml:space="preserve">
<style type="text/css">
	.st0{clip-path:url(#SVGID_00000049223151491924544080000003236617210570523804_);}
	.st1{fill:#111111;}
	.st2{fill-rule:evenodd;clip-rule:evenodd;fill:#FFFFFF;}
</style>
<g>
	<defs>
		<rect id="SVGID_1_" width="150" height="90"/>
	</defs>
	<clipPath id="SVGID_00000169531108787421764900000012077236887773266074_">
		<use xlink:href="#SVGID_1_"  style="overflow:visible;"/>
	</clipPath>
	<g style="clip-path:url(#SVGID_00000169531108787421764900000012077236887773266074_);">
		<rect class="st1" width="150" height="90"/>
		<path class="st2" d="M64.4,46c-2.3,2.8-4.6,6.2-4.6,8.7c0,1,0.3,1.8,1,2.5c1,0.9,2.2,1.2,3.4,1.2c1.7,0,3.4-0.7,4.7-1.2
			c2.2-0.9,26.8-11.6,26.8-11.6c0.2-0.1,0.2-0.3-0.1-0.2c-0.1,0-26.7,7.2-26.7,7.2c-0.5,0.1-1,0.2-1.6,0.2c-2,0-3.9-1.1-3.8-3.5
			C63.5,48.5,63.8,47.4,64.4,46L64.4,46z"/>
	</g>
</g>
</svg>
