<?xml version="1.0" encoding="utf-8"?>
<!-- Generator: Adobe Illustrator 25.2.1, SVG Export Plug-In . SVG Version: 6.00 Build 0)  -->
<svg version="1.1" id="Layer_1" xmlns="http://www.w3.org/2000/svg" xmlns:xlink="http://www.w3.org/1999/xlink" x="0px" y="0px"
	 viewBox="0 0 100 100" style="enable-background:new 0 0 100 100;" xml:space="preserve">
<style type="text/css">
	.st0{fill:none;}
	.st1{fill:#DCDCDC;}
</style>
<rect x="-0.1" y="0.1" class="st0" width="100" height="100"/>
<g id="g2245">
	<g id="g2247">
		<path id="path2249" class="st1" d="M25.8,53.6c0.1,0,0.3,0,0.4-0.1l1.5-0.8c0.3-0.2,0.7-0.2,1-0.2c1.2,0.1,2.3,0.3,3.4,0.7
			c0.1,0,0.2,0,0.2-0.1c0.1-0.1,0.2-0.2,0.2-0.4c0.1-0.1,0.1-0.3,0.1-0.4c0-0.1-0.1-0.1-0.1-0.2c-4.4-1.2-8.9-1.2-13.3,0
			c-0.1,0-0.1,0.1-0.1,0.2c0,0.1,0,0.3,0.1,0.4c0,0.1,0.1,0.3,0.2,0.4c0,0.1,0.1,0.1,0.2,0.1c1.1-0.3,2.3-0.5,3.4-0.7
			c0.3,0,0.7,0,1,0.2l1.5,0.8C25.5,53.6,25.6,53.6,25.8,53.6z"/>
		<path id="path2251" class="st1" d="M23.3,48.8c0.1,0.1,0.2,0.2,0.3,0.3c0.2,0,0.3,0,0.5-0.1c0.1-0.1,0.2-0.2,0.3-0.4
			c0.1-0.2,0-0.3-0.1-0.5L23,45.9c0-0.1-0.1-0.1-0.2-0.1c-0.2,0-0.3,0.1-0.4,0.2c-0.1,0.1-0.3,0.2-0.3,0.3c0,0.1,0,0.2,0,0.2
			L23.3,48.8z"/>
		<path id="path2253" class="st1" d="M22.1,50.5c0.1,0.1,0.3,0.1,0.5,0.1c0.2,0,0.3-0.1,0.3-0.3c0.1-0.1,0.1-0.3,0.1-0.5
			c0-0.2-0.1-0.3-0.3-0.4l-2.3-1.3c-0.1,0-0.2,0-0.2,0c-0.1,0.1-0.2,0.2-0.3,0.4c-0.1,0.1-0.1,0.3-0.2,0.4c0,0.1,0,0.2,0.1,0.2
			L22.1,50.5z"/>
		<path id="path2255" class="st1" d="M26.4,48c0,0.3-0.3,0.6-0.6,0.6c-0.3,0-0.6-0.3-0.6-0.6v-2.7c0-0.1,0.1-0.1,0.1-0.2
			c0.1-0.1,0.3-0.1,0.5-0.1c0.2,0,0.3,0,0.5,0.1c0.1,0,0.1,0.1,0.1,0.2V48z"/>
		<path id="path2257" class="st1" d="M28.3,48.8c-0.1,0.1-0.2,0.2-0.3,0.3c-0.2,0-0.3,0-0.5-0.1c-0.1-0.1-0.2-0.2-0.3-0.4
			c0-0.2,0-0.3,0.1-0.5l1.3-2.3c0-0.1,0.1-0.1,0.2-0.1c0.2,0,0.3,0.1,0.4,0.2c0.1,0.1,0.3,0.2,0.3,0.3c0,0.1,0,0.2,0,0.2L28.3,48.8z
			"/>
		<path id="path2259" class="st1" d="M29.5,50.5c-0.1,0.1-0.3,0.1-0.5,0.1c-0.2,0-0.3-0.1-0.3-0.3c-0.1-0.1-0.1-0.3-0.1-0.5
			c0-0.2,0.1-0.3,0.3-0.4l2.3-1.3c0.1,0,0.2,0,0.2,0c0.1,0.1,0.2,0.2,0.3,0.4c0.1,0.1,0.1,0.3,0.2,0.4c0,0.1,0,0.2-0.1,0.2
			L29.5,50.5z"/>
	</g>
	<g id="g2261">
		<path id="path2263" class="st1" d="M44.3,48.6h1.1c0,0,0.1,0,0.1,0.1l1.1,2.8l1-2.8c0,0,0.1-0.1,0.1-0.1h1.1
			c0.1,0,0.1,0.1,0.1,0.1L46.2,55c0,0-0.1,0.1-0.1,0.1h-1C45,55,45,55,45,54.9l1-2.2l-1.8-4C44.1,48.7,44.2,48.6,44.3,48.6z"/>
		<path id="path2265" class="st1" d="M60.7,49.2v-0.5c0-0.1,0-0.1,0.1-0.1h1c0.1,0,0.1,0,0.1,0.1c0,0,0,0,0,0v4.2
			c0,0.1,0,0.1-0.1,0.1c0,0,0,0,0,0h-1c-0.1,0-0.1,0-0.1-0.1v-0.6c-0.3,0.5-0.9,0.8-1.4,0.8c-1.2,0-2.2-0.9-2.2-2.1
			c0-0.1,0-0.2,0-0.3c-0.1-1.2,0.8-2.2,1.9-2.3c0.1,0,0.2,0,0.3,0C59.9,48.5,60.4,48.8,60.7,49.2z M58.3,50.8
			c-0.1,0.7,0.4,1.3,1.1,1.3c0.1,0,0.1,0,0.2,0c0.7,0,1.2-0.5,1.2-1.1c0-0.1,0-0.1,0-0.2c0.1-0.7-0.4-1.3-1.1-1.4c0,0-0.1,0-0.1,0
			c-0.7,0-1.2,0.6-1.2,1.2C58.3,50.7,58.3,50.7,58.3,50.8z"/>
		<path id="path2267" class="st1" d="M62.8,52.9v-4.2c0-0.1,0-0.1,0.1-0.1c0,0,0,0,0,0h1c0.1,0,0.1,0,0.1,0.1v0.6
			c0.3-0.5,0.8-0.8,1.4-0.8c0.8,0,1.6,0.4,1.6,2.1v2.3c0,0.1,0,0.1-0.1,0.1c0,0,0,0,0,0h-1c-0.1,0-0.1,0-0.1-0.1v-2.3
			c0-0.4-0.1-1.1-0.8-1.1s-1,0.6-1,1.3V53c0,0.1,0,0.1-0.1,0.1h-1C62.8,53,62.8,53,62.8,52.9z"/>
		<path id="path2269" class="st1" d="M67.8,52.9v-4.2c0-0.1,0-0.1,0.1-0.1h1c0.1,0,0.1,0,0.1,0.1c0,0,0,0,0,0v0.6
			c0.3-0.5,0.8-0.8,1.4-0.8c0.8,0,1.6,0.4,1.6,2.1v2.3c0,0.1,0,0.1-0.1,0.1c0,0,0,0,0,0h-1c-0.1,0-0.1,0-0.1-0.1v-2.3
			c0-0.4-0.1-1.1-0.8-1.1s-1,0.6-1,1.3V53c0,0.1,0,0.1-0.1,0.1h-1C67.9,53,67.8,53,67.8,52.9z"/>
		<path id="path2271" class="st1" d="M78.2,48.6h1c0.1,0,0.1,0,0.1,0.1v0.9c0.1-0.7,0.8-1.2,1.5-1.1c0,0,0.1,0,0.1,0.1v1
			c0,0.1,0,0.1-0.1,0.1c-1-0.2-1.4,0.4-1.4,1.1V53c0,0.1,0,0.1-0.1,0.1h-1c-0.1,0-0.1,0-0.1-0.1v-4.3C78.1,48.6,78.1,48.6,78.2,48.6
			z"/>
		<path id="path2273" class="st1" d="M37.7,49.5c-0.3-0.1-0.5-0.2-0.7-0.2s-0.7-0.4-0.7-0.7s0.3-0.6,0.8-0.6c0.4,0,0.8,0.2,1,0.6
			c0,0.1,0.1,0.1,0.1,0l0.8-0.4c0,0,0.1-0.1,0-0.1c-0.3-0.7-1.1-1.2-1.9-1.2c-1.3,0-2,0.7-2,1.7s0.6,1.5,1.5,1.8l0.7,0.2
			c0.5,0.2,0.8,0.4,0.8,0.7S38,52,37.2,52c-0.5,0-1-0.3-1.2-0.8c0,0-0.1,0-0.1,0c0,0,0,0,0,0l-0.8,0.5c0,0-0.1,0.1,0,0.1
			c0.4,0.8,1.3,1.3,2.2,1.3c1.2,0,2.2-0.6,2.2-1.8S38,49.6,37.7,49.5z"/>
		<path id="path2275" class="st1" d="M44.2,51.9c0,0-0.1-0.1-0.1,0c-0.3,0.3-0.8,0.3-1,0c-0.1-0.1-0.1-0.1-0.1-0.2
			c-0.3-0.5-0.6-1-0.6-1l1.5-1.9c0,0,0-0.1,0-0.1c0,0,0,0-0.1,0h-1.1h-0.1l-1.3,1.8v-3.5c0-0.1,0-0.1-0.1-0.1h-1
			c-0.1,0-0.1,0-0.1,0.1v6.1c0,0.1,0,0.1,0.1,0.1c0,0,0,0,0,0h1c0.1,0,0.1,0,0.1-0.1v-2c0,0,0.7,1,0.9,1.4c0.3,0.5,0.8,0.7,1.3,0.7
			c0.5,0,0.9-0.2,1.2-0.5c0,0,0-0.1,0-0.1L44.2,51.9z"/>
		<path id="path2277" class="st1" d="M51.3,50.5c-0.2-0.1-0.5-0.2-0.7-0.2c-0.2-0.1-0.4-0.2-0.4-0.4s0.2-0.4,0.5-0.4
			c0.3,0,0.5,0.1,0.6,0.4c0,0,0.1,0.1,0.1,0c0,0,0,0,0,0l0.7-0.4c0,0,0.1-0.1,0-0.1c-0.3-0.5-0.9-0.8-1.5-0.8
			c-1.1,0-1.7,0.6-1.7,1.3s0.6,1.1,1.1,1.3s0.6,0.2,0.7,0.3s0.4,0.2,0.4,0.4s-0.2,0.4-0.6,0.4c-0.4,0-0.8-0.2-0.9-0.6
			c0,0-0.1,0-0.1,0c0,0,0,0,0,0l-0.7,0.4c0,0-0.1,0.1,0,0.1c0.3,0.7,1,1.1,1.8,1c1,0,1.8-0.6,1.8-1.4S51.9,50.7,51.3,50.5z"/>
		<path id="path2279" class="st1" d="M55.3,49.5c0.4,0,0.8,0.1,1.1,0.4c0,0,0.1,0,0.1,0c0,0,0,0,0,0l0.4-0.7c0,0,0-0.1,0-0.1
			c-0.5-0.4-1.1-0.5-1.7-0.6c-0.7,0-1.3,0.2-1.8,0.7c-0.4,0.4-0.7,1.1-0.7,1.7c0,0.6,0.2,1.2,0.7,1.6c0.5,0.5,1.1,0.7,1.8,0.7
			c0.6,0,1.2-0.2,1.7-0.6c0,0,0.1-0.1,0-0.1l-0.4-0.7c0,0-0.1-0.1-0.1,0c-0.3,0.2-0.7,0.3-1.1,0.4c-0.7,0-1.3-0.5-1.4-1.2
			c0,0,0-0.1,0-0.1c0-0.7,0.5-1.2,1.2-1.3C55.2,49.5,55.2,49.5,55.3,49.5z"/>
		<path id="path2281" class="st1" d="M75.3,52.1c-0.4,0-0.7-0.1-1-0.3c-0.2-0.2-0.4-0.4-0.4-0.7h3.5c0.1,0,0.1,0,0.1-0.1
			c0-0.7-0.2-1.4-0.7-1.9c-0.5-0.4-1.1-0.7-1.7-0.7c-0.6,0-1.3,0.2-1.8,0.7c-0.4,0.4-0.7,1-0.7,1.6c0,0.6,0.2,1.2,0.7,1.6
			c1.1,1,2.9,0.9,3.9-0.2c0,0,0-0.1,0-0.1c0,0,0,0,0,0l-0.7-0.4c0,0-0.1,0-0.1,0c0,0,0,0,0,0C76.1,52,75.7,52.2,75.3,52.1z
			 M75.1,49.4c0.6,0,1.1,0.4,1.2,1h-2.4C74,49.8,74.5,49.4,75.1,49.4z"/>
	</g>
</g>
</svg>
