<?xml version="1.0" encoding="utf-8"?>
<!-- Generator: Adobe Illustrator 25.2.1, SVG Export Plug-In . SVG Version: 6.00 Build 0)  -->
<svg version="1.1" id="Layer_1" xmlns="http://www.w3.org/2000/svg" xmlns:xlink="http://www.w3.org/1999/xlink" x="0px" y="0px"
	 viewBox="0 0 100 100" style="enable-background:new 0 0 100 100;" xml:space="preserve">
<style type="text/css">
	.st0{fill:none;}
	.st1{fill:#DCDCDC;}
</style>
<rect x="-0.1" y="0.1" class="st0" width="100" height="100"/>
<path class="st1" d="M28.4,49.3l-0.7,2.8H30c-0.2,1.5-3.9,2.1-3.3-1.5c0.4-2.5,3.5-3.9,4.2-1.9l3.9-1c-0.6-2.4-2.7-3.6-5-3.6
	c-3.8,0-7,2.9-7.3,6.7c-0.4,3.7,2.4,5.8,5.6,5.7c1.8,0,3.5-0.5,5-1.5l1.4-5.7L28.4,49.3z M35.5,48l-2,8.3h4l1.9-8.3H35.5z
	 M41.4,43.3l-3.1,13h4l3.1-13H41.4z M40.4,44.5h-4l-0.7,3l4.3-1.1L40.4,44.5z M73.4,47.5c-1.5,0-3,0.7-4,1.9
	c0.1-0.6,0.3-1.3,0.3-1.3h-1.7l0.9-3.6h-4l-0.9,3.6h-0.9l0.9-3.6h-4l-0.9,3.6h-1.3l-0.6,2.2c-0.5-1.7-2.1-2.9-3.9-2.8
	c-2.3,0-4.3,1.5-5,3.7l1.9-7.9h-4l-3.1,13h4l0.9-3.7c-0.2,1.5,0.4,4.1,4,4.1c1.8,0,4.1-1.2,4.7-2.8l-3.2-0.6
	c-0.3,0.4-0.8,0.7-1.4,0.7c-0.9,0-1.1-0.7-0.9-1.4H57c0.1-0.4,0.2-0.7,0.2-1.1c0-0.2,0-0.4,0-0.6h1.1l-1.3,5.4h4l1.3-5.4h0.9
	L62,56.3h4l1.3-5.4h1.2c-0.2,0.5-0.3,1-0.4,1.5l0,0c-0.2,1.4,0.3,4.3,4,4.3c1.8,0,4.1-1.2,4.7-2.8l-3.2-0.6
	c-0.3,0.4-0.8,0.7-1.4,0.7c-0.9,0-1.1-0.7-0.9-1.4h5.9c0.1-0.4,0.2-0.8,0.2-1.1C77.6,48.8,75.4,47.5,73.4,47.5 M53.9,51.1h-2.2
	C52.1,49.9,54.1,49.6,53.9,51.1 M74,51.1h-2.2C72.1,49.9,74.2,49.6,74,51.1"/>
</svg>
