<?xml version="1.0" encoding="utf-8"?>
<!-- Generator: Adobe Illustrator 25.2.1, SVG Export Plug-In . SVG Version: 6.00 Build 0)  -->
<svg version="1.1" id="Layer_1" xmlns="http://www.w3.org/2000/svg" xmlns:xlink="http://www.w3.org/1999/xlink" x="0px" y="0px"
	 viewBox="0 0 100 100" style="enable-background:new 0 0 100 100;" xml:space="preserve">
<style type="text/css">
	.st0{fill:none;}
	.st1{fill:#DCDCDC;}
</style>
<rect x="-0.1" y="0.1" class="st0" width="100" height="100"/>
<path id="path7" class="st1" d="M59.4,37.9c1.1-0.3,2.2-0.1,3.1,0.4c1.3,0.9,2.2,2.2,2.6,3.6c1.4,4.1,1.7,8.5,1,12.7
	c0,1.1-0.6,2.2-1.6,2.8c-0.6,0.3-1.4,0.1-1.9-0.4c-0.7-0.9-0.5-2-0.4-3c0.2-1.6,0.3-3.2,0.2-4.9c0-0.8-0.3-1.5-0.9-2
	c-0.6-0.4-1.3-0.4-1.8,0c-0.9,0.6-1.6,1.5-2,2.5c-1.1,2.5-2,5-2.7,7.6c-0.4,1.2-1.2,2.2-2.2,3c-1.3,0.8-2.8,1.2-4.4,1.1
	c-1.9-0.2-3.7-1.2-4.7-2.9c-1.3-2.1-2.4-4.2-3.6-6.2c-0.4-0.6-0.9-1.4-1.7-1.3s-1.2,1-1.2,1.8c0.1,2.5,1.3,4.9,1.7,7.4
	c0.2,0.8-0.1,1.7-0.8,2.1c-0.5,0.1-1,0.1-1.4,0c-0.6-0.3-1.1-0.9-1.3-1.6c-1.1-2.6-1.8-5.2-2.1-8c-0.1-1.4,0-2.8,0.2-4.2
	c0.4-2.3,1-4.7,2.7-6.4c1.5-1.5,3.8-1.8,5.7-0.8c1.7,1.2,2.8,3,3.9,4.7c0.8,1.3,1.6,2.8,3.1,3.5c1.1,0.5,2.4,0.2,3.2-0.6
	c0.5-0.6,0.9-1.3,1.1-2c0.6-1.5,1.2-3.1,1.9-4.6C55.7,40.1,57.4,38.5,59.4,37.9z"/>
</svg>
