<?xml version="1.0" encoding="utf-8"?>
<!-- Generator: Adobe Illustrator 25.4.1, SVG Export Plug-In . SVG Version: 6.00 Build 0)  -->
<svg version="1.1" id="Layer_1" xmlns="http://www.w3.org/2000/svg" xmlns:xlink="http://www.w3.org/1999/xlink" x="0px" y="0px"
	 viewBox="0 0 100 100" style="enable-background:new 0 0 100 100;" xml:space="preserve">
<style type="text/css">
	.st0{fill:none;}
	.st1{fill-rule:evenodd;clip-rule:evenodd;fill:#DCDCDC;}
</style>
<rect x="-0.1" y="0.1" class="st0" width="100" height="100"/>
<sodipodi:namedview  bordercolor="#666666" borderopacity="1" gridtolerance="10" guidetolerance="10" id="namedview5870" objecttolerance="10" pagecolor="#ffffff" showgrid="false">
	</sodipodi:namedview>
<g id="_x2D_-Symbols" transform="matrix(3.3220133,0,0,3.3220133,374.68251,490.3022)">
	<g id="Footer-1440_00000000929254506973940390000008565668449231615666_" transform="translate(-137,-447)">
		<g id="Logo_00000025422687025260148960000013892847931555564479_" transform="translate(137,447)">
			<path id="Fill-1_00000060722746450364776210000004034637223982248323_" class="st1" d="M-101.4-133.2
				C-101.4-133.3-101.4-133.3-101.4-133.2c0.1-0.1,0.2,0,0.3,0.1c0,0,0,0-0.1,0C-101.3-133.1-101.4-133.1-101.4-133.2L-101.4-133.2z
				 M-108.4-133.2C-108.4-133.3-108.4-133.3-108.4-133.2c0.1-0.1,0.2,0,0.3,0.1C-108.3-133.1-108.4-133.1-108.4-133.2z
				 M-107.1-133.9c0-0.7,0.1-0.8,0.2-0.8c0.1,0,0.1,0,0.1,0.3c0,0.3-0.1,0.7-0.3,0.9V-133.9z M-102.1-133.2
				c-0.1,0.1-0.2,0.3-0.2,0.5c0,0.4,0.2,0.8,0.7,0.8c0.4,0,0.7-0.3,0.7-0.8c0-0.1,0-0.2,0-0.2c0.1,0,0.2-0.1,0.3-0.2
				c0.1,0,0.1-0.1,0.1-0.1c0,0,0.1,0,0.1,0.1v1c0,0.2,0,0.2,0.2,0.2c0.1,0,0.2-0.1,0.2-0.2c0.2-0.3,0.4-0.8,0.5-1c0,0,0-0.1,0.1-0.1
				c0,0,0,0,0,0.1v0.8c0,0.2,0.1,0.4,0.3,0.4c0.2,0,0.3-0.2,0.5-0.5c0,0,0,0,0,0c0,0,0-0.1-0.1-0.1c0,0-0.1,0-0.2,0.2
				c0,0-0.1,0.1-0.1,0.1c0,0,0,0,0-0.1v-0.9c0-0.2-0.1-0.3-0.2-0.3c-0.1,0-0.2,0-0.3,0.2c-0.2,0.2-0.3,0.6-0.4,0.8c0,0,0,0,0,0
				c0,0,0,0,0,0v-0.6c0-0.2,0-0.3-0.2-0.3c-0.2,0-0.3,0.1-0.4,0.2c-0.1,0.1-0.2,0.1-0.2,0.1c-0.1-0.2-0.3-0.4-0.4-0.4
				c-0.2,0-0.3,0.1-0.3,0.3c0,0.2,0.1,0.3,0.2,0.3c0.1,0,0.1,0,0.2,0c0,0,0.1,0,0.1,0c0,0,0,0.1,0,0.2c0,0.2-0.1,0.5-0.4,0.5
				c-0.3,0-0.4-0.3-0.4-0.6c0-0.2,0.1-0.4,0.2-0.5c0,0,0.1-0.1,0.1-0.1c0,0,0,0-0.1,0c-0.2,0-0.4,0.1-0.5,0.2
				c-0.2,0.1-0.4,0.3-0.6,0.4c-0.1-0.2-0.2-0.4-0.2-0.5c0-0.1,0-0.1-0.1-0.1c0,0,0,0-0.1,0.1c-0.1,0.3-0.6,1-0.7,1.1c0,0,0,0,0,0
				c0,0,0,0,0,0v-0.9c0-0.2-0.1-0.3-0.2-0.3c-0.1,0-0.2,0-0.3,0.2c-0.2,0.2-0.4,0.6-0.4,0.8c0,0,0,0,0,0c0,0,0,0,0,0v-0.6
				c0-0.2-0.1-0.3-0.2-0.3c-0.1,0-0.2,0-0.3,0.2c-0.2,0.3-0.5,0.9-0.6,1c0,0,0,0,0,0c0,0,0,0,0,0v-0.8c0-0.2-0.1-0.3-0.2-0.3
				c-0.2,0-0.3,0.2-0.3,0.3c-0.1,0.1-0.2,0.3-0.3,0.5c-0.1,0.1-0.1,0.2-0.1,0.2c0,0,0,0,0-0.1v-0.7c0.3-0.3,0.5-0.8,0.5-1.2
				c0-0.3-0.1-0.4-0.3-0.4c-0.3,0-0.6,0.5-0.6,1.1v0.5c-0.2,0.1-0.3,0.1-0.5,0.2c-0.1-0.3-0.3-0.4-0.4-0.4c-0.2,0-0.3,0.1-0.3,0.3
				c0,0.3,0.3,0.4,0.5,0.4h0.1c0,0,0,0.1,0,0.2c0,0.2-0.1,0.5-0.4,0.5c-0.3,0-0.4-0.3-0.4-0.6c0-0.2,0.1-0.4,0.2-0.5
				c0,0,0.1-0.1,0.1-0.1c0,0,0,0-0.1,0c-0.2,0-0.6,0.2-1.1,0.7c0-0.4-0.1-0.8-0.1-1.1c0-0.4,0.1-0.8,0.1-0.9c0-0.1,0-0.1,0-0.1
				c0,0,0-0.1-0.1-0.1c-0.4,0-1.3,0.6-1.3,1.6c0,0.7,0.2,1,0.7,1.4c-0.3,0.4-0.5,0.9-0.5,1.3c0,0.3,0.1,0.6,0.3,0.6
				c0.5,0,0.8-1,0.8-1.8c0-0.2,0-0.4,0-0.7c0.2-0.2,0.5-0.4,0.5-0.5c0,0.1,0,0.2,0,0.3c0,0.4,0.2,0.8,0.7,0.8c0.4,0,0.7-0.3,0.7-0.8
				c0-0.1,0-0.1,0-0.2c0.2,0,0.3-0.1,0.4-0.2v1c0,0.1,0.1,0.2,0.2,0.2c0.1,0,0.2-0.1,0.3-0.3c0.1-0.1,0.3-0.5,0.4-0.7
				c0.1-0.2,0.1-0.3,0.2-0.3c0,0,0,0,0,0.1v0.8c0,0.2,0.1,0.3,0.2,0.3c0.1,0,0.2-0.1,0.2-0.1c0.3-0.4,0.5-0.8,0.6-1
				c0,0,0-0.1,0.1-0.1c0,0,0,0,0,0.1v0.9c0,0.2,0,0.2,0.2,0.2c0.1,0,0.2-0.1,0.2-0.2c0.2-0.3,0.4-0.8,0.5-1c0,0,0-0.1,0.1-0.1
				c0,0,0,0,0,0.1v0.8c0,0.2,0.1,0.3,0.2,0.3c0.1,0,0.2-0.1,0.3-0.2c0.2-0.2,0.4-0.6,0.5-0.8c0,0.1,0.1,0.2,0.1,0.3
				c-0.1,0.1-0.2,0.3-0.2,0.5c0,0.2,0.1,0.3,0.3,0.3c0.2,0,0.4-0.2,0.4-0.5c0-0.1,0-0.2-0.1-0.4C-102.6-133-102.3-133.2-102.1-133.2
				L-102.1-133.2z M-110.2-132.1c0,0.3,0.1,0.5,0.1,0.7c0,0.5-0.2,1-0.4,1c-0.1,0-0.2-0.1-0.2-0.3
				C-110.7-131.3-110.4-131.8-110.2-132.1L-110.2-132.1z M-103.1-132.5c0,0.1,0,0.2,0,0.2c0,0.1,0,0.2-0.1,0.2c0,0-0.1,0-0.1-0.1
				C-103.2-132.3-103.1-132.4-103.1-132.5z M-110-134.8c0,0-0.1,0.2-0.2,0.4c-0.1,0.3-0.2,0.6-0.2,1c0,0.3,0.1,0.6,0.1,0.9l-0.2,0.2
				c-0.2-0.3-0.4-0.6-0.4-1.2C-110.8-134.2-110.3-134.8-110-134.8C-110-134.8-110-134.8-110-134.8z"/>
			<path id="Fill-4_00000155859234291630532930000001576614290648489091_" class="st1" d="M-87.2-133.2
				C-87.2-133.3-87.1-133.3-87.2-133.2c0.1-0.1,0.2,0,0.3,0.1c0,0,0,0-0.1,0C-87.1-133.1-87.2-133.1-87.2-133.2z M-94.2-133.2
				C-94.2-133.3-94.2-133.3-94.2-133.2c0.1-0.1,0.2,0,0.3,0.1C-94.1-133.1-94.2-133.1-94.2-133.2z M-92.8-133.9
				c0-0.7,0.1-0.8,0.2-0.8c0.1,0,0.1,0,0.1,0.3c0,0.3-0.1,0.7-0.3,0.9V-133.9z M-95.9-132.1c0,0.3,0.1,0.5,0.1,0.7
				c0,0.5-0.2,1-0.4,1c-0.1,0-0.2-0.1-0.2-0.3C-96.5-131.3-96.2-131.8-95.9-132.1L-95.9-132.1z M-88.8-132.5c0,0.1,0,0.2,0,0.2
				c0,0.1,0,0.2-0.1,0.2c0,0-0.1,0-0.1-0.1C-88.9-132.3-88.9-132.4-88.8-132.5z M-95.7-134.8c0,0-0.1,0.2-0.2,0.4
				c-0.1,0.3-0.2,0.6-0.2,1c0,0.3,0.1,0.6,0.1,0.9l-0.2,0.2c-0.2-0.3-0.4-0.6-0.4-1.2C-96.5-134.2-96-134.8-95.7-134.8
				C-95.7-134.8-95.7-134.8-95.7-134.8z M-96.5-132.4c0.1,0.1,0.2,0.2,0.3,0.3c-0.3,0.4-0.5,0.9-0.5,1.3c0,0.3,0.1,0.6,0.3,0.6
				c0.5,0,0.8-1,0.8-1.8c0-0.2,0-0.4,0-0.7c0.2-0.2,0.5-0.4,0.5-0.5c0,0.1,0,0.2,0,0.3c0,0.4,0.2,0.8,0.7,0.8c0.4,0,0.7-0.3,0.7-0.8
				c0-0.1,0-0.1,0-0.2c0.2,0,0.3-0.1,0.4-0.2v1c0,0.1,0.1,0.2,0.2,0.2c0.1,0,0.2-0.1,0.3-0.3c0.1-0.1,0.3-0.5,0.4-0.7
				c0.1-0.2,0.1-0.3,0.2-0.3c0,0,0,0,0,0.1v0.8c0,0.2,0.1,0.3,0.2,0.3c0.1,0,0.2-0.1,0.2-0.1c0.3-0.4,0.5-0.8,0.6-1
				c0,0,0-0.1,0.1-0.1c0,0,0,0,0,0.1v0.9c0,0.2,0,0.2,0.2,0.2c0.1,0,0.2-0.1,0.2-0.2c0.2-0.3,0.4-0.8,0.5-1c0,0,0-0.1,0.1-0.1
				c0,0,0,0,0,0.1v0.8c0,0.2,0.1,0.3,0.2,0.3c0.1,0,0.2-0.1,0.3-0.2c0.2-0.2,0.4-0.6,0.5-0.8c0,0.1,0.1,0.2,0.1,0.3
				c-0.1,0.1-0.2,0.3-0.2,0.5c0,0.2,0.1,0.3,0.3,0.3c0.2,0,0.4-0.2,0.4-0.5c0-0.1,0-0.2-0.1-0.4c0.2-0.2,0.4-0.4,0.6-0.4
				c-0.1,0.1-0.2,0.3-0.2,0.5c0,0.4,0.2,0.8,0.7,0.8c0.4,0,0.7-0.3,0.7-0.8c0-0.1,0-0.2,0-0.2c0.1,0,0.2-0.1,0.3-0.2
				c0.1,0,0.1-0.1,0.1-0.1c0,0,0.1,0,0.1,0.1v1c0,0.2,0,0.2,0.2,0.2c0.1,0,0.2-0.1,0.2-0.2c0.2-0.3,0.4-0.8,0.5-1c0,0,0-0.1,0.1-0.1
				c0,0,0,0,0,0.1v0.8c0,0.2,0.1,0.4,0.3,0.4c0.2,0,0.3-0.2,0.5-0.5c0,0,0,0,0,0c0,0,0-0.1-0.1-0.1c0,0-0.1,0-0.2,0.2
				c0,0-0.1,0.1-0.1,0.1c0,0,0,0,0-0.1v-0.9c0-0.2-0.1-0.3-0.2-0.3c-0.1,0-0.2,0-0.3,0.2c-0.2,0.2-0.3,0.6-0.4,0.8c0,0,0,0,0,0
				c0,0,0,0,0,0v-0.6c0-0.2,0-0.3-0.2-0.3c-0.2,0-0.3,0.1-0.4,0.2c-0.1,0.1-0.2,0.1-0.2,0.1c-0.1-0.2-0.3-0.4-0.4-0.4
				c-0.2,0-0.3,0.1-0.3,0.3c0,0.2,0.1,0.3,0.2,0.3c0.1,0,0.1,0,0.2,0c0,0,0.1,0,0.1,0c0,0,0,0.1,0,0.2c0,0.2-0.1,0.5-0.4,0.5
				c-0.3,0-0.4-0.3-0.4-0.6c0-0.2,0.1-0.4,0.2-0.5c0,0,0.1-0.1,0.1-0.1c0,0,0,0-0.1,0c-0.2,0-0.4,0.1-0.5,0.2
				c-0.2,0.1-0.4,0.3-0.6,0.4c-0.1-0.2-0.2-0.4-0.2-0.5c0-0.1,0-0.1-0.1-0.1c0,0,0,0-0.1,0.1c-0.1,0.3-0.6,1-0.7,1.1c0,0,0,0,0,0
				c0,0,0,0,0,0v-0.9c0-0.2-0.1-0.3-0.2-0.3c-0.1,0-0.2,0-0.3,0.2c-0.2,0.2-0.4,0.6-0.4,0.8c0,0,0,0,0,0c0,0,0,0,0,0v-0.6
				c0-0.2-0.1-0.3-0.2-0.3c-0.1,0-0.2,0-0.3,0.2c-0.2,0.3-0.5,0.9-0.6,1c0,0,0,0,0,0c0,0,0,0,0,0v-0.8c0-0.2-0.1-0.3-0.2-0.3
				c-0.2,0-0.3,0.2-0.3,0.3c-0.1,0.1-0.2,0.3-0.3,0.5c-0.1,0.1-0.1,0.2-0.1,0.2c0,0,0,0,0-0.1v-0.7c0.3-0.3,0.5-0.8,0.5-1.2
				c0-0.3-0.1-0.4-0.3-0.4c-0.3,0-0.6,0.5-0.6,1.1v0.5c-0.2,0.1-0.3,0.1-0.5,0.2c-0.1-0.3-0.3-0.4-0.4-0.4c-0.2,0-0.3,0.1-0.3,0.3
				c0,0.3,0.3,0.4,0.5,0.4h0.1c0,0,0,0.1,0,0.2c0,0.2-0.1,0.5-0.4,0.5c-0.3,0-0.4-0.3-0.4-0.6c0-0.2,0.1-0.4,0.2-0.5
				c0,0,0.1-0.1,0.1-0.1c0,0,0,0-0.1,0c-0.2,0-0.6,0.2-1.1,0.7c0-0.4-0.1-0.8-0.1-1.1c0-0.4,0.1-0.8,0.1-0.9c0-0.1,0-0.1,0-0.1
				c0,0,0-0.1-0.1-0.1c-0.4,0-1.3,0.6-1.3,1.6c0,0.4,0.1,0.7,0.2,0.9c-0.1,0-0.1,0-0.1,0c-0.2,0-0.3,0-0.4,0.1v-0.1
				c0-0.2,0-0.5-0.1-0.6c0,0,0,0,0,0c0,0-0.1,0-0.1,0c-0.1,0-0.1,0.1-0.1,0.1c0,0,0,0,0,0c0,0,0.1,0.1,0.2,0.4
				c-0.2-0.2-0.4-0.2-0.6-0.2c-0.3,0-0.4,0.1-0.4,0.3c0,0.3,0.3,0.4,0.8,0.4c0.1,0,0.2,0,0.3,0c0,0.1,0,0.1,0,0.2
				c0,0.1,0,0.1,0.1,0.1c0.1,0,0.1-0.2,0.1-0.4c0.2,0,0.3-0.1,0.4-0.1C-96.7-132.4-96.6-132.4-96.5-132.4L-96.5-132.4z M-97.5-132.4
				c-0.1,0-0.1,0-0.2,0c-0.2,0-0.3-0.1-0.3-0.2c0-0.1,0-0.1,0.1-0.1C-97.8-132.7-97.6-132.6-97.5-132.4L-97.5-132.4z"/>
		</g>
	</g>
</g>
</svg>
