<?xml version="1.0" encoding="utf-8"?>
<!-- Generator: Adobe Illustrator 25.2.1, SVG Export Plug-In . SVG Version: 6.00 Build 0)  -->
<svg version="1.1" id="Layer_1" xmlns="http://www.w3.org/2000/svg" xmlns:xlink="http://www.w3.org/1999/xlink" x="0px" y="0px"
	 viewBox="0 0 100 100" style="enable-background:new 0 0 100 100;" xml:space="preserve">
<style type="text/css">
	.st0{fill:none;}
	.st1{fill:#DCDCDC;}
</style>
<rect x="-0.1" y="0.1" class="st0" width="100" height="100"/>
<path class="st1" d="M27.2,54.5c-0.8-0.5-1.4-2.2-1.4-4.2V50l0,0c-2.2-0.3-3.8-1.3-3.8-2.4l0,0c-0.5,0.6-0.8,1.4-0.8,2.3
	C21.2,52.3,23.8,54.3,27.2,54.5L27.2,54.5z M20.2,50.1c0-2.7,3.4-4.9,7.5-4.9s7.5,2.2,7.5,4.9c0,2.7-3.4,4.9-7.5,4.9
	S20.1,52.7,20.2,50.1L20.2,50.1z M27.7,45.9c0.8,0,1.5,1.2,1.7,2.9l0,0C31,48.5,32,48,32,47.3c0-0.9-2-1.6-4.4-1.6s-4.4,0.7-4.4,1.6
	c0,0.7,1.1,1.2,2.6,1.5l0,0C26.2,47.1,26.9,45.9,27.7,45.9L27.7,45.9z M28.2,54.5c3.4-0.2,6-2.1,6-4.6c0-0.8-0.3-1.6-0.8-2.3l0,0
	c0,1.1-1.6,2-3.8,2.4l0,0v0.2C29.5,52.3,28.9,54,28.2,54.5L28.2,54.5z M27.7,48.9c0.4,0,0.7,0,1.1,0l0,0c-0.2-1.1-0.6-1.9-1.1-1.9
	s-0.9,0.8-1,1.9l0,0C27,48.9,27.3,48.9,27.7,48.9L27.7,48.9z M27.7,52.9c0.6,0,1.1-1.2,1.1-2.8l0,0c-0.4,0-0.8,0.1-1.1,0.1
	s-0.8,0-1.1-0.1l0,0C26.5,51.7,27,53,27.7,52.9L27.7,52.9z"/>
<path class="st1" d="M58.5,50.1c0-2.1,1.7-3.8,3.8-3.8c2.1,0,3.8,1.7,3.8,3.8c0,2.1-1.7,3.8-3.7,3.8c0,0,0,0,0,0
	C60.2,53.8,58.5,52.1,58.5,50.1C58.5,50.1,58.5,50.1,58.5,50.1z M62.2,52.4c1.3,0.2,2.5-0.8,2.7-2.1c0.2-1.3-0.8-2.5-2.1-2.7
	c-1.3-0.2-2.5,0.8-2.7,2.1c0,0.1,0,0.2,0,0.3C60.1,51.3,61,52.3,62.2,52.4L62.2,52.4z"/>
<path class="st1" d="M70.2,47.9v5.8h-1.6v-5.8h-2.2v-1.3h6v1.3H70.2z"/>
<path class="st1" d="M74.3,52L74.3,52l-0.6,1.6h-1.8l2.9-7h2l2.9,7h-1.9L77.2,52H74.3L74.3,52z M75.7,50.9h1l-1-2.6l0,0l-1,2.6H75.7
	z"/>
<path class="st1" d="M41.2,47.9v5.8h-1.6v-5.8h-2.2v-1.3h6v1.3H41.2z"/>
<path class="st1" d="M43.8,50.1c0-2.1,1.7-3.7,3.8-3.7c2.1,0,3.8,1.7,3.8,3.8c0,2.1-1.7,3.7-3.7,3.7C45.4,53.8,43.8,52.1,43.8,50.1
	C43.8,50.1,43.8,50.1,43.8,50.1z M47.5,52.4c1.3,0.2,2.5-0.8,2.6-2.1c0.2-1.3-0.8-2.5-2.1-2.6c-1.3-0.2-2.5,0.8-2.6,2.1
	c0,0.1,0,0.2,0,0.3C45.4,51.3,46.3,52.4,47.5,52.4z"/>
<path class="st1" d="M54.9,53.6h0.8V51l2.8-4.4h-1.8l-1.7,3l-1.7-3h-1.8l2.8,4.4v2.7L54.9,53.6z"/>
</svg>
