<?xml version="1.0" encoding="utf-8"?>
<!-- Generator: Adobe Illustrator 25.4.1, SVG Export Plug-In . SVG Version: 6.00 Build 0)  -->
<svg version="1.1" id="Layer_1" xmlns="http://www.w3.org/2000/svg" xmlns:xlink="http://www.w3.org/1999/xlink" x="0px" y="0px"
	 viewBox="0 0 100 100" style="enable-background:new 0 0 100 100;" xml:space="preserve">
<style type="text/css">
	.st0{fill:none;}
	.st1{fill-rule:evenodd;clip-rule:evenodd;fill:#DCDCDC;}
	.st2{opacity:0.8;fill-rule:evenodd;clip-rule:evenodd;fill:#DCDCDC;enable-background:new    ;}
	.st3{fill:#DCDCDC;}
</style>
<rect x="-0.1" y="0.1" class="st0" width="100" height="100"/>
<g>
	<path class="st1" d="M62.2,46.9c0-0.2,0-0.3,0.1-0.4c0.1-0.1,0.2-0.2,0.3-0.3c0.1-0.1,0.3-0.1,0.4-0.1c0.2,0,0.3,0.1,0.4,0.2
		c0.1,0.1,0.2,0.2,0.2,0.4c0,0.2,0,0.3,0,0.5c-0.1,0.1-0.2,0.3-0.3,0.4c-0.1,0.1-0.3,0.1-0.4,0.1c-0.1,0-0.2,0-0.3,0
		c-0.1,0-0.2-0.1-0.2-0.2c-0.1-0.1-0.1-0.1-0.2-0.2C62.2,47.1,62.2,47,62.2,46.9z M62.2,48.3h1.4v5.2h-1.4V48.3z M24.1,46.6h-2.7
		v6.9h2.9c1.5,0,2.4-0.8,2.4-1.9c0-0.4-0.1-0.8-0.4-1.1c-0.3-0.3-0.7-0.5-1.1-0.5v-0.1c0.4-0.1,0.7-0.2,0.9-0.5
		c0.2-0.3,0.4-0.6,0.3-1C26.4,47.4,25.6,46.6,24.1,46.6z M24.9,48.6c0,0.5-0.5,0.9-1,0.9l-1.1,0v-1.7h1.1
		C24.6,47.8,24.9,48.1,24.9,48.6z M25.2,51.4c0,0.5-0.3,0.9-1.1,0.9h-1.2v-1.8H24c0.1,0,0.3,0,0.4,0c0.1,0,0.3,0.1,0.4,0.2
		c0.1,0.1,0.2,0.2,0.3,0.3C25.1,51.2,25.2,51.3,25.2,51.4z M27.4,53.5h1.4l0-6.9h-1.4V53.5z M29.6,50.9c0-1.6,1-2.7,2.5-2.7
		c1.6,0,2.5,1.1,2.5,2.7s-1,2.7-2.5,2.7C30.6,53.6,29.6,52.5,29.6,50.9z M33.2,50.9c0-0.9-0.4-1.6-1.1-1.6c-0.7,0-1.1,0.7-1.1,1.6
		s0.4,1.6,1.1,1.6C32.9,52.5,33.2,51.8,33.2,50.9z M37.7,48.3c-1.6,0-2.5,1.1-2.5,2.7c0,1.6,1,2.7,2.5,2.7c1.4,0,2.2-0.8,2.3-2h-1.4
		c0,0.2-0.1,0.5-0.3,0.6c-0.2,0.2-0.4,0.2-0.6,0.2c-0.7,0-1.1-0.6-1.1-1.5s0.4-1.5,1.1-1.5c0.2,0,0.5,0.1,0.6,0.2
		c0.2,0.2,0.3,0.4,0.3,0.6H40C40,49.1,39.1,48.3,37.7,48.3z M40.8,46.6h1.4v3.7h0.1l1.7-2h1.6l-1.9,2.2l2,2.9H44l-1.4-2.1l-0.4,0.4
		v1.6h-1.4V46.6z M48.2,48.3c-1.6,0-2.5,1.1-2.5,2.7c0,1.6,1,2.7,2.5,2.7c1.4,0,2.2-0.8,2.3-2h-1.3c0,0.2-0.1,0.5-0.3,0.6
		c-0.2,0.2-0.4,0.2-0.6,0.2c-0.7,0-1.1-0.6-1.1-1.5s0.4-1.5,1.1-1.5c0.2,0,0.5,0.1,0.6,0.2c0.2,0.2,0.3,0.4,0.3,0.6h1.3
		C50.4,49.1,49.5,48.3,48.2,48.3z M52.7,53.5h-1.4v-6.9h1.4v2.6h0.1c0.1-0.3,0.3-0.6,0.6-0.7c0.3-0.2,0.6-0.3,0.9-0.2
		c1.1,0,1.8,0.7,1.8,1.9v3.3h-1.4v-3c0-0.1,0-0.3,0-0.4c0-0.1-0.1-0.2-0.2-0.3s-0.2-0.2-0.3-0.2c-0.1,0-0.2-0.1-0.4-0.1
		c-0.1,0-0.3,0-0.4,0.1c-0.1,0.1-0.2,0.1-0.3,0.2c-0.1,0.1-0.2,0.2-0.2,0.3c0,0.1-0.1,0.3,0,0.4V53.5z M58.6,50.5
		c-1,0.1-1.9,0.4-1.9,1.6c0,1,0.7,1.5,1.7,1.5c0.3,0,0.6,0,0.9-0.2c0.3-0.1,0.5-0.4,0.6-0.6h0v0.7h1.4V50c0-1.2-1-1.7-2.2-1.7
		c-1.2,0-2,0.6-2.2,1.5l1.3,0.1c0.1-0.2,0.2-0.3,0.4-0.4c0.2-0.1,0.4-0.1,0.6-0.1c0.5,0,0.8,0.2,0.8,0.7
		C59.9,50.3,59.5,50.4,58.6,50.5z M59.9,51.1v0.6c0,0.1,0,0.3-0.1,0.4c-0.1,0.1-0.1,0.2-0.2,0.3c-0.1,0.1-0.2,0.2-0.3,0.2
		c-0.1,0-0.3,0.1-0.4,0c-0.4,0-0.8-0.2-0.8-0.6s0.3-0.6,0.8-0.7C59.2,51.3,59.6,51.2,59.9,51.1z M64.6,53.5H66l0-3
		c0-0.1,0-0.3,0-0.4c0-0.1,0.1-0.2,0.2-0.3c0.1-0.1,0.2-0.2,0.3-0.2c0.1-0.1,0.3-0.1,0.4-0.1c0.1,0,0.3,0,0.4,0.1
		c0.1,0,0.2,0.1,0.3,0.2c0.1,0.1,0.2,0.2,0.2,0.3s0,0.3,0,0.4v3h1.4v-3.3c0-1.2-0.7-1.9-1.8-1.9c-0.3,0-0.7,0.1-0.9,0.2
		c-0.3,0.2-0.5,0.4-0.6,0.7H66v-0.9h-1.4V53.5z"/>
	<path class="st2" d="M85.1,48.3h-1.4l0,5.2h1.4v-3.1c0-0.1,0-0.2,0-0.4c0-0.1,0.1-0.2,0.2-0.3c0.1-0.1,0.2-0.2,0.3-0.2
		c0.1-0.1,0.2-0.1,0.3-0.1c0.1,0,0.2,0,0.3,0.1s0.2,0.1,0.3,0.2c0.1,0.1,0.1,0.2,0.2,0.3c0,0.1,0,0.2,0,0.3v3.2h1.4v-3.1
		c0-0.1,0-0.2,0-0.3c0-0.1,0.1-0.2,0.2-0.3c0.1-0.1,0.2-0.2,0.3-0.2c0.1,0,0.2-0.1,0.3-0.1c0.1,0,0.2,0,0.3,0.1
		c0.1,0,0.2,0.1,0.3,0.2s0.1,0.2,0.2,0.3c0,0.1,0,0.2,0,0.3v3.2h1.4v-3.4c0-0.4-0.1-0.7-0.3-1.1c-0.2-0.3-0.6-0.5-0.9-0.6
		c-0.4-0.1-0.8-0.1-1.1,0.1c-0.3,0.2-0.6,0.4-0.8,0.8H88c-0.1-0.3-0.3-0.6-0.5-0.7c-0.3-0.2-0.6-0.3-0.9-0.2c-0.3,0-0.6,0.1-0.9,0.3
		c-0.3,0.2-0.5,0.4-0.6,0.7h-0.1V48.3z M75.1,48.3c-1.6,0-2.5,1.1-2.5,2.7c0,1.6,0.9,2.7,2.6,2.7c1.4,0,2.2-0.8,2.3-2H76
		c0,0.2-0.1,0.5-0.3,0.6c-0.2,0.2-0.4,0.2-0.6,0.2c-0.7,0-1.1-0.6-1.1-1.5s0.4-1.5,1.1-1.5c0.2,0,0.5,0.1,0.6,0.2
		c0.2,0.2,0.3,0.4,0.3,0.6h1.3C77.3,49.1,76.4,48.3,75.1,48.3z M70.6,52.2c-0.1,0.1-0.2,0.4-0.2,0.6c0,0.1,0,0.2,0.1,0.3
		c0,0.1,0.1,0.2,0.2,0.3c0.1,0.1,0.2,0.1,0.3,0.2c0.1,0,0.2,0.1,0.3,0.1c0.2,0,0.4-0.1,0.6-0.2c0.2-0.2,0.2-0.4,0.2-0.6
		c0-0.2-0.1-0.4-0.2-0.6c-0.2-0.2-0.4-0.2-0.6-0.2C70.9,52,70.7,52.1,70.6,52.2z M77.9,50.9c0-1.6,1-2.7,2.5-2.7
		c1.6,0,2.5,1.1,2.5,2.7s-1,2.7-2.5,2.7C78.9,53.6,77.9,52.5,77.9,50.9z M81.5,50.9c0-0.9-0.4-1.6-1.1-1.6c-0.7,0-1.1,0.7-1.1,1.6
		s0.4,1.6,1.1,1.6C81.2,52.5,81.5,51.8,81.5,50.9z"/>
	<path class="st3" d="M9.6,48.8l-0.4,0.4c-0.1,0.1-0.2,0.2-0.3,0.4c-0.1,0.1-0.1,0.3-0.1,0.5c0,0.2,0,0.3,0.1,0.5
		c0.1,0.1,0.2,0.3,0.3,0.4l3.4,3.4c0.1,0.1,0.2,0.1,0.3,0.2v-4.1L9.6,48.8z"/>
	<path class="st3" d="M17.2,48.8l0.4,0.4c0.1,0.1,0.2,0.2,0.3,0.4c0.1,0.1,0.1,0.3,0.1,0.5c0,0.2,0,0.3-0.1,0.5
		c-0.1,0.1-0.2,0.3-0.3,0.4l-3.4,3.4c-0.1,0.1-0.2,0.1-0.3,0.2v-4.1L17.2,48.8z"/>
	<path class="st3" d="M16.4,47.9l-2.1-2.1c-0.1-0.1-0.2-0.2-0.4-0.3c-0.1-0.1-0.3-0.1-0.5-0.1c-0.2,0-0.3,0-0.5,0.1
		c-0.1,0.1-0.3,0.2-0.4,0.3l-2.1,2.1l3,1.5L16.4,47.9z"/>
</g>
</svg>
