<?xml version="1.0" encoding="utf-8"?>
<!-- Generator: Adobe Illustrator 25.2.1, SVG Export Plug-In . SVG Version: 6.00 Build 0)  -->
<svg version="1.1" id="Layer_1" xmlns="http://www.w3.org/2000/svg" xmlns:xlink="http://www.w3.org/1999/xlink" x="0px" y="0px"
	 viewBox="0 0 100 100" style="enable-background:new 0 0 100 100;" xml:space="preserve">
<style type="text/css">
	.st0{fill:none;}
	.st1{fill:#DCDCDC;}
</style>
<rect x="-0.1" y="0.1" class="st0" width="100" height="100"/>
<path id="path3249" class="st1" d="M26.2,58.5c-2,0-4,0-6-0.2c0-0.3,23.1-0.5,41.6-0.4c9.6,0.1,17.6,0.2,17.6,0.2
	c0.1,0.1,0.1,0.2,0,0.2c0,0,0,0,0,0C79.4,58.5,35.5,58.6,26.2,58.5L26.2,58.5z M25.5,54.8c0.1-0.2,0.2-0.4,0.4-0.6
	c0.8-1.5,1.4-3,2-4.5c1.8-4.6,2.3-5.5,3.4-6.5l0.8-0.7l-2,0.1c-2.3,0.1-3.6,0.5-4.4,1.3c-0.6,0.6-0.9,1.5-0.9,2.3
	c0.1,0.6-0.3,0.5-0.9-0.1s-0.6-1.8,0.5-2.8c1.4-1.3,2.3-1.5,8.5-1.6c3-0.1,5.5-0.1,5.5-0.1s-0.2,0.2-0.5,0.4
	c-0.8,0.4-1.7,0.5-2.6,0.4c-1.8,0.1-2,0.1-2.6,0.6s-1.8,3.2-3.3,7.4c-0.9,2.4-1.5,3.6-2.2,3.9C26.6,54.7,25.4,54.9,25.5,54.8
	L25.5,54.8z M43.2,54.8c0.1-0.3,0.2-0.5,0.4-0.7c0.2-0.3,0.4-0.6,0.5-0.9l0.6-1.4l0.4-1.1l-0.9,0.7c-1.6,1.2-3.3,1.5-4.2,0.6
	s-0.5-2.9,0.9-4.8c1.6-2.1,4.5-2.9,4.5-1.2c0,0.8-1.2,2.1-2.7,3.1c-1.3,0.8-1.6,1.5-1.2,2.2c0.2,0.5,0.7,0.5,1.8,0
	c1.5-0.8,2.6-2.1,3.1-3.6c0.3-0.8,0.6-1.5,0.6-1.5s-0.2-0.1-0.5-0.1c-0.4-0.1-0.4-0.1,0.2-0.4c0.4-0.2,0.8-0.5,1-0.9
	c1-1.9,2.9-3,5-3c1.6-0.1,1.7-0.1,2.2,0.4c0.2,0.2,0.4,0.5,0.5,0.8c-0.3,0.6-0.8,1.2-1.5,1.5c-0.2,0-0.2-0.1,0-0.2
	c0.2-0.2,0.3-0.5,0.2-0.8c0-1.2-1.9-1.6-3.4-0.6c-0.8,0.7-1.4,1.6-1.9,2.5c0.7,0.1,1.4,0.1,2.1,0c2.2-0.1,2.6,0.1,1.5,0.7
	c-1.7,0.9-3.3,5.5-2,5.7c1,0.1,2.8-3,2.8-5c0-0.6,0.1-0.6,1.9-1c2.3-0.5,2.6-0.5,2.4,0.6c-0.1,0.4-0.1,0.8-0.3,1.1
	c-0.1,0.2,0.3-0.1,0.8-0.6c1.1-1.2,2-1.6,2.7-1.4c1,0.2,0.9,0.8-0.8,4.6c-0.4,0.8-0.7,1.7-0.8,2.5c0,1-0.2,1.1-1,0.4
	s-0.6-1.7,0.5-4.2c0.3-0.7,0.6-1.4,0.9-2.1c0-1-2.1,1.5-3.4,4c-1,1.8-1.1,2-1.7,2c-0.4,0-0.7,0-0.7-0.1s0.5-1.4,1.1-2.8
	c1.2-3.2,1.3-3.6,0.5-3.4s-0.9,0.2-0.9,0.8c-0.4,1.4-1,2.7-1.8,3.8c-1.1,1.5-3,2.1-4,1.4s-0.3-3.9,1.4-5.5l0.8-0.8l-1.2,0.1
	l-1.2,0.1l-0.8,2.4c-1.2,3.4-2.2,5.4-2.7,5.7S43.1,55,43.2,54.8L43.2,54.8z M43.2,47.8c0.8-0.8,1.1-1.7,0.7-1.9
	c-0.6-0.2-1.8,1.3-2.3,2.8l-0.1,0.5l0.6-0.4C42.4,48.6,42.9,48.2,43.2,47.8L43.2,47.8z M36.8,53c-0.4-0.3-0.6-0.8-0.5-1.3v-0.8
	l-0.7,0.6c-1.6,1.2-3.1,1.5-4,0.6c-0.5-0.5-0.5-0.6-0.4-1.6c0.3-2.5,2-4.6,4.4-5.3c0.4-0.1,0.8,0,1.1,0.3c0.4,0.4,0.4,0.5,0.2,1
	c-0.8,1.2-1.8,2.2-3.1,2.9C33,49.8,33,49.9,33,50.6c0,0.5,0.1,0.9,0.2,0.9c0.5,0.3,1.6-0.2,2.6-1.2s1.3-1.6,2.5-4.3
	c1.4-3,1.5-3.2,2.1-3.4c0.3-0.1,0.6-0.1,0.9-0.1c-0.3,1.2-0.8,2.4-1.4,3.5c-1.8,4.1-2.2,5.4-2.2,6.5S37.6,53.5,36.8,53L36.8,53z
	 M34.6,48.1c1-0.9,1.4-1.7,1-2.1c-0.2-0.2-0.3-0.1-0.6,0c-0.8,0.5-2.4,3.5-1.6,3C33.6,49,34.1,48.5,34.6,48.1L34.6,48.1z M73.8,53
	c-0.4-0.3-0.6-0.8-0.5-1.2c0-0.4,0-0.8-0.1-0.8c-0.1,0-0.2,0.1-0.2,0.2c0,0.4-1.7,1.5-2.4,1.5c-0.7,0-1.3-0.5-1.4-1.1
	c0-0.4,0-0.4-0.5,0c-1.3,1.2-3,1.4-3.8,0.6l-0.5-0.5L63.7,52c-0.7,0.6-1.7,0.7-2.5,0.2c-0.5-0.5-0.3-1.4,1-4.1
	c1.1-2.4,1.1-2.4,1.9-2.6c0.3-0.1,0.6-0.1,0.9-0.1c-0.3,0.9-0.7,1.8-1.1,2.6c-1.2,2.7-1.4,3.5-0.8,3.5s1.6-0.9,1.6-1.3
	c0.3-1.2,0.8-2.3,1.6-3.2c0.8-1,2.1-1.7,3.4-1.8c1.4,0,1.8,0.9,0.8,1.6c-0.7,0.5-1,0.6-0.8,0.1c0.5-1.1-0.2-1.4-1.2-0.5
	c-1.8,1.7-2.6,5.6-1.1,5.2c1.2-0.4,2.1-1.3,2.6-2.5c1.4-2.7,2.9-3.8,5.2-3.8c0.5,0,1,0,1.5,0.1c0,0.5-0.1,0.9-0.4,1.4
	c-0.8,1.8-1.4,3.6-1.7,5.5c0,0.5-0.1,1-0.2,1C74.2,53.2,74,53.1,73.8,53L73.8,53z M72.5,50.8c0.7-0.7,2.8-4.6,2.6-4.9
	s-1.3,0.2-1.9,0.9c-0.9,1.1-1.6,2.3-2,3.6C70.8,51.8,71.3,51.9,72.5,50.8L72.5,50.8z M64.9,44.1c-0.4-0.1-0.3-1,0-1.3s1-0.2,1,0.4
	S65.3,44.2,64.9,44.1L64.9,44.1z"/>
</svg>
