<?xml version="1.0" encoding="utf-8"?>
<!-- Generator: Adobe Illustrator 25.2.1, SVG Export Plug-In . SVG Version: 6.00 Build 0)  -->
<svg version="1.1" id="Layer_1" xmlns="http://www.w3.org/2000/svg" xmlns:xlink="http://www.w3.org/1999/xlink" x="0px" y="0px"
	 viewBox="0 0 100 100" style="enable-background:new 0 0 100 100;" xml:space="preserve">
<style type="text/css">
	.st0{fill:none;}
	.st1{fill-rule:evenodd;clip-rule:evenodd;fill:#DCDCDC;}
</style>
<rect x="-0.1" y="0.1" class="st0" width="100" height="100"/>
<g id="layer1-2">
	<g id="_--Symbols">
		<g id="Footer-1440">
			<g id="Logo">
				<path id="Fill-1" class="st1" d="M40.9,49.3c0-0.1,0-0.1,0.1-0.2c0,0,0,0,0,0c0.1,0,0.4,0.2,0.5,0.5h-0.1
					C41.1,49.7,40.9,49.5,40.9,49.3L40.9,49.3z M24.7,49.3c0-0.1,0-0.2,0.1-0.2s0.4,0.2,0.5,0.5C24.9,49.6,24.7,49.6,24.7,49.3
					L24.7,49.3z M27.8,47.7c0-1.6,0.3-1.9,0.4-1.9s0.2,0.1,0.2,0.8c0,0.7-0.2,1.4-0.6,2V47.7L27.8,47.7z M39.2,49.3
					c-0.2,0.3-0.4,0.7-0.4,1.1c-0.1,0.9,0.5,1.7,1.4,1.8c0,0,0.1,0,0.1,0c1,0,1.7-0.8,1.7-1.8c0,0,0-0.1,0-0.1c0-0.2,0-0.3,0-0.5
					c0.2-0.1,0.4-0.2,0.6-0.4c0.1-0.1,0.2-0.1,0.3-0.1c0.1,0,0.2,0.1,0.2,0.2v2.2c0,0.4,0.1,0.5,0.4,0.5s0.4-0.2,0.5-0.4
					c0.4-0.8,0.9-1.8,1.1-2.2c0-0.1,0.1-0.2,0.1-0.2s0.1,0.1,0.1,0.3v1.8c0,0.5,0.2,0.8,0.7,0.8s0.8-0.5,1.2-1.2c0,0,0-0.1,0-0.1
					c0-0.1-0.1-0.1-0.1-0.1c-0.1,0-0.2,0.1-0.5,0.5c-0.1,0.1-0.2,0.1-0.3,0.1c-0.1,0-0.1,0-0.1-0.1v-2c0-0.5-0.3-0.7-0.5-0.7
					c-0.3,0-0.5,0.2-0.7,0.4c-0.4,0.6-0.8,1.3-1,1.8c0,0.1,0,0.1-0.1,0.1c0,0,0-0.1,0-0.1v-1.4c0-0.4-0.1-0.7-0.6-0.7
					s-0.7,0.3-1,0.6c-0.2,0.1-0.3,0.2-0.5,0.3c-0.2-0.6-0.6-0.9-1-0.8c-0.3,0-0.5,0.2-0.6,0.5c0,0,0,0.1,0,0.1
					c0,0.3,0.2,0.6,0.5,0.7c0.2,0.1,0.4,0.1,0.6,0.1h0.2v0.4c0,0.6-0.4,1-0.9,1.1c0,0,0,0,0,0c-0.6,0-1-0.6-1-1.3
					c0-0.4,0.1-0.9,0.4-1.2c0.1-0.1,0.2-0.2,0.2-0.3s0,0-0.2,0c-0.4,0-0.9,0.2-1.2,0.4c-0.5,0.3-0.9,0.6-1.3,1
					c-0.2-0.5-0.5-0.8-0.6-1.1c0-0.1,0-0.2-0.2-0.2s-0.1,0.1-0.1,0.2c-0.4,0.9-0.9,1.8-1.5,2.6c0,0.1-0.1,0.1-0.1,0.1s0,0,0-0.1
					v-2.1c0-0.5-0.2-0.7-0.5-0.7c-0.3,0-0.5,0.2-0.7,0.4c-0.4,0.6-0.8,1.4-1,1.8c-0.1,0.1-0.1,0.1-0.1,0.1v-1.6
					c0-0.5-0.2-0.7-0.5-0.7c-0.3,0-0.5,0.2-0.7,0.4c-0.5,0.8-1.2,2-1.4,2.2c0,0,0,0.1,0,0.1c0,0-0.1,0-0.1-0.1v-1.9
					c0-0.5-0.2-0.7-0.5-0.7s-0.6,0.4-0.8,0.6c-0.3,0.4-0.5,0.8-0.7,1.2c-0.1,0.2-0.2,0.5-0.3,0.5v-1.9c0.7-0.8,1.1-1.8,1.1-2.8
					c0-0.6-0.3-0.9-0.7-0.9c-0.8,0-1.4,1.2-1.4,2.6v1.1c-0.3,0.2-0.7,0.3-1.1,0.4c-0.1-0.5-0.5-0.9-1-0.9c-0.3,0-0.5,0.2-0.6,0.5
					c0,0,0,0.1,0,0.1c0,0.6,0.6,0.8,1.1,0.8h0.1v0.4c0.1,0.5-0.4,1-0.9,1.1c0,0,0,0,0,0c-0.6,0-1-0.6-1-1.3c0-0.5,0.1-0.9,0.4-1.2
					c0.1-0.1,0.1-0.2,0.2-0.2c0-0.1-0.1-0.1-0.2-0.1c-1,0.3-1.8,0.9-2.5,1.7c0-0.9-0.2-1.8-0.2-2.6c0-0.7,0.1-1.3,0.2-2
					c0-0.1,0-0.2,0-0.3c0-0.1,0-0.1-0.1-0.1c0,0,0,0,0,0c-1.7,0.4-2.9,1.9-2.9,3.6c0,1.3,0.5,2.5,1.5,3.2c-0.6,0.9-1,2-1.1,3.1
					c0,0.7,0.2,1.3,0.7,1.3c1.1,0,2-2.3,2-4c0-0.5,0-1-0.1-1.6c0.4-0.4,0.8-0.8,1.2-1.1c-0.1,0.2-0.2,0.4-0.1,0.7
					c-0.1,0.9,0.5,1.7,1.4,1.8c0,0,0.1,0,0.1,0c1,0,1.7-0.8,1.7-1.8c0,0,0-0.1,0-0.1v-0.4c0.4,0,0.7-0.2,1-0.4v2.1
					c0,0.2,0.1,0.4,0.4,0.4c0,0,0,0,0.1,0c0.3,0,0.4-0.2,0.6-0.6s0.6-1.1,0.8-1.6s0.3-0.6,0.4-0.6c0,0.1,0.1,0.1,0,0.2v1.9
					c0,0.5,0.3,0.7,0.5,0.7c0.2,0,0.4-0.1,0.5-0.3c0.6-0.8,1.2-1.8,1.5-2.2c0,0,0.1-0.1,0.1-0.1s0,0,0,0.1v2c0,0.4,0.1,0.5,0.4,0.5
					c0.2,0,0.5-0.2,0.5-0.4c0.4-0.8,0.9-1.8,1.1-2.2c0.1-0.1,0.1-0.1,0.2-0.1s0,0.1,0,0.2v1.9c0,0.5,0.3,0.7,0.5,0.7
					c0.3,0,0.6-0.2,0.7-0.5c0.4-0.5,0.9-1.4,1.2-1.9c0.1,0.2,0.2,0.4,0.4,0.6c-0.3,0.3-0.5,0.7-0.5,1.1c0,0.3,0.2,0.6,0.6,0.7
					c0.6-0.1,1-0.6,1-1.2c0-0.3-0.1-0.6-0.1-0.8C38.2,49.9,38.7,49.5,39.2,49.3L39.2,49.3z M20.8,51.8c0.1,0.5,0.1,1.1,0.1,1.7
					c0,1-0.4,2.3-1,2.3c-0.3,0-0.4-0.3-0.5-0.7C19.5,53.9,19.9,52.7,20.8,51.8L20.8,51.8z M37.1,51c0.1,0.2,0.1,0.3,0.1,0.5
					c0,0.2,0,0.4-0.2,0.4s-0.2-0.1-0.2-0.2C36.8,51.4,36.9,51.2,37.1,51L37.1,51z M21.1,45.7c0,0.1-0.2,0.4-0.4,0.9
					c-0.3,0.8-0.4,1.6-0.4,2.4c0,0.7,0.1,1.5,0.3,2.2l-0.4,0.5c-0.7-0.8-1-1.8-0.9-2.9C19.4,47,20.5,45.6,21.1,45.7L21.1,45.7z"/>
				<path id="Fill-4" class="st1" d="M73.7,49.3c0-0.1,0-0.2,0.1-0.2s0.4,0.2,0.5,0.5h-0.2C73.9,49.7,73.7,49.5,73.7,49.3
					C73.7,49.3,73.7,49.3,73.7,49.3z M57.5,49.3c0-0.1,0-0.2,0.1-0.2s0.4,0.2,0.5,0.5C57.7,49.6,57.5,49.6,57.5,49.3L57.5,49.3z
					 M60.6,47.7c0-1.6,0.3-1.9,0.4-1.9s0.2,0.1,0.2,0.8c0,0.7-0.2,1.4-0.6,2L60.6,47.7z M53.6,51.8c0.1,0.5,0.2,1.1,0.2,1.7
					c0,1.1-0.4,2.3-1,2.3c-0.3,0-0.4-0.3-0.5-0.7C52.3,53.9,52.8,52.7,53.6,51.8L53.6,51.8z M69.9,51c0.1,0.2,0.1,0.3,0.1,0.5
					c0,0.2,0,0.4-0.2,0.4s-0.1-0.1-0.1-0.2C69.7,51.4,69.8,51.2,69.9,51L69.9,51z M54,45.7c0,0.1-0.2,0.4-0.4,0.9
					c-0.3,0.8-0.4,1.6-0.4,2.4c0,0.7,0.1,1.5,0.3,2.2l-0.4,0.5c-0.7-0.8-1-1.8-0.9-2.9C52.2,47,53.3,45.6,54,45.7L54,45.7z
					 M52.1,51.3c0.2,0.3,0.5,0.5,0.7,0.8c-0.6,0.9-1,2-1.1,3.1c0,0.7,0.2,1.3,0.7,1.3c1.1,0,2-2.3,2-4c0-0.5,0-1,0-1.6
					c0.3-0.4,0.7-0.8,1.1-1.1c-0.1,0.2-0.1,0.5-0.1,0.7c-0.1,0.9,0.5,1.7,1.4,1.8c0.1,0,0.1,0,0.2,0c1,0,1.7-0.8,1.7-1.8
					c0,0,0-0.1,0-0.1V50c0.4,0,0.7-0.2,1-0.4v2.2c0,0.2,0.1,0.4,0.3,0.4c0,0,0.1,0,0.1,0c0.3,0,0.4-0.2,0.6-0.6s0.6-1.1,0.8-1.6
					s0.3-0.6,0.4-0.6c0,0.1,0.1,0.1,0,0.2v1.9c0,0.5,0.3,0.7,0.5,0.7c0.2,0,0.4-0.1,0.5-0.3c0.6-0.8,1.2-1.8,1.5-2.2
					c0-0.1,0.1-0.2,0.1-0.2s0,0,0,0.2v2c0,0.4,0.1,0.5,0.4,0.5c0.2,0,0.5-0.2,0.5-0.4c0.4-0.8,0.9-1.8,1.1-2.2
					c0-0.1,0.1-0.1,0.2-0.1s0,0,0,0.2v2c0,0.5,0.3,0.7,0.5,0.7c0.3,0,0.6-0.2,0.7-0.5c0.5-0.6,0.9-1.3,1.2-1.9
					c0.1,0.2,0.3,0.4,0.4,0.6c-0.3,0.3-0.5,0.7-0.5,1.1c0,0.3,0.2,0.6,0.6,0.7c0.6-0.1,1.1-0.6,1-1.2c0-0.3-0.1-0.6-0.1-0.8
					c0.4-0.4,0.9-0.8,1.4-1c-0.2,0.3-0.4,0.7-0.4,1.1c-0.1,0.9,0.5,1.7,1.4,1.8c0,0,0.1,0,0.1,0c1,0,1.7-0.8,1.7-1.8
					c0,0,0-0.1,0-0.1c0-0.2,0-0.4,0-0.5c0.2-0.1,0.4-0.2,0.6-0.4c0.1-0.1,0.2-0.1,0.3-0.2c0.1,0,0.2,0.1,0.2,0.2v2.1
					c0,0.4,0.1,0.5,0.4,0.5c0.2,0,0.5-0.2,0.5-0.4c0.3-0.8,0.7-1.5,1.1-2.2c0-0.1,0.1-0.1,0.1-0.1c0,0,0,0.1,0,0.1v1.8
					c0,0.5,0.2,0.8,0.7,0.8s0.8-0.5,1.2-1.2c0,0,0-0.1,0-0.1c0-0.1-0.1-0.1-0.1-0.1c-0.1,0-0.2,0.1-0.5,0.5
					c-0.1,0.1-0.2,0.1-0.3,0.1c-0.1,0-0.1,0-0.1-0.1v-2c0-0.5-0.3-0.7-0.5-0.7c-0.3,0-0.5,0.2-0.7,0.4c-0.4,0.6-0.8,1.3-1,1.8
					c0,0.1,0,0.1-0.1,0.1c0,0,0-0.1,0-0.1v-1.4c0-0.4-0.1-0.7-0.6-0.7s-0.7,0.3-1,0.6c-0.2,0.1-0.4,0.2-0.6,0.3
					c-0.2-0.6-0.6-0.9-1-0.8c-0.3,0-0.5,0.2-0.6,0.5c0,0,0,0.1,0,0.1c0,0.3,0.2,0.6,0.5,0.7c0.2,0.1,0.4,0.1,0.6,0.1h0.1v0.4
					c0,0.6-0.4,1-0.9,1.1c0,0,0,0,0,0c-0.6,0-1-0.6-1-1.3c0-0.5,0.1-0.9,0.4-1.2c0.1-0.1,0.2-0.2,0.2-0.3s-0.1,0-0.2,0
					c-0.4,0-0.9,0.2-1.2,0.4c-0.5,0.3-0.9,0.6-1.4,1c-0.2-0.5-0.5-0.8-0.6-1.1c0-0.1,0-0.2-0.1-0.2s-0.1,0.1-0.2,0.2
					c-0.4,0.9-0.9,1.8-1.5,2.6 M67.9,51.6c0,0,0,0,0-0.1v-2.1c0-0.5-0.2-0.7-0.5-0.7c-0.3,0-0.5,0.2-0.7,0.4c-0.4,0.6-0.8,1.4-1,1.8
					c0,0,0,0.1,0,0.1v-1.6c0-0.5-0.2-0.7-0.5-0.7c-0.3,0-0.5,0.2-0.7,0.4c-0.5,0.8-1.2,2-1.4,2.2c0,0,0,0.1-0.1,0.1c0,0,0,0,0-0.1
					v-1.9c0-0.5-0.2-0.7-0.5-0.7s-0.6,0.4-0.8,0.6c-0.3,0.4-0.5,0.8-0.7,1.2c-0.1,0.2-0.3,0.5-0.3,0.5v-1.9c0.7-0.8,1.1-1.8,1.1-2.8
					c0-0.6-0.3-0.9-0.7-0.9c-0.8,0-1.4,1.2-1.4,2.6v1.1c-0.3,0.2-0.7,0.4-1.1,0.5c-0.1-0.5-0.5-0.9-1-0.9c-0.3,0-0.5,0.2-0.6,0.5
					c0,0,0,0.1,0,0.1c0,0.6,0.6,0.8,1.1,0.8h0.1v0.4c0,0.6-0.4,1-0.9,1.1c0,0,0,0,0,0c-0.6,0-1-0.6-1-1.3c0-0.5,0.1-0.9,0.4-1.2
					c0.1-0.1,0.1-0.2,0.2-0.3c0-0.1-0.1-0.1-0.2-0.1c-1,0.3-1.8,0.9-2.5,1.7c-0.1-0.9-0.2-1.8-0.2-2.6c0-0.7,0.1-1.3,0.3-2
					c0-0.1,0-0.2,0-0.3c0-0.1,0-0.1-0.1-0.2c0,0,0,0,0,0c-1.7,0.4-2.9,1.9-2.9,3.6c0,0.7,0.2,1.4,0.5,2.1h-0.3
					c-0.3,0-0.6,0.1-0.9,0.2V51c0-0.5-0.1-0.9-0.3-1.3c0,0-0.1,0-0.1-0.1c-0.1,0-0.2,0-0.3,0.1c-0.1,0-0.2,0.1-0.3,0.1
					c0,0,0,0.1,0,0.1c0.2,0.2,0.3,0.6,0.4,0.9c-0.4-0.4-0.9-0.6-1.4-0.6c-0.7,0-0.9,0.3-0.9,0.6c0,0.6,0.8,0.9,1.8,0.9
					c0.2,0,0.4,0,0.6-0.1v0.5c0,0.2,0,0.4,0.1,0.4s0.3-0.4,0.3-0.9c0.3-0.1,0.7-0.1,1-0.1c0.1-0.1,0.3-0.2,0.5-0.1L67.9,51.6z
					 M49.9,51.2h-0.5c-0.4,0-0.8-0.2-0.8-0.4s0.1-0.3,0.3-0.3C49.3,50.6,49.7,50.8,49.9,51.2L49.9,51.2z"/>
			</g>
		</g>
	</g>
</g>
</svg>
