<?xml version="1.0" encoding="utf-8"?>
<!-- Generator: Adobe Illustrator 25.2.1, SVG Export Plug-In . SVG Version: 6.00 Build 0)  -->
<svg version="1.1" id="Layer_1" xmlns="http://www.w3.org/2000/svg" xmlns:xlink="http://www.w3.org/1999/xlink" x="0px" y="0px"
	 viewBox="0 0 100 100" style="enable-background:new 0 0 100 100;" xml:space="preserve">
<style type="text/css">
	.st0{fill:none;}
	.st1{fill:#DCDCDC;}
</style>
<rect x="-0.1" y="0.1" class="st0" width="100" height="100"/>
<g id="layer1">
	<g id="g3414">
		<path id="path3416" class="st1" d="M60.5,54.5c-2.4,0-3.3-2.2-3.3-4.4s0.9-4.4,3.3-4.4s3.3,2.2,3.3,4.4S62.8,54.5,60.5,54.5
			 M60.5,43.5c-3.7,0-5.9,2.8-5.9,6.6s2.1,6.6,5.9,6.6c3.7,0,5.9-2.8,5.9-6.6S64.2,43.5,60.5,43.5"/>
	</g>
	<g id="g3418">
		<path id="path3420" class="st1" d="M22.4,43.8h9.4V46H25v2.8h6.3V51H25v3.1h6.8v2.2h-9.4V43.8z"/>
	</g>
	<g id="g3422">
		<path id="path3424" class="st1" d="M37.8,50.3h-2.4V46h2.4c1.7,0,2.7,0.7,2.7,2.1S39.4,50.3,37.8,50.3 M32.8,56.3h2.6v-3.7h2.3
			c3.2,0,5.3-1.5,5.3-4.4s-2.1-4.4-5.3-4.4h-5L32.8,56.3z"/>
	</g>
	<g id="g3426">
		<path id="path3428" class="st1" d="M70,43.8h-2.7v12.5h2.6v-5c0-1.4-0.1-2.6-0.1-3.7c0.3,0.6,1.2,2.5,1.7,3.2l3.3,5.5h2.7V43.8
			h-2.6v5c0,1.4,0.1,2.8,0.1,3.8c-0.3-0.6-1.2-2.5-1.7-3.2L70,43.8z"/>
	</g>
	<g id="g3430">
		<path id="path3432" class="st1" d="M46.1,52.2c0,1.7,1.4,2.3,2.9,2.3c1,0,2.5-0.3,2.5-1.5s-1.9-1.6-3.8-2.1s-3.8-1.3-3.8-3.5
			c0-2.6,2.4-3.8,4.7-3.8c2.6,0,5,1.2,5,4.1H51c-0.1-1.5-1.3-1.9-2.6-1.9c-0.9,0-2,0.4-2,1.5s0.6,1.1,3.8,1.9
			c0.9,0.2,3.8,0.8,3.8,3.6c0,2.3-1.8,4-5.2,4c-2.7,0-5.3-1.4-5.3-4.5L46.1,52.2z"/>
	</g>
</g>
</svg>
