<?xml version="1.0" encoding="utf-8"?>
<!-- Generator: Adobe Illustrator 25.2.1, SVG Export Plug-In . SVG Version: 6.00 Build 0)  -->
<svg version="1.1" id="Layer_1" xmlns="http://www.w3.org/2000/svg" xmlns:xlink="http://www.w3.org/1999/xlink" x="0px" y="0px"
	 viewBox="0 0 100 100" style="enable-background:new 0 0 100 100;" xml:space="preserve">
<style type="text/css">
	.st0{fill:none;}
	.st1{fill:#DCDCDC;}
</style>
<rect x="-0.1" y="0.1" class="st0" width="100" height="100"/>
<g id="_Group_">
	<path id="_Path_" class="st1" d="M25.7,49.4L25.7,49.4c0.9,0.5,1.4,1.4,1.3,2.4c-0.1,1.6-1.4,2.8-2.9,2.7c0,0,0,0,0,0
		c-2.2,0-3-1.3-3-2.5c0-1.5,1.1-2.6,1.1-3.9c0-1-0.7-1.9-1.7-2.1L20.4,46c0.4,0.3,0.6,0.8,0.6,1.3c0,1.5-1.3,2.6-1.3,4.3
		s1.1,3.2,4.4,3.2c2.9,0,4.4-1.4,4.4-2.9C28.5,50.7,27.5,49.6,25.7,49.4z"/>
	<path id="_Compound_Path_" class="st1" d="M38.4,54.6l-3.8-4.9v4.5l0.8,0.2v0.2h-1.8v-0.2l0.6-0.2v-4.9C34,49.2,33.9,49,33.7,49
		h-0.2v-0.2H35l3.3,4.2v-3.9L37.5,49v-0.2h1.8V49l-0.6,0.2v4.4c0,0.4,0,1,0,1.1L38.4,54.6z M46.4,51.5c0,1.7-1.3,3-2.9,3.1
		c-1.7,0-3-1.3-3.1-2.9c0-1.7,1.3-3,2.9-3.1c0,0,0,0,0.1,0c1.6-0.1,2.9,1.2,3,2.8c0,0,0,0,0,0V51.5L46.4,51.5z M45.4,51.8
		c0-1.5-0.9-3-2.1-3s-1.9,1.3-1.9,2.6s0.7,3,2.1,3S45.4,53.1,45.4,51.8L45.4,51.8z M47.6,49.1L47,49v-0.2h2.4V49l-0.7,0.2l1.6,4.4
		l1.6-4.4L51.1,49v-0.2h1.7V49l-0.6,0.2l-2,5.5h-0.5L47.6,49.1z M61.5,51.6h-0.4V49c1.2,0,2,0.3,2,1.3
		C63.1,51.1,62.5,51.6,61.5,51.6L61.5,51.6z M72,54.3l0.8-0.2v-5L72,49v-0.2h2.6V49l-0.8,0.2v5l0.8,0.2v0.2h-2.6L72,54.3z M76.1,53
		h0.2l0.5,1.2c0.3,0.2,0.7,0.2,1,0.3c0.7,0.1,1.3-0.4,1.3-1.1c0,0,0,0,0-0.1c0-0.6-0.4-0.9-0.9-1.2l-0.6-0.3
		c-0.7-0.4-1.4-0.9-1.4-1.7s0.6-1.6,1.9-1.6c0.5,0,1,0.1,1.4,0.2l0.1,1.4h-0.2l-0.5-1.1c-0.3-0.1-0.5-0.2-0.8-0.2
		c-0.5-0.1-1,0.3-1.1,0.9c0,0,0,0.1,0,0.1c0,0.5,0.3,0.8,0.9,1.1l0.7,0.4c0.9,0.5,1.4,0.9,1.4,1.8c0,1-1,1.7-2.1,1.7
		c-0.6,0-1.1-0.1-1.6-0.2L76.1,53z M52.5,54.3l0.7-0.2l2-5.4l0.7-0.2l2.1,5.6l0.7,0.2v0.2h-2.5v-0.2l0.8-0.2l-0.6-1.6h-2.2l-0.6,1.6
		l0.8,0.2v0.2h-1.9L52.5,54.3z M54.3,52.1h1.9l-1-2.6L54.3,52.1z M62.7,51.7c0.2,0,1.4-0.4,1.4-1.4c0-0.9-0.7-1.6-2.3-1.6
		c-1,0-2,0-2.2,0v0.2l0.7,0.2v5l-0.7,0.2v0.2h2.4v-0.2l-0.8-0.2v-2.2h0.7l1.7,2.7h1.5v-0.2l-0.8-0.2L62.7,51.7z M67.7,49v5.1
		l-0.8,0.2v0.2h2.6v-0.2l-0.8-0.2V49H70l0.5,1h0.2l-0.1-1.3h-4.7L65.8,50h0.2l0.5-1H67.7z M24,52.7l0.8-7.7h-1.7L24,52.7L24,52.7z"
		/>
</g>
</svg>
