<svg xmlns="http://www.w3.org/2000/svg" viewBox="0 0 462 352.35"><g id="Layer_2" data-name="Layer 2"><g id="Layer_1-2" data-name="Layer 1"><rect width="462" height="352.35" fill="none"/><rect x="346.23" y="126.26" width="100" height="100" fill="none"/><g id="_Group_" data-name=" Group "><path id="_Path_" data-name=" Path " d="M372.07,175.64l0,.06a2.53,2.53,0,0,1,1.33,2.33,2.82,2.82,0,0,1-2.92,2.72c-2.23,0-3-1.31-3-2.49,0-1.54,1.08-2.56,1.08-3.95a2.19,2.19,0,0,0-1.72-2.11l-.06.05a1.83,1.83,0,0,1,.56,1.3c0,1.52-1.27,2.6-1.27,4.32s1.12,3.23,4.35,3.23c2.89,0,4.4-1.41,4.4-2.9C374.79,176.91,373.87,175.8,372.07,175.64Z" fill="#dcdcdc"/><path id="_Compound_Path_" data-name=" Compound Path " d="M384.73,180.84l-3.82-4.93v4.46l.77.18v.2H379.9v-.2l.64-.18V175.5a1.44,1.44,0,0,0-.55-.31l-.19,0V175h1.52l3.27,4.25v-3.85l-.76-.18V175h1.78v.2l-.63.18v4.42c0,.41,0,1,0,1.09Zm8-3.13a3,3,0,1,1-3-2.93,2.9,2.9,0,0,1,3,2.82v.11Zm-1,.3c0-1.49-.9-3-2.13-3s-1.88,1.27-1.88,2.59.73,3,2.14,3S391.75,179.34,391.75,178Zm2.24-2.66-.61-.18V175h2.35v.2l-.73.18,1.61,4.42,1.62-4.42-.74-.18V175h1.74v.2l-.61.18-2,5.53h-.51Zm13.89,2.44h-.37v-2.54c1.23,0,2,.29,2,1.29C409.46,177.3,408.82,177.79,407.88,177.79Zm10.51,2.76.82-.18v-5l-.82-.18V175H421v.2l-.82.18v5l.82.18v.2h-2.56Zm4.11-1.39h.17l.53,1.25a2.66,2.66,0,0,0,1,.26,1.22,1.22,0,0,0,1.35-1.14c0-.56-.37-.88-.94-1.19l-.57-.31c-.7-.36-1.37-.86-1.37-1.67s.61-1.58,1.92-1.58A4.07,4.07,0,0,1,426,175l.14,1.35h-.18l-.51-1.09a1.81,1.81,0,0,0-.84-.22,1,1,0,0,0-1.12,1c0,.51.34.84.92,1.14l.67.35c.94.49,1.37.94,1.37,1.76,0,1-1,1.66-2.15,1.66a5.46,5.46,0,0,1-1.65-.25Zm-23.64,1.39.66-.18,2-5.4.68-.17,2.08,5.59.66.18v.2h-2.48v-.2l.84-.18-.59-1.6H400.5l-.59,1.6.83.18v.2h-1.9Zm1.8-2.23h1.92l-1-2.58Zm8.39-.41c.2,0,1.35-.35,1.35-1.43,0-.88-.68-1.56-2.31-1.56-1,0-2,0-2.17,0v.2l.67.18v5l-.67.19v.2h2.37v-.2l-.78-.19v-2.25h.68l1.72,2.66h1.53v-.2l-.78-.21Zm5-2.66v5.09l-.82.19v.2h2.56v-.2l-.82-.19v-5.09h1.37l.45,1H417l-.12-1.26h-4.66l-.13,1.26h.19l.45-1Zm-43.65,3.68.82-7.73h-1.69l.81,7.73Z" fill="#dcdcdc"/></g><rect x="125.87" y="236.57" width="100" height="100" fill="none"/><path id="path3249" d="M152.22,295a48,48,0,0,1-6-.25c0-.31,23.12-.5,41.62-.35,9.64.08,17.55.18,17.62.23a.16.16,0,0,1,0,.23c-.12.14-44,.27-53.22.14Zm-.77-3.73a1.62,1.62,0,0,1,.39-.59,34,34,0,0,0,2-4.51c1.81-4.63,2.29-5.55,3.4-6.47L158,279l-2,.13c-2.28.12-3.61.54-4.43,1.34a2.84,2.84,0,0,0-.85,2.33c.14.59-.27.55-.92-.1s-.59-1.82.52-2.84c1.38-1.29,2.32-1.46,8.5-1.61,3-.06,5.46-.1,5.49-.08s-.19.21-.53.42a5.36,5.36,0,0,1-2.56.43c-1.8.07-2,.13-2.57.61s-1.75,3.19-3.28,7.35c-.85,2.36-1.54,3.57-2.25,3.94-.55.27-1.71.5-1.71.32Zm17.74,0a2.36,2.36,0,0,1,.37-.71,5.07,5.07,0,0,0,.5-.88l.55-1.4.44-1.08-.94.71c-1.61,1.23-3.32,1.48-4.18.64s-.54-2.86.86-4.76c1.56-2.15,4.46-2.94,4.46-1.23,0,.8-1.19,2.13-2.71,3.07-1.27.79-1.65,1.46-1.23,2.23.25.46.69.46,1.75,0a6.45,6.45,0,0,0,3.11-3.65c.3-.79.55-1.46.55-1.5s-.21-.11-.46-.15c-.44-.08-.42-.1.18-.35a2.6,2.6,0,0,0,1-.92,5.56,5.56,0,0,1,5-3c1.6-.08,1.73-.06,2.25.44a2,2,0,0,1,.54.77,3.18,3.18,0,0,1-1.48,1.46c-.21,0-.21-.06,0-.25a1.28,1.28,0,0,0,.25-.83c0-1.25-1.92-1.59-3.36-.59a7.63,7.63,0,0,0-1.86,2.53,7.51,7.51,0,0,0,2.09,0c2.21-.12,2.63.06,1.48.67-1.69.88-3.29,5.53-2,5.72,1,.15,2.8-3.05,2.8-5,0-.56.06-.58,1.88-1,2.27-.52,2.58-.46,2.44.56a7.31,7.31,0,0,1-.27,1.15c-.09.23.29-.08.81-.65,1.09-1.17,2-1.63,2.71-1.42,1,.25.92.8-.79,4.62a7.18,7.18,0,0,0-.75,2.54c0,1-.23,1.11-1,.36s-.61-1.69.52-4.2a15,15,0,0,0,.86-2.13c0-1-2.11,1.49-3.45,4-1,1.8-1.1,2-1.71,2-.38.05-.67,0-.67-.08s.46-1.36,1.05-2.84c1.23-3.17,1.29-3.57.46-3.38s-.88.25-.9.77a11.77,11.77,0,0,1-1.8,3.82c-1.12,1.48-3,2.15-4,1.44s-.28-3.86,1.35-5.45l.84-.79-1.21.06-1.21.07-.84,2.4c-1.21,3.36-2.17,5.36-2.73,5.74s-1.65.67-1.65.46Zm0-6.91c.77-.84,1.11-1.71.69-1.88-.59-.23-1.8,1.27-2.28,2.84l-.14.5.6-.44c.29-.25.82-.71,1.13-1Zm-6.39,5.11a1.28,1.28,0,0,1-.54-1.27v-.84l-.73.57c-1.65,1.25-3.13,1.5-4,.62-.48-.48-.52-.64-.4-1.58a6.33,6.33,0,0,1,4.45-5.31,1,1,0,0,1,1.09.3c.35.35.39.52.21,1a8.27,8.27,0,0,1-3.07,2.92c-.8.4-.86.5-.86,1.26,0,.45.08.87.19.93.5.32,1.65-.22,2.63-1.23s1.31-1.62,2.5-4.28c1.38-3,1.51-3.23,2.15-3.4a3.06,3.06,0,0,1,.88-.12,17.94,17.94,0,0,1-1.36,3.54c-1.81,4.12-2.25,5.41-2.25,6.48s-.13,1-.88.37Zm-2.19-4.86c1-.92,1.38-1.73,1-2.07-.16-.17-.33-.14-.58,0-.81.5-2.38,3.49-1.59,3.05.15-.11.67-.54,1.15-1Zm39.12,4.86a1.09,1.09,0,0,1-.5-1.25c0-.44,0-.82-.09-.82a.19.19,0,0,0-.16.21c0,.42-1.74,1.46-2.4,1.46a1.28,1.28,0,0,1-1.36-1.14c0-.36,0-.36-.46,0-1.29,1.19-3,1.44-3.82.58l-.5-.5-.75.52a2.09,2.09,0,0,1-2.49.17c-.5-.5-.31-1.36,1-4.13,1.07-2.38,1.09-2.38,1.94-2.57a2.82,2.82,0,0,1,.94-.12,26.86,26.86,0,0,1-1.08,2.65c-1.21,2.69-1.4,3.48-.84,3.48s1.57-.87,1.57-1.27a8,8,0,0,1,1.56-3.24,4.74,4.74,0,0,1,3.37-1.75c1.37,0,1.79.86.77,1.65-.67.52-1,.56-.82.06.46-1.13-.23-1.44-1.19-.54-1.77,1.69-2.65,5.61-1.14,5.18a4.69,4.69,0,0,0,2.65-2.45c1.42-2.67,2.94-3.77,5.24-3.8a5.18,5.18,0,0,1,1.54.13,2.85,2.85,0,0,1-.38,1.36,21,21,0,0,0-1.69,5.53c0,.54-.08,1-.16,1a2.71,2.71,0,0,1-.71-.44Zm-1.3-2.17c.69-.71,2.78-4.65,2.57-4.86s-1.29.23-1.88.85a9.61,9.61,0,0,0-2,3.63c-.31,1.38.17,1.51,1.27.38Zm-7.53-6.72c-.36-.13-.34-1,0-1.32s1-.18,1,.4-.64,1.09-1.08.92Z" fill="#dcdcdc"/><rect x="236.38" y="236.57" width="100" height="100" fill="none"/><path d="M264.93,285.85l-.66,2.77h2.26c-.22,1.48-3.87,2.11-3.31-1.47.39-2.5,3.53-3.86,4.22-1.91l3.88-1c-.56-2.42-2.71-3.61-5.05-3.61a7.33,7.33,0,0,0-7.33,6.7c-.41,3.72,2.4,5.78,5.63,5.72a9.21,9.21,0,0,0,5-1.51l1.35-5.72S264.93,285.85,264.93,285.85Zm7.05-1.29L270,292.83h4l1.94-8.27Zm5.87-4.72-3.07,13h4l3.06-13Zm-1,1.2h-4l-.69,3,4.3-1.07Zm33,3a5,5,0,0,0-3.95,1.9c.14-.6.31-1.31.33-1.31h-1.67l.85-3.56h-4l-.85,3.58h-.9l.86-3.58h-4l-.87,3.56h-1.3l-.6,2.19a3.83,3.83,0,0,0-3.93-2.79,5.27,5.27,0,0,0-5,3.7l1.87-7.86h-4l-3.06,13h4l.88-3.71c-.16,1.48.4,4.14,4,4.14,1.81,0,4.14-1.18,4.7-2.82L290,289.9a1.81,1.81,0,0,1-1.4.73c-.86,0-1.1-.73-.93-1.4h5.85a3.23,3.23,0,0,0,.23-1.13c0-.22,0-.42,0-.62h1.13l-1.28,5.38h4l1.28-5.38h.89l-1.26,5.38h4l1.28-5.38H305a6,6,0,0,0-.4,1.53h0c-.21,1.44.27,4.28,4,4.28,1.81,0,4.14-1.18,4.7-2.81l-3.16-.58a1.8,1.8,0,0,1-1.4.73c-.86,0-1.11-.73-.93-1.39h5.85a4.54,4.54,0,0,0,.22-1.15c.2-2.81-2-4.09-4-4.09m-19.46,3.57h-2.22c.34-1.17,2.4-1.43,2.22,0m20.08,0h-2.23c.35-1.15,2.4-1.42,2.23,0" fill="#dcdcdc"/><rect x="16.36" y="236.57" width="100" height="100" fill="none"/><g id="layer1"><g id="g3414"><path id="path3416" d="M76.93,291c-2.38,0-3.3-2.19-3.3-4.42s.92-4.42,3.3-4.42,3.3,2.19,3.3,4.42-.92,4.42-3.3,4.42m0-11c-3.74,0-5.87,2.81-5.87,6.6s2.13,6.65,5.87,6.65,5.87-2.82,5.87-6.65-2.13-6.6-5.87-6.6" fill="#dcdcdc"/></g><g id="g3418"><path id="path3420" d="M38.83,280.32H48.2v2.23H41.45v2.76h6.31v2.19H41.45v3.11H48.2v2.23H38.83Z" fill="#dcdcdc"/></g><g id="g3422"><path id="path3424" d="M54.25,286.84H51.87v-4.32h2.38c1.65,0,2.72.73,2.72,2.14s-1.07,2.18-2.72,2.18m-5,6h2.62v-3.74h2.33c3.2,0,5.34-1.55,5.34-4.36s-2.14-4.37-5.34-4.37h-5Z" fill="#dcdcdc"/></g><g id="g3426"><path id="path3428" d="M86.46,280.32H83.79v12.52h2.58v-5c0-1.41-.05-2.62-.1-3.69.29.63,1.21,2.53,1.65,3.2l3.3,5.54h2.67V280.32H91.32v4.95c0,1.4.05,2.76.09,3.83-.29-.63-1.21-2.52-1.65-3.2Z" fill="#dcdcdc"/></g><g id="g3430"><path id="path3432" d="M62.52,288.69c0,1.69,1.41,2.32,2.87,2.32,1,0,2.52-.29,2.52-1.55s-1.94-1.6-3.78-2.13-3.84-1.27-3.84-3.55c0-2.57,2.43-3.83,4.71-3.83,2.62,0,5,1.16,5,4.08H67.43c-.1-1.51-1.27-1.9-2.58-1.9-.87,0-2,.39-2,1.46s.64,1.11,3.79,1.94c.92.24,3.79.78,3.79,3.64,0,2.33-1.85,4-5.25,4-2.67,0-5.29-1.41-5.29-4.51Z" fill="#dcdcdc"/></g></g><rect x="236.38" y="126.26" width="100" height="100" fill="none"/><g id="layer1-2" data-name="layer1"><g id="_--Symbols" data-name="--Symbols"><g id="Footer-1440"><g id="Logo"><path id="Fill-1" d="M277.37,175.5a.14.14,0,0,1,.16-.16c.15,0,.36.16.51.47h-.15c-.31.05-.52-.11-.52-.31Zm-16.2,0c0-.11.05-.16.15-.16s.37.16.47.47C261.38,175.81,261.17,175.76,261.17,175.5Zm3.11-1.61c0-1.65.31-1.91.41-1.91s.21.1.21.77a3.57,3.57,0,0,1-.62,2v-.83Zm11.38,1.66a1.91,1.91,0,0,0-.36,1.14,1.62,1.62,0,0,0,1.55,1.81,1.75,1.75,0,0,0,1.71-1.92,1.28,1.28,0,0,0-.05-.51,2.81,2.81,0,0,0,.57-.37.79.79,0,0,1,.31-.15c.1,0,.16.1.16.21v2.17c0,.36.1.52.41.52s.41-.16.52-.42c.36-.77.93-1.81,1.14-2.17.05-.1.1-.16.15-.16s.1.11.1.26v1.76c0,.47.21.83.73.83s.78-.52,1.24-1.24a.22.22,0,0,1,.05-.11.16.16,0,0,0-.15-.15c-.11,0-.16.1-.52.47a.42.42,0,0,1-.26.15.11.11,0,0,1-.1-.1v-2c0-.52-.26-.73-.52-.73a.76.76,0,0,0-.67.42c-.36.57-.78,1.34-1,1.76a.11.11,0,0,1-.1.1.17.17,0,0,1-.05-.1v-1.45c0-.42-.1-.73-.57-.73s-.67.31-1,.57a2.32,2.32,0,0,1-.51.31c-.21-.57-.62-.88-1-.82a.52.52,0,0,0-.57.57.73.73,0,0,0,.52.72,1.67,1.67,0,0,0,.57.1h.16v.42a1,1,0,0,1-.94,1.08c-.62,0-1-.62-1-1.29a1.83,1.83,0,0,1,.41-1.24c.11-.11.16-.16.16-.26s-.05,0-.16,0a3.35,3.35,0,0,0-1.24.36,5.7,5.7,0,0,0-1.34,1c-.21-.46-.47-.82-.57-1.14-.05-.1-.05-.25-.16-.25s-.1.1-.15.2a20.29,20.29,0,0,1-1.5,2.59c0,.05-.06.05-.06.05s-.05,0-.05-.1v-2.07c0-.52-.2-.73-.52-.73a.78.78,0,0,0-.67.42c-.36.57-.83,1.4-1,1.76-.06.05-.06.1-.11.1v-1.55c0-.52-.2-.73-.51-.73a.78.78,0,0,0-.68.42c-.46.77-1.24,2-1.4,2.22a.05.05,0,1,1-.1,0v-1.91c0-.52-.21-.73-.52-.73s-.62.37-.77.63a11.45,11.45,0,0,0-.68,1.19c-.15.25-.25.51-.31.51v-1.86a4.08,4.08,0,0,0,1.14-2.8c0-.62-.26-.93-.67-.93-.78,0-1.35,1.19-1.35,2.64v1.14a4,4,0,0,1-1.08.42,1.23,1.23,0,0,0-1-.94.52.52,0,0,0-.57.57c0,.57.57.83,1.09.83h.15v.36a1,1,0,0,1-.93,1.09c-.62,0-1-.62-1-1.29a1.81,1.81,0,0,1,.41-1.25.43.43,0,0,0,.16-.25c0-.06-.11-.06-.16-.06a5.33,5.33,0,0,0-2.48,1.71c-.05-.93-.16-1.81-.16-2.64a15.4,15.4,0,0,1,.21-2,2.15,2.15,0,0,1,.05-.32.13.13,0,0,0-.15-.15,3.75,3.75,0,0,0-2.9,3.62,3.88,3.88,0,0,0,1.55,3.21,6.41,6.41,0,0,0-1.09,3.11c0,.72.16,1.29.73,1.29,1.14,0,2-2.33,2-4a13.47,13.47,0,0,0-.06-1.55,11,11,0,0,1,1.19-1.09,1.51,1.51,0,0,0-.15.68,1.62,1.62,0,0,0,1.55,1.81,1.75,1.75,0,0,0,1.71-1.92v-.41a2.33,2.33,0,0,0,1-.36V178a.39.39,0,0,0,.42.42c.26,0,.41-.16.57-.57s.57-1.09.83-1.56.31-.56.41-.56a.29.29,0,0,1,.05.2v1.92c0,.52.26.67.52.67a.63.63,0,0,0,.52-.31c.57-.83,1.19-1.81,1.45-2.23.05,0,.1-.15.15-.15s.05,0,.05.15v2c0,.37.11.52.42.52a.53.53,0,0,0,.51-.41c.37-.78.94-1.82,1.14-2.18.06-.1.11-.15.16-.15s0,.05,0,.2v1.92c0,.52.26.67.52.67a.93.93,0,0,0,.72-.46c.37-.47.88-1.35,1.25-1.92.1.16.25.42.36.62a1.8,1.8,0,0,0-.52,1.09.64.64,0,0,0,.57.67,1.11,1.11,0,0,0,1-1.19,2.43,2.43,0,0,0-.15-.83,2.72,2.72,0,0,1,1.34-1ZM257.24,178a10.21,10.21,0,0,1,.15,1.66c0,1-.36,2.28-1,2.28-.26,0-.42-.26-.47-.68a5.26,5.26,0,0,1,1.3-3.26Zm16.3-.78a2.46,2.46,0,0,1,.1.52c0,.16-.05.36-.2.36s-.16-.1-.16-.25A2.11,2.11,0,0,1,273.54,177.2Zm-15.94-5.33c0,.06-.16.37-.36.94a7.62,7.62,0,0,0-.37,2.43,21,21,0,0,0,.26,2.17l-.36.47a4.09,4.09,0,0,1-.93-2.85c0-1.86,1.14-3.21,1.76-3.16Z" fill="#dcdcdc" fill-rule="evenodd"/><path id="Fill-4" d="M310.14,175.5c0-.11.05-.16.15-.16s.36.16.47.47h-.16A.38.38,0,0,1,310.14,175.5Zm-16.15,0c0-.11.05-.16.15-.16s.36.16.47.47C294.19,175.81,294,175.76,294,175.5Zm3.1-1.61c0-1.65.31-1.91.42-1.91s.2.1.2.77a3.49,3.49,0,0,1-.62,2Zm-7,4.09a9.28,9.28,0,0,1,.16,1.66c0,1.08-.36,2.33-1,2.33-.26,0-.42-.26-.47-.68a5.34,5.34,0,0,1,1.29-3.31Zm16.31-.78a2.46,2.46,0,0,1,.1.52c0,.16,0,.36-.21.36s-.15-.1-.15-.25A1.87,1.87,0,0,1,306.36,177.2Zm-15.94-5.33c0,.06-.16.37-.37.94a7.79,7.79,0,0,0-.41,2.43,18.56,18.56,0,0,0,.26,2.17l-.36.47a4.09,4.09,0,0,1-.94-2.85c.06-1.86,1.19-3.21,1.82-3.16Zm-1.87,5.59c.21.26.47.52.73.83a6.41,6.41,0,0,0-1.09,3.11c0,.72.16,1.29.72,1.29,1.14,0,2-2.33,2-4,0-.51,0-1-.05-1.55A9.37,9.37,0,0,1,292,176a3.66,3.66,0,0,0-.1.73,1.63,1.63,0,0,0,1.6,1.81,1.75,1.75,0,0,0,1.71-1.91v-.42a2.2,2.2,0,0,0,1-.36v2.22a.38.38,0,0,0,.42.42c.26,0,.41-.16.57-.57s.57-1.09.82-1.55.32-.57.42-.57a.29.29,0,0,1,.05.2v1.92c0,.52.26.67.52.67a.63.63,0,0,0,.52-.31c.57-.83,1.19-1.81,1.45-2.22,0-.06.1-.16.15-.16s.05,0,.05.16v2c0,.37.11.52.42.52a.53.53,0,0,0,.51-.41c.37-.78.94-1.81,1.14-2.18.05-.1.11-.15.16-.15s0,0,0,.21V178c0,.52.26.67.52.67a.93.93,0,0,0,.72-.46,18.1,18.1,0,0,0,1.24-1.92c.11.16.26.42.37.62a1.8,1.8,0,0,0-.52,1.09.63.63,0,0,0,.57.67,1.1,1.1,0,0,0,1-1.19,4.55,4.55,0,0,0-.15-.82,3.68,3.68,0,0,1,1.39-1,1.91,1.91,0,0,0-.36,1.14,1.62,1.62,0,0,0,1.55,1.81,1.74,1.74,0,0,0,1.71-1.91,1.34,1.34,0,0,0-.05-.52,4.72,4.72,0,0,0,.57-.36.78.78,0,0,1,.31-.16c.1,0,.16.11.16.21V178c0,.37.1.52.41.52a.55.55,0,0,0,.52-.41,18.74,18.74,0,0,1,1.14-2.18q.07-.15.15-.15c.05,0,.05.05.05.15v1.76c0,.47.21.83.73.83s.78-.52,1.24-1.24a.22.22,0,0,1,.05-.11.16.16,0,0,0-.15-.15c-.11,0-.16.1-.52.47a.45.45,0,0,1-.26.15.11.11,0,0,1-.1-.1v-2c0-.52-.26-.73-.52-.73a.76.76,0,0,0-.67.42c-.37.57-.78,1.34-1,1.76a.11.11,0,0,1-.1.1.17.17,0,0,1-.05-.1v-1.45c0-.42-.11-.73-.57-.73s-.67.31-1,.57a1.81,1.81,0,0,1-.57.31c-.2-.57-.62-.88-1-.82a.52.52,0,0,0-.57.57.73.73,0,0,0,.52.72,1.62,1.62,0,0,0,.57.1h.15v.42a1,1,0,0,1-.93,1.08c-.62,0-1-.62-1-1.29a1.78,1.78,0,0,1,.41-1.24c.11-.11.16-.16.16-.26s-.11,0-.16,0a3.35,3.35,0,0,0-1.24.36,6,6,0,0,0-1.35,1c-.2-.46-.46-.82-.57-1.14-.05-.1-.05-.25-.15-.25s-.1.1-.16.2a18.16,18.16,0,0,1-1.5,2.59,0,0,0,0,1-.05.05s-.05,0-.05-.1v-2.07c0-.52-.21-.73-.52-.73a.77.77,0,0,0-.67.42c-.36.57-.83,1.4-1,1.76a.15.15,0,0,0-.05.1v-1.55c0-.52-.2-.73-.52-.73a.78.78,0,0,0-.67.42c-.46.77-1.24,2-1.4,2.22a.05.05,0,1,1-.1,0v-1.91c0-.52-.21-.73-.52-.73s-.62.37-.77.63a11.45,11.45,0,0,0-.68,1.19c-.15.25-.26.51-.31.51v-1.86a4.08,4.08,0,0,0,1.14-2.8c0-.62-.26-.93-.67-.93-.78,0-1.35,1.19-1.35,2.64v1.14a3.17,3.17,0,0,1-1.14.47,1.21,1.21,0,0,0-1-.93.52.52,0,0,0-.57.57c0,.56.57.82,1.09.82h.15v.37a1,1,0,0,1-.93,1.08c-.62,0-1-.62-1-1.29a1.78,1.78,0,0,1,.41-1.24.55.55,0,0,0,.16-.26c0-.05-.11-.05-.16-.05a5.32,5.32,0,0,0-2.48,1.7,21.34,21.34,0,0,1-.21-2.64,8.32,8.32,0,0,1,.26-2,1.75,1.75,0,0,1,.05-.31.14.14,0,0,0-.16-.16,3.74,3.74,0,0,0-2.89,3.62,4.06,4.06,0,0,0,.51,2.07H288a3.47,3.47,0,0,0-.88.16v-.21a2.42,2.42,0,0,0-.31-1.34.17.17,0,0,0-.1-.05.75.75,0,0,0-.31.1.69.69,0,0,0-.26.15.17.17,0,0,0,.05.11,1.39,1.39,0,0,1,.36.88,1.9,1.9,0,0,0-1.39-.57c-.68,0-.88.31-.88.62,0,.57.77.88,1.76.88a2.86,2.86,0,0,0,.57-.1v.46c0,.21.05.36.15.36s.31-.36.31-.93a4,4,0,0,1,1-.15.64.64,0,0,1,.52-.11Zm-2.17-.1h-.52c-.41,0-.78-.16-.78-.41s.06-.26.31-.26a1.69,1.69,0,0,1,1,.67Z" fill="#dcdcdc" fill-rule="evenodd"/></g></g></g></g><rect x="16.36" y="16.08" width="100" height="100" fill="none"/><path d="M59.78,73c-2.11-1.36-5-1.6-9.6-.32-4.93,1.16-6.57,1.9-8.73.41-.83-.73-1.12-1.91-.9-3.61a18.23,18.23,0,0,1,4.37-8.38c1.38-1.54,2.66-2.86,4.35-3.39,1.29-.33,1.17.69,1,.83a1.25,1.25,0,0,0-.66.17A1.68,1.68,0,0,0,49,59.87c0,.9.89.71,1.29.22a2.52,2.52,0,0,0,.57-2.61,1.48,1.48,0,0,0-1-.69,7.69,7.69,0,0,0-4.32,1.47,18.81,18.81,0,0,0-6.54,7.88c-.76,1.85-1.45,4.49-.42,6.65a4.36,4.36,0,0,0,4.42,2.12,33.58,33.58,0,0,0,4.17-.86c1.13-.27,6.88-2.25,8.77,1.19A2.54,2.54,0,0,1,58.07,74a7.2,7.2,0,0,1,4.51,1.37A11.38,11.38,0,0,0,59.78,73Z" fill="#dcdcdc"/><path d="M50.77,61.44c-1.08-.7-3.24.65-5,3-1.59,2.08-2.27,4.49-1.53,5.61,1.11,1.32,3.16-.6,4-1.62l.11-.12a12.12,12.12,0,0,0,1.5-2.14l.43-.71a7.71,7.71,0,0,0,.9-.22s-1.31,2.21-1.18,3.3a1.9,1.9,0,0,0,1.2,1.92c1.58.27,2.84-1,3.95-2l.3-.29-.06.26c-.46,1.61.16,2,.55,2.07C57.19,70.75,58.6,69,58.6,69c0,.54-.14,1,.43,1.34A1.71,1.71,0,0,0,60.52,70a15.81,15.81,0,0,0,3.65-4.11h-.61a11.22,11.22,0,0,1-2.51,2.67s-.18.1-.29,0-.07-.33,0-.49,3.8-6.6,3.8-6.6H62.78s-.2.32-.22.34l-.06-.09c-1.11-1.54-3.62.82-5.52,3.56a17.28,17.28,0,0,1-2.62,3.1s-1.42,1.31-2,.37a1.8,1.8,0,0,1,0-1.35,11.26,11.26,0,0,1,3.32-5,1,1,0,0,1,1-.26.44.44,0,0,1,.11.61,1,1,0,0,0-.8.31,1.22,1.22,0,0,0-.42,1.25c.64.91,1.92-.89,1.86-2a1.2,1.2,0,0,0-.55-1,1.91,1.91,0,0,0-1.65,0A7.58,7.58,0,0,0,53,63.13c-.72.8-2,1.68-2.34,1.58.13-.33,1.17-2.47.08-3.27Zm8.64,3.16a25.32,25.32,0,0,1,1.61-2c.83-.73,1.17-.41,1.2-.18-.78,1.39-1.7,3-2.56,4.41l-.27.42A3.94,3.94,0,0,1,58,68.68a.39.39,0,0,1-.33,0,.35.35,0,0,1-.15-.35,9.17,9.17,0,0,1,1.89-3.7Zm-9.75.84,0,.06-.78,1.27a5.91,5.91,0,0,1-1.79,1.8c-.22.07-.52.12-.67-.08-.33-.39-.16-.93,0-1.36l.05-.16A13,13,0,0,1,48,64.11h0v0a2.64,2.64,0,0,0,1.62,1.22h0a.29.29,0,0,1,0,.09Zm.74-1.5s-.35.8-.35.8-.13,0-.22,0l-.15,0a1.4,1.4,0,0,1-1-.85,1.69,1.69,0,0,1,.77-1.55.85.85,0,0,1,.93-.1,1,1,0,0,1,.21.66A3.78,3.78,0,0,1,50.4,63.94Zm22.66,2.41a1,1,0,0,0-1-.59,4.67,4.67,0,0,0-3.54,3,8.8,8.8,0,0,0-.73,2.71,7.43,7.43,0,0,1,2.37-1.8,4.74,4.74,0,0,1,.85-2c.26-.4.8-1,1.4-.87s.35,1.63-.35,3a10,10,0,0,1-2.12,2.8c-.71.6-1.76,1.32-2.67.76a2,2,0,0,1-.81-2c.27-2.62,1.47-4.85,3.17-7.4,1.77-2.36,3.71-4.78,6.32-6.07a1.76,1.76,0,0,1,1.46-.17,9.53,9.53,0,0,0-3.63,3.85,2.47,2.47,0,0,0-.29,2.24.86.86,0,0,0,.91.41c1.44-.33,2.36-1.67,3.12-2.9a6.73,6.73,0,0,0,.83-2.88c0-.12,0-.29,0-.41.69-.37,2.09.28,2.09.28,1.1.36,3.44,2.15,4.23,2.49.38-.44,1-1.12,1.37-1.46L85.49,59c-.83-.5-1.7-1-2.56-1.45a5.14,5.14,0,0,0-4.35-.4l-.61.22a2.31,2.31,0,0,0-2.3-.42c-2.61.75-5,2.57-7.62,5.73a21.09,21.09,0,0,0-3.71,6.73c-.49,1.42-.64,3.51.55,4.75a2.85,2.85,0,0,0,3.29.45A10.43,10.43,0,0,0,73,68.94a3.78,3.78,0,0,0,.09-2.59Zm4.7-7.83a6.31,6.31,0,0,1-3.28,5.07c-.36.08-1-.08-.43-1.39a8.76,8.76,0,0,1,3.69-4,1,1,0,0,1,0,.33Zm14.32.4a7,7,0,0,1-4.28,1c-.45.5-.89,1-1.29,1.57,2.28.58,4.71-.71,6.06-1.94a9.47,9.47,0,0,0,2.16-2.81A11.34,11.34,0,0,1,92.08,58.92ZM67.55,61.5H65.84l-1,1.56h1.71Z" fill="#dcdcdc"/><path d="M87.8,73.14c-.19.13-.44,0-.35-.26a15.09,15.09,0,0,1,1.19-2.2L91.3,66H89.48l-.27.47a2.28,2.28,0,0,0-.44-.52,1.58,1.58,0,0,0-1.54.11c-2,1.14-3.38,3.4-4.5,5.16,0,0-1.19,2-1.84,2.1s-.46-.65-.44-.81a13.43,13.43,0,0,1,1.12-3.27,25.27,25.27,0,0,0,3-2.45,30.48,30.48,0,0,0,4.18-4.85,4,4,0,0,1-.62.07c-1.64,2.28-5,5.59-6,6.09A39.18,39.18,0,0,1,88,59.37l.38-.38a5,5,0,0,1,1.71-1.29c.06,0,.12,0,.18.12A2.29,2.29,0,0,1,89.89,59l-.28.56s.39-.07.65-.15a3,3,0,0,0,.5-1.92.58.58,0,0,0-.44-.47,3.31,3.31,0,0,0-2.19.85l0,0c-3.32,2.6-6.13,6.34-8.57,11.46a1.71,1.71,0,0,1-1,.22,8.43,8.43,0,0,0,.69-1.89,4.46,4.46,0,0,0,0-.63,1.32,1.32,0,0,0-.5-1.16,1.78,1.78,0,0,0-1.45,0c-1.75.73-3.06,2.53-4,4A8.77,8.77,0,0,0,72.19,73c-.1.9.11,1.49.62,1.78a1.72,1.72,0,0,0,1.45-.15c1.78-.93,3-2.81,4-4.52a5.81,5.81,0,0,0,1-.13h0l-.24.7c-.62,1.82-.9,3-.32,3.78.84,1,2.22,0,3.35-1.44-.24,1.69.64,2,1.3,1.82a5.19,5.19,0,0,0,2-1.44c-.12.49-.09,1.37.61,1.46a1.82,1.82,0,0,0,1.25-.4c1.49-.81,3.27-3.5,3.73-4.29h-.61a9.29,9.29,0,0,1-2.54,2.92ZM74.45,73a.75.75,0,0,1-.13-.46c0-1,1.08-2.84,1.85-3.83h0A3,3,0,0,0,77.67,70c-.55,1.23-2.44,3.85-3.22,2.94ZM78,69.48a1.44,1.44,0,0,1-.31-2.74.84.84,0,0,1,.76-.14.75.75,0,0,1,.28.68,4.06,4.06,0,0,1,0,.51v0A6.6,6.6,0,0,1,78,69.48Zm7.42,3.15-.18.16c-.25.22-.5.46-.81.34a.28.28,0,0,1-.16-.23,4,4,0,0,1,.55-1.81l.07-.15a14.29,14.29,0,0,1,3.1-4,.76.76,0,0,1,.74-.2.38.38,0,0,1,.14.26.39.39,0,0,1,0,.14c-.38.61-.74,1.26-1.1,1.89A25.9,25.9,0,0,1,85.4,72.63Z" fill="#dcdcdc"/><rect x="125.87" y="16.08" width="100" height="100" fill="none"/><path id="path2" d="M159.6,75a5.34,5.34,0,0,1-3.24-1.09,6.14,6.14,0,0,1-.68-.67,4.22,4.22,0,0,1-.73-1.32,7.63,7.63,0,0,1,.71-5.38,23.77,23.77,0,0,1,4.2-5.93c.31-.36,1.26-1.4,1.26-1.4l-.12.2a12.59,12.59,0,0,0-1.29,3,5.38,5.38,0,0,0,.15,3.88,3.78,3.78,0,0,0,1.65,1.66,7.91,7.91,0,0,0,5.12.14L183,63.73l16-4.28s-20.52,8.78-31.16,13.35c-1.69.71-2.14.9-2.94,1.18a14.85,14.85,0,0,1-5.31,1Z" fill="#dcdcdc"/><rect x="236.38" y="16.08" width="100" height="100" fill="none"/><path d="M263.66,70.48c-.78-.5-1.37-2.2-1.37-4.22v-.21h0c-2.17-.34-3.78-1.31-3.81-2.42h0a3.55,3.55,0,0,0-.84,2.26c0,2.42,2.64,4.4,6,4.59Zm-7-4.4c0-2.7,3.38-4.9,7.5-4.9s7.5,2.2,7.5,4.9S268.28,71,264.12,71,256.62,68.77,256.62,66.08Zm7.5-4.19c.81,0,1.49,1.21,1.74,2.92h0c1.55-.25,2.63-.81,2.63-1.46,0-.87-1.95-1.58-4.37-1.58s-4.37.71-4.37,1.58c0,.65,1.09,1.21,2.64,1.46h0C262.67,63.1,263.35,61.89,264.12,61.89Zm.5,8.59c3.35-.19,6-2.14,6-4.56a3.7,3.7,0,0,0-.84-2.26h0c0,1.12-1.61,2-3.81,2.42h0v.21c0,2-.59,3.69-1.36,4.19Zm-.5-5.55c.37,0,.72,0,1.06,0h0c-.16-1.09-.56-1.86-1.06-1.86s-.87.77-1.05,1.86h0C263.44,64.93,263.78,64.93,264.12,64.93Zm0,4c.59,0,1.09-1.24,1.12-2.82h0c-.37,0-.75.06-1.12.06s-.77,0-1.11-.06h0C263,67.69,263.53,69,264.12,69Z" fill="#dcdcdc"/><path d="M295,66.08a3.76,3.76,0,1,1,3.75,3.75A3.74,3.74,0,0,1,295,66.08Zm3.72,2.38a2.37,2.37,0,1,0-2.07-2.35A2.23,2.23,0,0,0,298.68,68.46Z" fill="#dcdcdc"/><path d="M306.68,63.91v5.76H305.1V63.91h-2.2v-1.3h6v1.3Z" fill="#dcdcdc"/><path d="M310.77,68.06h0l-.62,1.58h-1.83l2.92-7h2l2.92,7h-1.86l-.62-1.58h-2.89Zm1.46-1.18h1l-1-2.57h0l-1,2.57h1Z" fill="#dcdcdc"/><path d="M277.64,63.91v5.76h-1.58V63.91h-2.2v-1.3h6v1.3Z" fill="#dcdcdc"/><path d="M280.24,66.08A3.75,3.75,0,1,1,284,69.83,3.74,3.74,0,0,1,280.24,66.08ZM284,68.46a2.37,2.37,0,1,0-2.08-2.35A2.23,2.23,0,0,0,284,68.46Z" fill="#dcdcdc"/><path d="M291.34,69.64h.8V67l2.76-4.37h-1.83l-1.7,3-1.71-3h-1.83L290.59,67v2.66Z" fill="#dcdcdc"/><rect x="16.36" y="126.26" width="100" height="100" fill="none"/><g id="g2245"><g id="g2247"><path id="path2249" d="M42.25,179.81a.94.94,0,0,0,.42-.11l1.47-.84a1.7,1.7,0,0,1,1-.21,20,20,0,0,1,3.43.67.17.17,0,0,0,.21-.07,1.23,1.23,0,0,0,.21-.39,1,1,0,0,0,.07-.42.22.22,0,0,0-.14-.17,25.57,25.57,0,0,0-13.3,0,.22.22,0,0,0-.14.17,1,1,0,0,0,.07.42,1.23,1.23,0,0,0,.21.39.17.17,0,0,0,.21.07,21.54,21.54,0,0,1,3.43-.67,1.63,1.63,0,0,1,1,.21l1.47.84A.94.94,0,0,0,42.25,179.81Z" fill="#dcdcdc"/><path id="path2251" d="M39.77,175a.57.57,0,0,0,.35.28.56.56,0,0,0,.45-.07.66.66,0,0,0,.28-.35.51.51,0,0,0-.07-.46l-1.33-2.31a.25.25,0,0,0-.21-.1,1,1,0,0,0-.42.17,1,1,0,0,0-.35.28.3.3,0,0,0,0,.25Z" fill="#dcdcdc"/><path id="path2253" d="M38.54,176.66a.72.72,0,0,0,.45.07.57.57,0,0,0,.35-.28.68.68,0,0,0,.07-.46.54.54,0,0,0-.28-.35l-2.31-1.33a.22.22,0,0,0-.24,0,.87.87,0,0,0-.28.35,1.69,1.69,0,0,0-.18.42.22.22,0,0,0,.11.21Z" fill="#dcdcdc"/><path id="path2255" d="M42.85,174.17a.62.62,0,0,1-.6.6.6.6,0,0,1-.59-.6v-2.66c0-.1.07-.14.14-.17a1.2,1.2,0,0,1,.45-.07,1.3,1.3,0,0,1,.46.07.22.22,0,0,1,.14.17v2.66Z" fill="#dcdcdc"/><path id="path2257" d="M44.74,175a.57.57,0,0,1-.35.28.59.59,0,0,1-.46-.07.57.57,0,0,1-.28-.35.59.59,0,0,1,.07-.46l1.33-2.31a.25.25,0,0,1,.21-.1,1,1,0,0,1,.42.17,1,1,0,0,1,.35.28.3.3,0,0,1,0,.25Z" fill="#dcdcdc"/><path id="path2259" d="M46,176.66a.72.72,0,0,1-.45.07.57.57,0,0,1-.35-.28.68.68,0,0,1-.07-.46.54.54,0,0,1,.28-.35l2.31-1.33a.22.22,0,0,1,.24,0,.87.87,0,0,1,.28.35,1.69,1.69,0,0,1,.18.42.22.22,0,0,1-.11.21Z" fill="#dcdcdc"/></g><g id="g2261"><path id="path2263" d="M60.74,174.8h1.12s.07,0,.11.07l1.12,2.84,1-2.84s.07-.07.1-.07h1.09c.07,0,.1.07.1.14l-2.73,6.24s-.07.07-.1.07h-1a.13.13,0,0,1-.11-.14l1-2.18-1.82-4C60.6,174.87,60.67,174.8,60.74,174.8Z" fill="#dcdcdc"/><path id="path2265" d="M77.2,175.43v-.52c0-.07,0-.11.1-.11h1a.1.1,0,0,1,.11.11v4.23a.1.1,0,0,1-.11.11h-1c-.07,0-.1,0-.1-.11v-.56a1.69,1.69,0,0,1-1.44.77A2.14,2.14,0,0,1,73.59,177a2.1,2.1,0,0,1,2.17-2.28A1.79,1.79,0,0,1,77.2,175.43ZM74.75,177A1.2,1.2,0,0,0,76,178.34,1.18,1.18,0,0,0,77.2,177a1.24,1.24,0,0,0-1.26-1.36A1.21,1.21,0,0,0,74.75,177Z" fill="#dcdcdc"/><path id="path2267" d="M79.26,179.14v-4.23a.1.1,0,0,1,.11-.11h1c.07,0,.1,0,.1.11v.56a1.58,1.58,0,0,1,1.41-.77c.77,0,1.61.38,1.61,2.1v2.34a.1.1,0,0,1-.11.11h-1c-.07,0-.1,0-.1-.11v-2.31c0-.42-.11-1.12-.84-1.12s-1,.63-1,1.26v2.21c0,.07,0,.1-.1.1h-1C79.3,179.21,79.26,179.18,79.26,179.14Z" fill="#dcdcdc"/><path id="path2269" d="M84.31,179.14v-4.23c0-.07,0-.11.1-.11h1a.1.1,0,0,1,.11.11v.56a1.55,1.55,0,0,1,1.4-.77c.77,0,1.61.38,1.61,2.1v2.34a.1.1,0,0,1-.11.11h-1c-.07,0-.1,0-.1-.11v-2.31c0-.42-.11-1.12-.84-1.12s-1,.63-1,1.26v2.21c0,.07,0,.1-.11.1h-1C84.34,179.21,84.31,179.18,84.31,179.14Z" fill="#dcdcdc"/><path id="path2271" d="M94.67,174.8h1c.07,0,.1,0,.1.11v.87a1.28,1.28,0,0,1,1.47-1.05s.07,0,.07.11v1a.11.11,0,0,1-.1.1c-1-.21-1.4.35-1.4,1.12v2.14c0,.07,0,.1-.11.1h-1c-.07,0-.1,0-.1-.1v-4.27C94.57,174.84,94.6,174.8,94.67,174.8Z" fill="#dcdcdc"/><path id="path2273" d="M54.19,175.75c-.31-.11-.45-.18-.7-.25s-.66-.35-.66-.73.28-.63.8-.63a1,1,0,0,1,1,.63c0,.07.11.07.14,0l.81-.45s.07-.07,0-.14A2,2,0,0,0,53.67,173c-1.26,0-2,.73-2,1.71s.63,1.47,1.5,1.79l.74.24c.52.18.77.42.77.74s-.21.7-1,.7a1.12,1.12,0,0,1-1.15-.77.09.09,0,0,0-.14,0l-.84.49s-.07.07,0,.11a2.3,2.3,0,0,0,2.21,1.26c1.19,0,2.17-.6,2.17-1.82S54.51,175.85,54.19,175.75Z" fill="#dcdcdc"/><path id="path2275" d="M60.71,178.06s-.11-.07-.14,0a.73.73,0,0,1-1.16-.24c-.28-.46-.63-1-.63-1l1.5-1.86a.1.1,0,0,0-.07-.17H59.06s-.07,0-.07,0l-1.3,1.79v-3.54c0-.07,0-.1-.1-.1h-1c-.07,0-.11,0-.11.1v6.09a.1.1,0,0,0,.11.11h1c.07,0,.1,0,.1-.11v-2s.67,1,.91,1.44a1.52,1.52,0,0,0,1.33.73,1.61,1.61,0,0,0,1.2-.49.13.13,0,0,0,0-.1Z" fill="#dcdcdc"/><path id="path2277" d="M67.78,176.66a6.94,6.94,0,0,1-.67-.25c-.24-.1-.45-.21-.45-.42s.17-.38.52-.38a.56.56,0,0,1,.6.35.08.08,0,0,0,.14,0l.7-.38s.07-.11,0-.14a1.47,1.47,0,0,0-1.47-.77c-1.12,0-1.68.63-1.68,1.33s.56,1.05,1.12,1.26.63.24.7.28.42.17.42.38-.24.39-.63.39a.93.93,0,0,1-.91-.56.09.09,0,0,0-.14,0l-.7.39s-.07.07,0,.1a1.79,1.79,0,0,0,1.78,1c1,0,1.75-.56,1.75-1.37S68.34,176.9,67.78,176.66Z" fill="#dcdcdc"/><path id="path2279" d="M71.74,175.75a1.81,1.81,0,0,1,1.08.35.09.09,0,0,0,.14,0l.42-.7s0-.1,0-.14a2.9,2.9,0,0,0-1.65-.56,2.45,2.45,0,0,0-1.82.67,2.24,2.24,0,0,0-.67,1.68,2.18,2.18,0,0,0,.67,1.64,2.57,2.57,0,0,0,1.82.67,3,3,0,0,0,1.65-.56s.07-.11,0-.14l-.38-.7s-.11-.07-.14,0a2,2,0,0,1-1.09.35A1.28,1.28,0,0,1,70.4,177,1.24,1.24,0,0,1,71.74,175.75Z" fill="#dcdcdc"/><path id="path2281" d="M91.73,178.34a1.77,1.77,0,0,1-1-.32.85.85,0,0,1-.39-.7h3.54c.07,0,.11,0,.11-.1a2.41,2.41,0,0,0-.7-1.86,2.34,2.34,0,0,0-1.69-.66,2.51,2.51,0,0,0-1.75.66,2.28,2.28,0,0,0-.7,1.65,2.36,2.36,0,0,0,.67,1.64,2.84,2.84,0,0,0,3.89-.21.09.09,0,0,0,0-.14l-.7-.42a.07.07,0,0,0-.1,0A1.5,1.5,0,0,1,91.73,178.34Zm-.18-2.7a1.11,1.11,0,0,1,1.16,1H90.33A1.22,1.22,0,0,1,91.55,175.64Z" fill="#dcdcdc"/></g></g><rect x="346.23" y="16.08" width="100" height="100" fill="none"/><g id="g2853"><path id="path2859" d="M386.3,60.63H383V65h-3.45V60.63h-3.31V71.51h3.32V67.23H383v4.28h3.32V60.63Zm11.55,8.69V60.63h-3.32V71.51h6l.49-2.19Zm-5.77-8.69h-3.33V71.51h3.33Zm13.47,0h-3.32V71.51h3.32Zm16.38,2.78c0-.59.59-.86,1.54-.86a8.49,8.49,0,0,1,3,.54l-.27-2.38a14,14,0,0,0-3.06-.3c-2.68,0-4.5,1.06-4.5,3.27,0,3.83,5.18,3.06,5.18,4.83,0,.68-.5,1-1.73,1a9.75,9.75,0,0,1-3.77-.87l.36,2.52a11.37,11.37,0,0,0,3.45.54c2.77,0,5.05-.92,5.05-3.64,0-3.65-5.21-3-5.21-4.7m-9.38,5.51c3.09,0,5.05-1.6,5.05-4.37,0-3.06-2.09-4.14-5.51-4.14a36.47,36.47,0,0,0-4,.22V71.51h3.31V68.92Zm1.78-4.32A2.12,2.12,0,0,1,411.92,67h-.54v-4.5h.54c1.63,0,2.41.78,2.41,2.15m-44.49,4.32c3.09,0,5-1.6,5-4.37,0-3.06-2.09-4.14-5.5-4.14a36.79,36.79,0,0,0-4.05.22V71.51h3.32V68.92Zm1.78-4.32A2.13,2.13,0,0,1,369.2,67h-.54v-4.5h.54c1.64,0,2.42.78,2.42,2.15" fill="#dcdcdc"/></g><rect x="346.23" y="236.57" width="100" height="100" fill="none"/><path id="path7" d="M405.77,274.44a4.42,4.42,0,0,1,3.11.4,6.86,6.86,0,0,1,2.63,3.63,26.49,26.49,0,0,1,1,12.74A3.42,3.42,0,0,1,410.9,294a1.7,1.7,0,0,1-1.87-.4c-.72-.86-.49-2-.42-3.05a27.06,27.06,0,0,0,.25-4.85,2.37,2.37,0,0,0-.88-2,1.61,1.61,0,0,0-1.83,0,6.1,6.1,0,0,0-2,2.46,68.86,68.86,0,0,0-2.71,7.61,6.23,6.23,0,0,1-2.21,3,7.11,7.11,0,0,1-4.39,1.07,6.06,6.06,0,0,1-4.71-2.92c-1.26-2.06-2.4-4.18-3.64-6.24-.4-.61-.92-1.37-1.74-1.29s-1.18,1.05-1.16,1.79c.06,2.54,1.3,4.88,1.72,7.36a1.85,1.85,0,0,1-.84,2.08,3.62,3.62,0,0,1-1.43,0,2.84,2.84,0,0,1-1.34-1.58,29.57,29.57,0,0,1-2.11-8,24.72,24.72,0,0,1,.21-4.22c.4-2.27,1-4.67,2.72-6.35a4.65,4.65,0,0,1,5.69-.76c1.73,1.18,2.78,3,3.89,4.71.82,1.3,1.6,2.84,3.09,3.47a2.75,2.75,0,0,0,3.16-.65,6.33,6.33,0,0,0,1.11-2c.61-1.54,1.22-3.09,1.92-4.61A6.65,6.65,0,0,1,405.77,274.44Z" fill="#dcdcdc"/><rect x="125.87" y="126.26" width="100" height="100" fill="none"/><g id="g4421"><path id="path4423" d="M164.09,173.39v9.26h-3V171h6.08a3.23,3.23,0,0,1,3.47,3.48v8.16h-2.94v-8.14c0-.7-.36-1.12-1.23-1.12Zm20-.14a2.27,2.27,0,0,0-2.11,1.22,3,3,0,0,0-.28,1.26h4.54c-.06-1.26-.64-2.48-2.15-2.48m-2.39,4.49a2.45,2.45,0,0,0,2.61,2.62,3.31,3.31,0,0,0,2.7-1.11l1.82,1.74a5.81,5.81,0,0,1-4.54,1.85c-2.82,0-5.52-1.54-5.52-6,0-3.83,2.35-6,5.45-6s5,2.54,5,5.87v1.06h-7.48m-5.42,4.89a3.17,3.17,0,0,1-3.42-3.32V167.83h2.94V171h2.22v2.38h-2.22v5.74a.92.92,0,0,0,1,1.05h1.2v2.45h-1.74M158.51,169.4h-3v-2.82h3Zm0,13.37a2.91,2.91,0,0,1-3-3.12V171h3v11.76Zm35.38-.25a2.9,2.9,0,0,1-3-3.11V166.18h3Zm10.39-14.43c-2.69-13.13-28.17-14-44.6-4v1.1c16.41-8.43,39.68-8.38,41.8,3.71.71,4-1.54,8.17-5.57,10.56v3.14c4.85-1.77,9.81-7.52,8.37-14.55m-29.86,23c-11.33,1.05-23.15-.6-24.8-9.46-.81-4.37,1.18-9,3.82-11.87v-1.54c-4.75,4.17-7.33,9.44-5.84,15.67,1.89,8,12,12.52,27.5,11,6.13-.6,14.14-2.57,19.71-5.62v-4.35c-5,3-13.42,5.5-20.39,6.15" fill="#dcdcdc"/><path id="path4425" d="M197.34,167.06c0-.15-.09-.19-.28-.19h-.18v.4h.18c.19,0,.28-.07.28-.2v0Zm.29,1h-.22a.09.09,0,0,1,0,0l-.3-.51,0,0h-.13v.5a.06.06,0,0,1-.06.06h-.2a.06.06,0,0,1,0-.06v-1.28a.1.1,0,0,1,.09-.11l.37,0c.36,0,.58.11.58.46v0a.36.36,0,0,1-.27.38l.32.53s0,0,0,0a.05.05,0,0,1-.05,0m-.52-1.7a1,1,0,1,0,1,1,1,1,0,0,0-1-1m0,2.17a1.18,1.18,0,1,1,1.18-1.18,1.18,1.18,0,0,1-1.18,1.18" fill="#dcdcdc"/></g></g></g></svg>