<?xml version="1.0" encoding="utf-8"?>
<!-- Generator: Adobe Illustrator 25.2.1, SVG Export Plug-In . SVG Version: 6.00 Build 0)  -->
<svg version="1.1" id="Layer_1" xmlns="http://www.w3.org/2000/svg" xmlns:xlink="http://www.w3.org/1999/xlink" x="0px" y="0px"
	 viewBox="0 0 100 100" style="enable-background:new 0 0 100 100;" xml:space="preserve">
<style type="text/css">
	.st0{fill:none;}
	.st1{fill:#DCDCDC;}
</style>
<g>
	<rect x="-0.1" y="0.1" class="st0" width="100" height="100"/>
	<path class="st1" d="M43.3,57c-2.1-1.4-5-1.6-9.6-0.3c-4.9,1.2-6.6,1.9-8.7,0.4c-0.8-0.7-1.1-1.9-0.9-3.6c0.7-3.1,2.2-6,4.4-8.4
		c1.4-1.5,2.7-2.9,4.3-3.4c1.3-0.3,1.2,0.7,1,0.8c-0.2,0-0.5,0.1-0.7,0.2c-0.4,0.3-0.6,0.7-0.6,1.2c0,0.9,0.9,0.7,1.3,0.2
		c0.7-0.7,0.9-1.7,0.6-2.6c-0.2-0.4-0.6-0.6-1-0.7c-1.6,0-3.1,0.6-4.3,1.5c-2.9,2-5.1,4.7-6.5,7.9c-0.8,1.8-1.5,4.5-0.4,6.7
		c0.9,1.5,2.7,2.4,4.4,2.1c1.4-0.2,2.8-0.5,4.2-0.9c1.1-0.3,6.9-2.2,8.8,1.2c0.4-0.8,1.3-1.2,2.1-1.2c1.6-0.1,3.2,0.4,4.5,1.4
		C45.3,58.4,44.4,57.6,43.3,57z"/>
	<path class="st1" d="M34.3,45.4c-1.1-0.7-3.2,0.7-5,3c-1.6,2.1-2.3,4.5-1.5,5.6c1.1,1.3,3.2-0.6,4-1.6l0.1-0.1
		c0.6-0.7,1.1-1.4,1.5-2.1l0.4-0.7c0.3-0.1,0.6-0.1,0.9-0.2c0,0-1.3,2.2-1.2,3.3c-0.1,0.8,0.4,1.6,1.2,1.9c1.6,0.3,2.8-1,4-2
		l0.3-0.3l-0.1,0.3c-0.5,1.6,0.2,2,0.5,2.1c1.2,0.2,2.7-1.5,2.7-1.5c0,0.5-0.1,1,0.4,1.3c0.5,0.1,1.1,0,1.5-0.3
		c1.4-1.1,2.7-2.5,3.6-4.1h-0.6c-0.7,1-1.5,1.9-2.5,2.7c0,0-0.2,0.1-0.3,0s-0.1-0.3,0-0.5s3.8-6.6,3.8-6.6h-1.8c0,0-0.2,0.3-0.2,0.3
		L46,45.7c-1.1-1.5-3.6,0.8-5.5,3.6c-0.7,1.1-1.6,2.2-2.6,3.1c0,0-1.4,1.3-2,0.4c-0.2-0.4-0.2-0.9,0-1.3c0.6-1.9,1.8-3.7,3.3-5
		c0.3-0.3,0.6-0.4,1-0.3c0.2,0.1,0.2,0.4,0.1,0.6c-0.3,0-0.6,0.1-0.8,0.3c-0.4,0.3-0.5,0.8-0.4,1.2c0.6,0.9,1.9-0.9,1.9-2
		c0-0.4-0.2-0.8-0.5-1c-0.5-0.2-1.1-0.2-1.7,0c-0.9,0.5-1.6,1.1-2.2,1.8c-0.7,0.8-2,1.7-2.3,1.6C34.3,48.4,35.4,46.2,34.3,45.4
		L34.3,45.4z M42.9,48.6c0.5-0.7,1-1.4,1.6-2c0.8-0.7,1.2-0.4,1.2-0.2c-0.8,1.4-1.7,3-2.6,4.4l-0.3,0.4c-0.3,0.6-0.8,1.1-1.4,1.4
		c-0.1,0-0.2,0-0.3,0c-0.1-0.1-0.2-0.2-0.2-0.3C41.4,50.9,42,49.7,42.9,48.6L42.9,48.6z M33.2,49.4L33.2,49.4l-0.8,1.3
		c-0.5,0.7-1.1,1.3-1.8,1.8c-0.2,0.1-0.5,0.1-0.7-0.1c-0.3-0.4-0.2-0.9,0-1.4l0-0.2c0.4-1,0.9-2,1.5-2.9l0,0l0,0
		c0.4,0.6,0.9,1,1.6,1.2l0,0C33.2,49.3,33.2,49.4,33.2,49.4L33.2,49.4z M33.9,47.9l-0.3,0.8c0,0-0.1,0-0.2,0h-0.2
		c-0.5-0.1-0.8-0.4-1-0.8c0-0.6,0.2-1.2,0.8-1.5c0.3-0.2,0.6-0.3,0.9-0.1c0.1,0.2,0.2,0.4,0.2,0.7C34.1,47.2,34,47.6,33.9,47.9z
		 M56.6,50.3c-0.2-0.4-0.6-0.6-1-0.6c-1.6,0.3-3,1.4-3.5,3c-0.4,0.9-0.6,1.8-0.7,2.7c0.7-0.8,1.5-1.4,2.4-1.8c0.1-0.7,0.4-1.4,0.8-2
		c0.3-0.4,0.8-1,1.4-0.9s0.3,1.6-0.3,3c-0.5,1.1-1.3,2-2.1,2.8c-0.7,0.6-1.8,1.3-2.7,0.8c-0.6-0.5-1-1.2-0.8-2
		c0.3-2.6,1.5-4.8,3.2-7.4c1.8-2.4,3.7-4.8,6.3-6.1c0.4-0.3,1-0.3,1.5-0.2c-1.5,0.9-2.8,2.2-3.6,3.8c-0.5,0.7-0.6,1.5-0.3,2.2
		c0.2,0.3,0.6,0.5,0.9,0.4c1.4-0.3,2.4-1.7,3.1-2.9c0.5-0.9,0.8-1.9,0.8-2.9c0-0.1,0-0.3,0-0.4c0.7-0.4,2.1,0.3,2.1,0.3
		c1.1,0.4,3.4,2.2,4.2,2.5c0.4-0.4,1-1.1,1.4-1.5L69,43c-0.8-0.5-1.7-1-2.6-1.5c-1.3-0.8-2.9-0.9-4.3-0.4l-0.6,0.2
		c-0.6-0.5-1.5-0.7-2.3-0.4c-2.6,0.8-5,2.6-7.6,5.7c-1.6,2-2.9,4.3-3.7,6.7c-0.5,1.4-0.6,3.5,0.6,4.8c0.9,0.8,2.2,1,3.3,0.4
		c2.2-1.2,4-3.3,4.8-5.7C56.9,52.1,56.9,51.2,56.6,50.3L56.6,50.3z M61.3,42.5c-0.2,2.1-1.4,4-3.3,5.1c-0.4,0.1-1-0.1-0.4-1.4
		c0.8-1.7,2.1-3.1,3.7-4C61.3,42.3,61.3,42.4,61.3,42.5L61.3,42.5z M75.6,42.9c-1.3,0.8-2.8,1.1-4.3,1c-0.4,0.5-0.9,1-1.3,1.6
		c2.3,0.6,4.7-0.7,6.1-1.9c0.9-0.8,1.6-1.7,2.2-2.8C77.5,41.6,76.6,42.3,75.6,42.9z M51.1,45.5h-1.7l-1,1.6h1.7L51.1,45.5z"/>
	<path class="st1" d="M71.3,57.1c-0.2,0.1-0.4,0-0.3-0.3c0.3-0.8,0.7-1.5,1.2-2.2l2.7-4.7H73l-0.3,0.5c-0.1-0.2-0.3-0.4-0.4-0.5
		c-0.5-0.2-1.1-0.2-1.5,0.1c-2,1.1-3.4,3.4-4.5,5.2c0,0-1.2,2-1.8,2.1c-0.6,0.1-0.5-0.7-0.4-0.8c0.2-1.1,0.6-2.2,1.1-3.3
		c1.1-0.7,2.1-1.6,3-2.4c1.6-1.5,3-3.1,4.2-4.8c-0.2,0-0.4,0.1-0.6,0.1c-1.6,2.3-5,5.6-6,6.1c1.6-3.2,3.5-6.1,5.9-8.7l0.4-0.4
		c0.5-0.5,1.1-1,1.7-1.3c0.1,0,0.1,0,0.2,0.1c0,0.4-0.1,0.8-0.4,1.2l-0.3,0.6c0,0,0.4-0.1,0.7-0.2c0.4-0.6,0.6-1.2,0.5-1.9
		c0-0.2-0.2-0.4-0.4-0.5c-0.8,0-1.6,0.3-2.2,0.8l0,0c-3.3,2.6-6.1,6.3-8.6,11.5c-0.3,0.2-0.7,0.3-1,0.2c0.3-0.6,0.5-1.2,0.7-1.9
		c0-0.2,0-0.4,0-0.6c0-0.4-0.1-0.9-0.5-1.2c-0.5-0.2-1-0.2-1.4,0c-1.8,0.7-3.1,2.5-4,4c-0.6,1-0.9,2-1.1,3.1
		c-0.1,0.9,0.1,1.5,0.6,1.8c0.5,0.2,1,0.1,1.4-0.2c1.8-0.9,3-2.8,4-4.5c0.3,0,0.7-0.1,1-0.1l0,0l-0.2,0.7c-0.6,1.8-0.9,3-0.3,3.8
		c0.8,1,2.2,0,3.3-1.4c-0.2,1.7,0.6,2,1.3,1.8c0.8-0.3,1.5-0.8,2-1.4c-0.1,0.5-0.1,1.4,0.6,1.5c0.5,0,0.9-0.1,1.2-0.4
		c1.5-0.8,3.3-3.5,3.7-4.3h-0.6C73.2,55.3,72.4,56.3,71.3,57.1L71.3,57.1z M58,57c-0.1-0.1-0.1-0.3-0.1-0.5c0-1,1.1-2.8,1.8-3.8l0,0
		c0.3,0.6,0.9,1,1.5,1.3C60.7,55.2,58.8,57.8,58,57L58,57z M61.5,53.5c-0.8-0.1-1.3-0.9-1.2-1.7c0.1-0.5,0.4-0.9,0.8-1.1
		c0.2-0.2,0.5-0.2,0.8-0.1c0.2,0.2,0.3,0.4,0.3,0.7c0,0.2,0,0.3,0,0.5l0,0C62.1,52.4,61.9,52.9,61.5,53.5z M69,56.6l-0.2,0.2
		c-0.2,0.2-0.5,0.5-0.8,0.3c-0.1,0-0.2-0.1-0.2-0.2c0-0.6,0.2-1.3,0.6-1.8l0.1-0.2c0.8-1.5,1.8-2.9,3.1-4c0.2-0.2,0.5-0.3,0.7-0.2
		c0.1,0.1,0.1,0.2,0.1,0.3c0,0,0,0.1,0,0.1c-0.4,0.6-0.7,1.3-1.1,1.9C70.6,54.3,69.8,55.5,69,56.6L69,56.6z"/>
</g>
</svg>
