<?xml version="1.0" encoding="utf-8"?>
<!-- Generator: Adobe Illustrator 25.2.1, SVG Export Plug-In . SVG Version: 6.00 Build 0)  -->
<svg version="1.1" id="Layer_1" xmlns="http://www.w3.org/2000/svg" xmlns:xlink="http://www.w3.org/1999/xlink" x="0px" y="0px"
	 viewBox="0 0 100 100" style="enable-background:new 0 0 100 100;" xml:space="preserve">
<style type="text/css">
	.st0{fill:none;}
	.st1{fill:#DCDCDC;}
</style>
<rect x="-0.1" y="0.1" class="st0" width="100" height="100"/>
<g id="g2853">
	<path id="path2859" class="st1" d="M40,44.6h-3.3V49h-3.5v-4.4h-3.3v10.9h3.3v-4.3h3.4v4.3H40L40,44.6L40,44.6z M51.5,53.3v-8.7
		h-3.3v10.9h6l0.5-2.2H51.5z M45.7,44.6h-3.3v10.9h3.3V44.6z M59.2,44.6h-3.3v10.9h3.3V44.6z M75.6,47.4c0-0.6,0.6-0.9,1.5-0.9
		c1,0,2,0.2,3,0.5l-0.3-2.4c-1-0.2-2-0.3-3.1-0.3c-2.7,0-4.5,1.1-4.5,3.3c0,3.8,5.2,3.1,5.2,4.8c0,0.7-0.5,1-1.7,1
		c-1.3,0-2.6-0.3-3.8-0.9l0.4,2.5c1.1,0.4,2.3,0.5,3.5,0.5c2.8,0,5-0.9,5-3.6C80.8,48.4,75.6,49,75.6,47.4 M66.3,52.8
		c3.1,0,5-1.6,5-4.4c0-3.1-2.1-4.1-5.5-4.1c-1.3,0-2.7,0.1-4,0.2v10.9h3.3v-2.6L66.3,52.8z M68,48.5c0.2,1.2-0.6,2.3-1.7,2.5
		c-0.2,0-0.5,0-0.7,0H65v-4.5h0.5c1.6,0,2.4,0.8,2.4,2.2 M23.5,52.9c3.1,0,5-1.6,5-4.4c0-3.1-2.1-4.1-5.5-4.1c-1.4,0-2.7,0.1-4,0.2
		v10.8h3.3v-2.6L23.5,52.9z M25.3,48.6c0.1,1.2-0.7,2.2-1.9,2.4c-0.2,0-0.4,0-0.5,0h-0.5v-4.5h0.5C24.5,46.5,25.3,47.3,25.3,48.6"/>
</g>
</svg>
