<?xml version="1.0" encoding="utf-8"?>
<!-- Generator: Adobe Illustrator 25.2.1, SVG Export Plug-In . SVG Version: 6.00 Build 0)  -->
<svg version="1.1" id="Layer_1" xmlns="http://www.w3.org/2000/svg" xmlns:xlink="http://www.w3.org/1999/xlink" x="0px" y="0px"
	 viewBox="0 0 100 100" style="enable-background:new 0 0 100 100;" xml:space="preserve">
<style type="text/css">
	.st0{fill:none;}
	.st1{fill:#DCDCDC;}
</style>
<rect x="-0.1" y="0.1" class="st0" width="100" height="100"/>
<path id="path2" class="st1" d="M33.6,59c-1.2,0-2.3-0.4-3.2-1.1c-0.2-0.2-0.5-0.4-0.7-0.7c-0.3-0.4-0.6-0.8-0.7-1.3
	c-0.4-1.8-0.2-3.7,0.7-5.4c1.1-2.2,2.5-4.2,4.2-5.9c0.3-0.4,1.3-1.4,1.3-1.4L35,43.4c-0.6,0.9-1,1.9-1.3,3c-0.4,1.3-0.4,2.7,0.1,3.9
	c0.4,0.7,0.9,1.3,1.6,1.7c1.6,0.6,3.4,0.7,5.1,0.1L57,47.7l16-4.3c0,0-20.5,8.8-31.2,13.4c-1.7,0.7-2.1,0.9-2.9,1.2
	C37.2,58.6,35.4,58.9,33.6,59L33.6,59z"/>
</svg>
