<?xml version="1.0" encoding="utf-8"?>
<!-- Generator: Adobe Illustrator 25.2.1, SVG Export Plug-In . SVG Version: 6.00 Build 0)  -->
<svg version="1.1" id="Layer_1" xmlns="http://www.w3.org/2000/svg" xmlns:xlink="http://www.w3.org/1999/xlink" x="0px" y="0px"
	 viewBox="0 0 100 100" style="enable-background:new 0 0 100 100;" xml:space="preserve">
<style type="text/css">
	.st0{fill:none;}
	.st1{fill:#DCDCDC;}
</style>
<rect x="-0.1" y="0.1" class="st0" width="100" height="100"/>
<g id="g4421">
	<path id="path4423" class="st1" d="M38.1,47.2v9.3h-3V44.8h6.1c1.8-0.1,3.3,1.2,3.5,3c0,0.2,0,0.3,0,0.5v8.2h-2.9v-8.1
		c0-0.7-0.4-1.1-1.2-1.1L38.1,47.2z M58.1,47c-0.9,0-1.7,0.4-2.1,1.2c-0.2,0.4-0.3,0.8-0.3,1.3h4.5C60.2,48.3,59.6,47,58.1,47
		 M55.7,51.5c-0.1,1.3,0.9,2.5,2.3,2.6c0.1,0,0.2,0,0.3,0c1,0.1,2-0.3,2.7-1.1l1.8,1.7c-1.2,1.3-2.8,1.9-4.5,1.9
		c-2.8,0-5.5-1.5-5.5-6c0-3.8,2.4-6,5.4-6s5,2.5,5,5.9v1.1L55.7,51.5 M50.3,56.5c-1.7,0.1-3.3-1.2-3.4-2.9c0-0.1,0-0.3,0-0.4V41.6
		h2.9v3.2h2.2v2.4h-2.2v5.7c-0.1,0.5,0.3,1,0.8,1c0.1,0,0.1,0,0.2,0h1.2v2.4L50.3,56.5 M32.5,43.2h-3v-2.8h3V43.2z M32.5,56.6
		c-1.6,0.1-3-1.2-3-2.8c0-0.1,0-0.2,0-0.3v-8.6h3V56.6L32.5,56.6z M67.9,56.3c-1.6,0.1-2.9-1.2-3-2.8c0-0.1,0-0.2,0-0.3V40h3V56.3z
		 M78.3,41.9c-2.7-13.1-28.2-14-44.6-4V39c16.4-8.4,39.7-8.4,41.8,3.7c0.7,4-1.5,8.2-5.6,10.6v3.1C74.8,54.6,79.7,48.9,78.3,41.9
		 M48.4,64.8c-11.3,1.1-23.1-0.6-24.8-9.5c-0.8-4.4,1.2-9,3.8-11.9V42c-4.8,4.2-7.3,9.4-5.8,15.7c1.9,8,12,12.5,27.5,11
		c6.1-0.6,14.1-2.6,19.7-5.6v-4.4C63.8,61.7,55.4,64.2,48.4,64.8"/>
	<path id="path4425" class="st1" d="M71.4,40.9c0-0.1-0.1-0.2-0.3-0.2h-0.2v0.4h0.2C71.3,41.1,71.4,41,71.4,40.9L71.4,40.9
		L71.4,40.9z M71.7,41.9h-0.2l0,0l-0.3-0.5l0,0H71v0.5c0,0,0,0.1-0.1,0.1h-0.2c0,0,0,0,0-0.1v-1.3c0-0.1,0-0.1,0.1-0.1c0,0,0,0,0,0
		h0.4c0.4,0,0.6,0.1,0.6,0.5l0,0c0,0.2-0.1,0.3-0.3,0.4l0.3,0.5l0,0c0,0,0,0-0.1,0 M71.3,40.1c-0.6,0-1,0.4-1,1s0.4,1,1,1s1-0.4,1-1
		S71.8,40.1,71.3,40.1 M71.3,42.3c-0.7,0-1.2-0.5-1.2-1.2s0.5-1.2,1.2-1.2s1.2,0.5,1.2,1.2v0C72.4,41.8,71.9,42.3,71.3,42.3"/>
</g>
</svg>
