<?xml version="1.0" encoding="utf-8"?>
<!-- Generator: Adobe Illustrator 25.2.0, SVG Export Plug-In . SVG Version: 6.00 Build 0)  -->
<svg version="1.1" id="Capa_1" xmlns="http://www.w3.org/2000/svg" xmlns:xlink="http://www.w3.org/1999/xlink" x="0px" y="0px"
	 viewBox="0 0 353 326" style="enable-background:new 0 0 353 326;" xml:space="preserve">
<style type="text/css">
	.st0{fill-rule:evenodd;clip-rule:evenodd;fill:#FFFFFF;}
</style>
<rect width="353" height="326"/>
<path class="st0" d="M131.8,143.3c-7.8,9.2-15.3,20.6-15.3,29.1c0,3.2,1,6,3.4,8.2c3.5,3.1,7.5,4.1,11.3,4.1c5.6,0,11.2-2.3,15.7-4
	c7.4-3,89.2-38.5,89.2-38.5c0.8-0.4,0.6-0.9-0.4-0.6c-0.4,0.1-89.1,24.1-89.1,24.1c-1.8,0.4-3.4,0.7-5.2,0.7
	c-6.8,0-12.9-3.8-12.8-11.7C128.6,151.5,129.6,147.8,131.8,143.3L131.8,143.3z"/>
</svg>
