<svg xmlns="http://www.w3.org/2000/svg" xmlns:xlink="http://www.w3.org/1999/xlink" viewBox="0 0 987.48 810.97"><defs><clipPath id="clip-path" transform="translate(0 97.73)"><rect x="503.93" y="12.85" width="463.12" height="30.72" rx="5" fill="#f7f7f7"/></clipPath><clipPath id="clip-path-2" transform="translate(0 97.73)"><rect x="503.93" y="237.12" width="463.12" height="30.72" rx="5" fill="#f7f7f7"/></clipPath><clipPath id="clip-path-3" transform="translate(0 97.73)"><rect x="503.93" y="347.68" width="463.12" height="30.72" rx="5" fill="#f7f7f7"/></clipPath><clipPath id="clip-path-4" transform="translate(0 97.73)"><rect x="503.97" y="12.85" width="232.03" height="30.72" rx="5" fill="none"/></clipPath><linearGradient id="linear-gradient" x1="2091.79" y1="598.08" x2="2575.52" y2="598.08" gradientTransform="translate(3079 946.73) rotate(180)" gradientUnits="userSpaceOnUse"><stop offset="0" stop-color="#ffd175"/><stop offset="1" stop-color="#ff8575"/></linearGradient><clipPath id="clip-path-5" transform="translate(0 97.73)"><rect x="503.93" y="123.44" width="463.12" height="30.72" rx="5" fill="none"/></clipPath><clipPath id="clip-path-6" transform="translate(0 97.73)"><rect x="504.01" y="237.1" width="78.99" height="30.72" rx="5" fill="none"/></clipPath><linearGradient id="linear-gradient-3" x1="2091.52" y1="598.08" x2="2576.01" y2="598.08" xlink:href="#linear-gradient"/><clipPath id="clip-path-7" transform="translate(0 97.73)"><rect x="503.93" y="347.68" width="348.07" height="30.72" rx="5" fill="none"/></clipPath><clipPath id="clip-path-8" transform="translate(0 97.73)"><rect x="503.93" y="458.27" width="463.12" height="30.72" rx="5" fill="none"/></clipPath></defs><g id="Layer_2" data-name="Layer 2"><g id="Layer_1-2" data-name="Layer 1"><rect y="97.73" width="968" height="506" fill="none"/><g style="isolation:isolate"><g style="isolation:isolate"><path d="M418,38.35a6.23,6.23,0,0,0,3.28-.8,6.5,6.5,0,0,0,2.18-2.15,9.54,9.54,0,0,0,1.18-3.08,18.08,18.08,0,0,0,.34-3.54V12h7.58V28.78a22.84,22.84,0,0,1-.85,6.38,14.6,14.6,0,0,1-2.64,5.18,12.15,12.15,0,0,1-4.53,3.49,17.47,17.47,0,0,1-13.25-.07,12.32,12.32,0,0,1-4.5-3.58,14.51,14.51,0,0,1-2.54-5.2,23.37,23.37,0,0,1-.81-6.2V12H411V28.78a16.8,16.8,0,0,0,.37,3.61,9.49,9.49,0,0,0,1.2,3A5.92,5.92,0,0,0,418,38.35Z" transform="translate(0 97.73)" fill="#1d1e2c"/><path d="M443.2,12l7.16,11.33L457.53,12h8.19L454.34,28.64l11,16.19h-8.18L450.36,34l-6.79,10.87h-8.23l11-16.19L435,12Z" transform="translate(0 97.73)" fill="#1d1e2c"/><path d="M433.67,149.32a6.27,6.27,0,0,0,3.29-.81,6.38,6.38,0,0,0,2.17-2.15,9.05,9.05,0,0,0,1.18-3.07,18.15,18.15,0,0,0,.34-3.54V123h7.59v16.78a22.88,22.88,0,0,1-.86,6.38,14.83,14.83,0,0,1-2.63,5.18,12.42,12.42,0,0,1-4.53,3.49,15.49,15.49,0,0,1-6.55,1.27,15.33,15.33,0,0,1-6.7-1.34,12.46,12.46,0,0,1-4.51-3.58,14.9,14.9,0,0,1-2.54-5.21,23.29,23.29,0,0,1-.81-6.19V123h7.58v16.78a17.53,17.53,0,0,0,.37,3.61,9.59,9.59,0,0,0,1.21,3,5.94,5.94,0,0,0,5.4,2.91Z" transform="translate(0 97.73)" fill="#1d1e2c"/><path d="M454.11,155.79V123h7.58v32.82Z" transform="translate(0 97.73)" fill="#1d1e2c"/><path d="M305.46,250.07a16.61,16.61,0,0,1,1.11-5.9,16.08,16.08,0,0,1,3.24-5.24,16.35,16.35,0,0,1,5.18-3.75,16.17,16.17,0,0,1,6.93-1.43,15.64,15.64,0,0,1,8,2,12.93,12.93,0,0,1,5.07,5.18L329.18,245a6.8,6.8,0,0,0-1.41-2.15,7.77,7.77,0,0,0-1.87-1.39,7.49,7.49,0,0,0-2.08-.73,10.71,10.71,0,0,0-2.08-.21,7.77,7.77,0,0,0-3.79.88,8.21,8.21,0,0,0-2.68,2.26,9.48,9.48,0,0,0-1.58,3.14,12.78,12.78,0,0,0-.51,3.57,12.05,12.05,0,0,0,.6,3.74,10.05,10.05,0,0,0,1.74,3.19,8.22,8.22,0,0,0,2.73,2.2,7.76,7.76,0,0,0,3.58.81,9.14,9.14,0,0,0,2.1-.26,8.78,8.78,0,0,0,2.09-.78,7.52,7.52,0,0,0,1.82-1.39,6.41,6.41,0,0,0,1.34-2.1l6.2,3.65a9.57,9.57,0,0,1-2.2,3.23,13.56,13.56,0,0,1-3.35,2.41,18.4,18.4,0,0,1-8.18,2,14.74,14.74,0,0,1-6.55-1.46,16.75,16.75,0,0,1-5.13-3.86,17.73,17.73,0,0,1-3.33-5.46A17.17,17.17,0,0,1,305.46,250.07Z" transform="translate(0 97.73)" fill="#1d1e2c"/><path d="M350.13,267.22a14.16,14.16,0,0,1-5.53-1,11.93,11.93,0,0,1-4.09-2.75,11.5,11.5,0,0,1-2.52-4,13.89,13.89,0,0,1,0-9.57,11.5,11.5,0,0,1,2.52-4,12.44,12.44,0,0,1,4.09-2.78,14,14,0,0,1,5.53-1,13.8,13.8,0,0,1,5.5,1,12.46,12.46,0,0,1,4.07,2.78,11.7,11.7,0,0,1,2.54,4,13.17,13.17,0,0,1,.88,4.79,13.52,13.52,0,0,1-.85,4.78,11.65,11.65,0,0,1-2.52,4,11.88,11.88,0,0,1-4.1,2.75A14.15,14.15,0,0,1,350.13,267.22Zm-5.41-12.57a6.75,6.75,0,0,0,1.52,4.6,5,5,0,0,0,3.89,1.73,4.81,4.81,0,0,0,2.12-.46,5.08,5.08,0,0,0,1.69-1.3,5.94,5.94,0,0,0,1.13-2,7.55,7.55,0,0,0,.42-2.56,6.67,6.67,0,0,0-1.53-4.6,4.86,4.86,0,0,0-3.83-1.74,5.15,5.15,0,0,0-2.15.46,4.87,4.87,0,0,0-1.71,1.3,6.14,6.14,0,0,0-1.14,2A7.87,7.87,0,0,0,344.72,254.65Z" transform="translate(0 97.73)" fill="#1d1e2c"/><path d="M376.85,267.22a11.1,11.1,0,0,1-4.6-1,10.61,10.61,0,0,1-3.63-2.65,12.53,12.53,0,0,1-2.38-4,14.26,14.26,0,0,1-.86-5,15.11,15.11,0,0,1,.79-4.95,12.05,12.05,0,0,1,2.22-4,10.6,10.6,0,0,1,3.4-2.66,9.71,9.71,0,0,1,4.32-1,8.88,8.88,0,0,1,4.6,1.21,8.33,8.33,0,0,1,3.17,3.23V233h7.39v25.43a2.6,2.6,0,0,0,.35,1.55,1.73,1.73,0,0,0,1.23.53v6.24a15.84,15.84,0,0,1-1.76.3,13.75,13.75,0,0,1-1.39.07,5.52,5.52,0,0,1-3.14-.81,3.16,3.16,0,0,1-1.39-2.34l-.14-1.24a8.21,8.21,0,0,1-3.49,3.37A10.22,10.22,0,0,1,376.85,267.22Zm2-6.24a5.38,5.38,0,0,0,2.93-.9,5.81,5.81,0,0,0,2.15-2.47v-5.09a6.71,6.71,0,0,0-2.24-3,5.2,5.2,0,0,0-3.21-1.18,4.64,4.64,0,0,0-2.2.53,6,6,0,0,0-1.73,1.41,6.56,6.56,0,0,0-1.14,2,7.58,7.58,0,0,0-.39,2.45,7,7,0,0,0,.44,2.49,5.91,5.91,0,0,0,1.2,2,5.3,5.3,0,0,0,1.85,1.3A5.92,5.92,0,0,0,378.84,261Z" transform="translate(0 97.73)" fill="#1d1e2c"/><path d="M397,239.71V233h7.4v6.7Zm0,27V242.49h7.4v24.27Z" transform="translate(0 97.73)" fill="#1d1e2c"/><path d="M432.88,266.76h-7.39V253.12a5.45,5.45,0,0,0-.9-3.49,3,3,0,0,0-2.38-1.09,4.07,4.07,0,0,0-1.58.33,6.14,6.14,0,0,0-1.52.9,6.82,6.82,0,0,0-1.32,1.36,6.67,6.67,0,0,0-.9,1.71v13.92h-7.4V242.49h6.66v4.06a8.91,8.91,0,0,1,3.79-3.35,12.92,12.92,0,0,1,5.64-1.18,7.33,7.33,0,0,1,3.79.86,6.06,6.06,0,0,1,2.22,2.22,8.46,8.46,0,0,1,1,3,20.2,20.2,0,0,1,.25,3.14Z" transform="translate(0 97.73)" fill="#1d1e2c"/><path d="M447.22,266.85a9.82,9.82,0,0,1-4.39-1,10.36,10.36,0,0,1-3.4-2.64,12.4,12.4,0,0,1-2.2-3.88,15.11,15.11,0,0,1,0-9.73,12.43,12.43,0,0,1,2.31-4,10.62,10.62,0,0,1,8.14-3.63,9.6,9.6,0,0,1,4.83,1.18,9.07,9.07,0,0,1,3.31,3.26v-4h6.42v22.6a11.56,11.56,0,0,1-1,5,10.81,10.81,0,0,1-2.89,3.77,13.16,13.16,0,0,1-4.43,2.38,18.71,18.71,0,0,1-5.69.83,16.34,16.34,0,0,1-6.71-1.25,14.16,14.16,0,0,1-4.85-3.61l4-4a9.76,9.76,0,0,0,3.33,2.43,10.24,10.24,0,0,0,4.26.9,8.48,8.48,0,0,0,2.54-.37,6.23,6.23,0,0,0,2.13-1.13,5.22,5.22,0,0,0,1.45-2,7.25,7.25,0,0,0,.53-2.94v-2.35a7.2,7.2,0,0,1-3.18,3.07A10,10,0,0,1,447.22,266.85Zm2.54-5.87a5.21,5.21,0,0,0,3.06-1,6.46,6.46,0,0,0,2.07-2.42v-5.09a6.65,6.65,0,0,0-2.26-3.08,5.39,5.39,0,0,0-3.24-1.13,4.6,4.6,0,0,0-2.19.53,5.39,5.39,0,0,0-1.71,1.44,6.59,6.59,0,0,0-1.11,2.08,7.63,7.63,0,0,0-.4,2.42,6.88,6.88,0,0,0,.44,2.48,6,6,0,0,0,1.23,2,5.5,5.5,0,0,0,4.11,1.76Z" transform="translate(0 97.73)" fill="#1d1e2c"/><path d="M0,377.72V344.9H14a9.65,9.65,0,0,1,4.33,1,10.89,10.89,0,0,1,3.37,2.54A12.26,12.26,0,0,1,24,352a10.61,10.61,0,0,1,.81,4,11.45,11.45,0,0,1-.76,4.16,11.75,11.75,0,0,1-2.13,3.56,9.89,9.89,0,0,1-7.61,3.43H7.62v10.58Zm7.59-17.2h6.19a2.91,2.91,0,0,0,2.31-1.15,5.12,5.12,0,0,0,1-3.38,5.81,5.81,0,0,0-.3-2,4,4,0,0,0-.81-1.39,3.1,3.1,0,0,0-1.15-.81,3.53,3.53,0,0,0-1.29-.26H7.62Z" transform="translate(0 97.73)" fill="#1d1e2c"/><path d="M43.63,359.78a14.28,14.28,0,0,0-4.85.88,5.9,5.9,0,0,0-3.14,2.5v14.56h-7.4V353.45H35v4.9a10.48,10.48,0,0,1,3.22-3.84,7.42,7.42,0,0,1,4.18-1.43h.74a2.4,2.4,0,0,1,.46.05Z" transform="translate(0 97.73)" fill="#1d1e2c"/><path d="M57.09,378.19a14.16,14.16,0,0,1-5.53-1,12.22,12.22,0,0,1-4.09-2.75,11.64,11.64,0,0,1-2.52-4,13.89,13.89,0,0,1,0-9.57,11.69,11.69,0,0,1,2.52-4A12.42,12.42,0,0,1,51.56,354a13.81,13.81,0,0,1,5.53-1,13.63,13.63,0,0,1,5.5,1,12.43,12.43,0,0,1,4.07,2.77,11.89,11.89,0,0,1,2.54,4,13.21,13.21,0,0,1,.88,4.79,13.52,13.52,0,0,1-.85,4.78,11.79,11.79,0,0,1-2.52,4,12.17,12.17,0,0,1-4.1,2.75A14.15,14.15,0,0,1,57.09,378.19Zm-5.41-12.58a6.75,6.75,0,0,0,1.52,4.6,5,5,0,0,0,3.89,1.73,4.81,4.81,0,0,0,2.12-.46,5.18,5.18,0,0,0,1.69-1.29,6.14,6.14,0,0,0,1.13-2,7.65,7.65,0,0,0,.42-2.57,6.69,6.69,0,0,0-1.53-4.6,4.86,4.86,0,0,0-3.83-1.73A5,5,0,0,0,53.23,361a6.35,6.35,0,0,0-1.14,2A7.87,7.87,0,0,0,51.68,365.61Z" transform="translate(0 97.73)" fill="#1d1e2c"/><path d="M72.44,387.06a10.47,10.47,0,0,1-3.51-.58,9.06,9.06,0,0,1-3-1.73l3.1-5a3,3,0,0,0,1.15.74,4.1,4.1,0,0,0,1.34.23,2.39,2.39,0,0,0,1.76-.69,2.51,2.51,0,0,0,.69-1.85V353.45h7.4v24.14a10.59,10.59,0,0,1-.67,3.83,8.87,8.87,0,0,1-1.87,3A8.44,8.44,0,0,1,76,386.37,9,9,0,0,1,72.44,387.06ZM74,350.68V344h7.4v6.71Z" transform="translate(0 97.73)" fill="#1d1e2c"/><path d="M98,378.19a14.35,14.35,0,0,1-5.48-1,12.19,12.19,0,0,1-4.12-2.7,11.54,11.54,0,0,1-2.56-4,12.64,12.64,0,0,1-.88-4.69,13.9,13.9,0,0,1,.88-5,12,12,0,0,1,2.54-4.09A11.75,11.75,0,0,1,92.48,354,14.16,14.16,0,0,1,98,353a14,14,0,0,1,5.5,1,11.94,11.94,0,0,1,4.07,2.75,11.56,11.56,0,0,1,2.52,4,13.43,13.43,0,0,1,.85,4.77c0,.43,0,.85,0,1.27a9.61,9.61,0,0,1-.13,1.09H92.83a5,5,0,0,0,1.78,3.72,5.64,5.64,0,0,0,3.63,1.27,6.57,6.57,0,0,0,3.12-.79,4,4,0,0,0,2-2.12l6.29,1.75a11.36,11.36,0,0,1-4.44,4.67A13.69,13.69,0,0,1,98,378.19Zm5.13-14.89a5.51,5.51,0,0,0-1.67-3.65,5.37,5.37,0,0,0-7.14,0,5.64,5.64,0,0,0-1.64,3.63Z" transform="translate(0 97.73)" fill="#1d1e2c"/><path d="M112.89,365.56a13.12,13.12,0,0,1,.88-4.78,12,12,0,0,1,2.54-4,11.88,11.88,0,0,1,4.1-2.75,14.15,14.15,0,0,1,5.52-1,13.11,13.11,0,0,1,7.07,1.78,11.42,11.42,0,0,1,4.31,4.64l-7.22,2.18a4.64,4.64,0,0,0-4.2-2.31A5,5,0,0,0,122,361a6.51,6.51,0,0,0-1.55,4.57,8,8,0,0,0,.41,2.62,6,6,0,0,0,1.16,2,5.33,5.33,0,0,0,1.73,1.29,5.11,5.11,0,0,0,4.65-.21,4.24,4.24,0,0,0,1.71-1.73l7.21,2.22a10.86,10.86,0,0,1-4.27,4.62,13.35,13.35,0,0,1-7.15,1.81,13.87,13.87,0,0,1-5.48-1,12.53,12.53,0,0,1-4.11-2.78,11.63,11.63,0,0,1-2.57-4A13.17,13.17,0,0,1,112.89,365.56Z" transform="translate(0 97.73)" fill="#1d1e2c"/><path d="M156.4,376.43a30,30,0,0,1-3.49,1.2,14.49,14.49,0,0,1-3.95.56,9.52,9.52,0,0,1-2.61-.35,5.84,5.84,0,0,1-2.16-1.11,5.21,5.21,0,0,1-1.45-2,7.57,7.57,0,0,1-.53-3V359.05h-3.1v-5.6h3.1v-7.72h7.39v7.72h5v5.6h-5v10.12a2,2,0,0,0,2.13,2.27,5.87,5.87,0,0,0,1.71-.28,12.24,12.24,0,0,0,1.53-.6Z" transform="translate(0 97.73)" fill="#1d1e2c"/><path d="M196.53,377.72V358.07l-7.12,14.29h-4.07l-7.12-14.29v19.65h-7.58V344.9h8.23l8.5,17.15,8.56-17.15h8.18v32.82Z" transform="translate(0 97.73)" fill="#1d1e2c"/><path d="M216.46,378.19a9.58,9.58,0,0,1-3.35-.58,7.92,7.92,0,0,1-2.66-1.62,7.7,7.7,0,0,1-1.76-2.45,7.33,7.33,0,0,1-.65-3.08,7,7,0,0,1,.77-3.28,7.55,7.55,0,0,1,2.15-2.54,10.66,10.66,0,0,1,3.28-1.67,13.86,13.86,0,0,1,4.21-.6,16.77,16.77,0,0,1,3,.26,9.69,9.69,0,0,1,2.5.76v-1.11c0-2.8-1.62-4.21-4.85-4.21a11,11,0,0,0-3.8.67,18.4,18.4,0,0,0-3.78,2l-2.18-4.62a19.48,19.48,0,0,1,5-2.36,18.94,18.94,0,0,1,5.5-.78c3.67,0,6.5.86,8.51,2.59s3,4.25,3,7.58v6.24a2.51,2.51,0,0,0,.35,1.55,1.7,1.7,0,0,0,1.22.53v6.24a10.81,10.81,0,0,1-1.76.3c-.52.05-1,.07-1.43.07a5.14,5.14,0,0,1-3.14-.81A3.53,3.53,0,0,1,225.2,375l-.14-1.11a11.22,11.22,0,0,1-3.86,3.19A10.58,10.58,0,0,1,216.46,378.19Zm2.17-5.32a6.72,6.72,0,0,0,2.34-.42,5.37,5.37,0,0,0,1.87-1.11,2.28,2.28,0,0,0,1.06-1.75v-2.32a12.61,12.61,0,0,0-2.1-.57,11.67,11.67,0,0,0-2.11-.21,5.76,5.76,0,0,0-3.35.92,2.83,2.83,0,0,0-1.32,2.41,2.73,2.73,0,0,0,1,2.19A3.89,3.89,0,0,0,218.63,372.87Z" transform="translate(0 97.73)" fill="#1d1e2c"/><path d="M260.06,377.72h-7.4V364.08a5.47,5.47,0,0,0-.9-3.49,3,3,0,0,0-2.38-1.08,4.16,4.16,0,0,0-1.57.32,6.67,6.67,0,0,0-1.53.9A7.16,7.16,0,0,0,245,362.1a6.65,6.65,0,0,0-.9,1.71v13.91h-7.4V353.45h6.66v4.07a8.84,8.84,0,0,1,3.79-3.35,12.84,12.84,0,0,1,5.64-1.18,7.34,7.34,0,0,1,3.79.85,6.06,6.06,0,0,1,2.22,2.22,8.73,8.73,0,0,1,1.05,3,21.29,21.29,0,0,1,.25,3.14Z" transform="translate(0 97.73)" fill="#1d1e2c"/><path d="M271.85,378.19a9.62,9.62,0,0,1-3.35-.58,7.7,7.7,0,0,1-4.42-4.07,7.32,7.32,0,0,1-.64-3.08,7,7,0,0,1,.76-3.28,7.55,7.55,0,0,1,2.15-2.54,10.78,10.78,0,0,1,3.28-1.67,14,14,0,0,1,4.21-.6,16.89,16.89,0,0,1,3,.26,9.93,9.93,0,0,1,2.5.76v-1.11c0-2.8-1.62-4.21-4.86-4.21a10.91,10.91,0,0,0-3.79.67,18.46,18.46,0,0,0-3.79,2l-2.18-4.62a19.63,19.63,0,0,1,5-2.36,18.94,18.94,0,0,1,5.5-.78c3.67,0,6.5.86,8.51,2.59s3,4.25,3,7.58v6.24A2.58,2.58,0,0,0,287,371a1.73,1.73,0,0,0,1.23.53v6.24a11,11,0,0,1-1.76.3c-.53.05-1,.07-1.44.07a5.14,5.14,0,0,1-3.14-.81,3.53,3.53,0,0,1-1.34-2.28l-.14-1.11a11.22,11.22,0,0,1-3.86,3.19A10.58,10.58,0,0,1,271.85,378.19Zm2.17-5.32a6.68,6.68,0,0,0,2.34-.42,5.37,5.37,0,0,0,1.87-1.11,2.29,2.29,0,0,0,1.07-1.75v-2.32a12.73,12.73,0,0,0-2.11-.57,11.65,11.65,0,0,0-2.1-.21,5.71,5.71,0,0,0-3.35.92,2.83,2.83,0,0,0-1.32,2.41,2.72,2.72,0,0,0,1,2.19A3.89,3.89,0,0,0,274,372.87Z" transform="translate(0 97.73)" fill="#1d1e2c"/><path d="M301.49,377.82a9.87,9.87,0,0,1-4.4-1,10.31,10.31,0,0,1-3.4-2.63,12.29,12.29,0,0,1-2.19-3.88,14,14,0,0,1-.79-4.77,14.6,14.6,0,0,1,.83-5,12.4,12.4,0,0,1,2.32-4A10.62,10.62,0,0,1,302,353a9.56,9.56,0,0,1,4.84,1.18,9,9,0,0,1,3.3,3.26v-4h6.43v22.61a11.66,11.66,0,0,1-1,5,11,11,0,0,1-2.89,3.77,13.13,13.13,0,0,1-4.44,2.38,18.36,18.36,0,0,1-5.69.83,16.29,16.29,0,0,1-6.7-1.24,14.36,14.36,0,0,1-4.86-3.61l4-4a9.67,9.67,0,0,0,3.33,2.42,10,10,0,0,0,4.25.91,8.88,8.88,0,0,0,2.55-.37,6.11,6.11,0,0,0,2.12-1.14,5.28,5.28,0,0,0,1.46-2,7.46,7.46,0,0,0,.53-2.94V373.7a7.25,7.25,0,0,1-3.19,3.08A9.93,9.93,0,0,1,301.49,377.82Zm2.54-5.88a5.15,5.15,0,0,0,3.05-.94,6.52,6.52,0,0,0,2.08-2.43v-5.09a6.64,6.64,0,0,0-2.27-3.07,5.27,5.27,0,0,0-3.23-1.13,4.53,4.53,0,0,0-2.2.53,5.45,5.45,0,0,0-1.71,1.43,6.7,6.7,0,0,0-1.11,2.08,7.72,7.72,0,0,0-.39,2.43,6.82,6.82,0,0,0,.44,2.47,6,6,0,0,0,1.22,2,5.74,5.74,0,0,0,1.83,1.29A5.54,5.54,0,0,0,304,371.94Z" transform="translate(0 97.73)" fill="#1d1e2c"/><path d="M333.25,378.19a14.39,14.39,0,0,1-5.48-1,12.19,12.19,0,0,1-4.12-2.7,11.54,11.54,0,0,1-2.56-4,12.64,12.64,0,0,1-.88-4.69,13.9,13.9,0,0,1,.88-5,12,12,0,0,1,2.54-4.09,11.84,11.84,0,0,1,4.09-2.77,14.16,14.16,0,0,1,5.53-1,14,14,0,0,1,5.5,1,11.94,11.94,0,0,1,4.07,2.75,11.56,11.56,0,0,1,2.52,4,13.44,13.44,0,0,1,.86,4.77c0,.43,0,.85-.05,1.27a9.44,9.44,0,0,1-.14,1.09H328.07a5,5,0,0,0,1.78,3.72,5.64,5.64,0,0,0,3.63,1.27,6.57,6.57,0,0,0,3.12-.79,4,4,0,0,0,2-2.12l6.29,1.75a11.3,11.3,0,0,1-4.44,4.67A13.69,13.69,0,0,1,333.25,378.19Zm5.13-14.89a5.55,5.55,0,0,0-1.66-3.65,5,5,0,0,0-3.57-1.35,5,5,0,0,0-3.58,1.37,5.69,5.69,0,0,0-1.64,3.63Z" transform="translate(0 97.73)" fill="#1d1e2c"/><path d="M387.94,377.72h-7.39V364.08a5.6,5.6,0,0,0-.88-3.49,2.79,2.79,0,0,0-2.27-1.08,3.93,3.93,0,0,0-1.5.32,5.28,5.28,0,0,0-1.41.9,7.46,7.46,0,0,0-2,3.08v13.91h-7.4V364.08a5.6,5.6,0,0,0-.88-3.49,2.79,2.79,0,0,0-2.27-1.08,4.43,4.43,0,0,0-2.88,1.18,6.6,6.6,0,0,0-2.06,3.12v13.91h-7.4V353.45h6.66v4.07a8.76,8.76,0,0,1,3.63-3.38A11.67,11.67,0,0,1,365.2,353a8.44,8.44,0,0,1,2.65.37,6.32,6.32,0,0,1,2,1,5.63,5.63,0,0,1,1.34,1.51,6.7,6.7,0,0,1,.74,1.82,9.55,9.55,0,0,1,3.65-3.49,10.8,10.8,0,0,1,5.18-1.22,7.18,7.18,0,0,1,3.73.85,6.21,6.21,0,0,1,2.19,2.22,8.72,8.72,0,0,1,1,3,20,20,0,0,1,.25,3.14Z" transform="translate(0 97.73)" fill="#1d1e2c"/><path d="M404.4,378.19a14.33,14.33,0,0,1-5.47-1,12.19,12.19,0,0,1-4.12-2.7,11.54,11.54,0,0,1-2.56-4,12.64,12.64,0,0,1-.88-4.69,13.9,13.9,0,0,1,.88-5,12,12,0,0,1,2.54-4.09,11.75,11.75,0,0,1,4.09-2.77,15.42,15.42,0,0,1,11,0,11.94,11.94,0,0,1,4.07,2.75,11.71,11.71,0,0,1,2.52,4,13.43,13.43,0,0,1,.85,4.77c0,.43,0,.85-.05,1.27a9.61,9.61,0,0,1-.13,1.09H399.23A5,5,0,0,0,401,371.6a5.64,5.64,0,0,0,3.63,1.27,6.57,6.57,0,0,0,3.12-.79,4,4,0,0,0,2-2.12l6.29,1.75a11.36,11.36,0,0,1-4.44,4.67A13.72,13.72,0,0,1,404.4,378.19Zm5.14-14.89a5.56,5.56,0,0,0-1.67-3.65,5.37,5.37,0,0,0-7.14,0,5.64,5.64,0,0,0-1.64,3.63Z" transform="translate(0 97.73)" fill="#1d1e2c"/><path d="M444.12,377.72h-7.4V364.08a5.47,5.47,0,0,0-.9-3.49,2.94,2.94,0,0,0-2.38-1.08,4.16,4.16,0,0,0-1.57.32,6.88,6.88,0,0,0-1.53.9A7.16,7.16,0,0,0,429,362.1a6.65,6.65,0,0,0-.9,1.71v13.91h-7.39V353.45h6.65v4.07a8.84,8.84,0,0,1,3.79-3.35,12.84,12.84,0,0,1,5.64-1.18,7.38,7.38,0,0,1,3.8.85,6.21,6.21,0,0,1,2.22,2.22,8.72,8.72,0,0,1,1,3,20,20,0,0,1,.25,3.14Z" transform="translate(0 97.73)" fill="#1d1e2c"/><path d="M464.51,376.43a29.37,29.37,0,0,1-3.49,1.2,14.49,14.49,0,0,1-3.95.56,9.52,9.52,0,0,1-2.61-.35,5.72,5.72,0,0,1-2.15-1.11,5.13,5.13,0,0,1-1.46-2,7.57,7.57,0,0,1-.53-3V359.05h-3.1v-5.6h3.1v-7.72h7.39v7.72h5v5.6h-5v10.12a2,2,0,0,0,2.13,2.27,5.77,5.77,0,0,0,1.71-.28,11.65,11.65,0,0,0,1.53-.6Z" transform="translate(0 97.73)" fill="#1d1e2c"/><path d="M99,488.69V455.86h14a9.71,9.71,0,0,1,4.32,1,11,11,0,0,1,3.37,2.55,11.8,11.8,0,0,1,2.22,3.56,10.53,10.53,0,0,1,.81,4,11.49,11.49,0,0,1-.76,4.16,12.05,12.05,0,0,1-2.12,3.56,10.24,10.24,0,0,1-3.31,2.5,10,10,0,0,1-4.3.92h-6.66v10.59Zm7.58-17.2h6.2a2.94,2.94,0,0,0,2.31-1.16,5.15,5.15,0,0,0,1-3.37,5.91,5.91,0,0,0-.3-2,4.11,4.11,0,0,0-.81-1.39,3.14,3.14,0,0,0-1.16-.81,3.69,3.69,0,0,0-1.29-.25h-5.92Z" transform="translate(0 97.73)" fill="#1d1e2c"/><path d="M142.58,470.75a14.06,14.06,0,0,0-4.86.88,5.86,5.86,0,0,0-3.14,2.5v14.56h-7.4V464.42H134v4.9a10.2,10.2,0,0,1,3.21-3.84,7.37,7.37,0,0,1,4.18-1.43h.75a2.45,2.45,0,0,1,.46,0Z" transform="translate(0 97.73)" fill="#1d1e2c"/><path d="M156,489.15a14.08,14.08,0,0,1-5.52-1,11.88,11.88,0,0,1-4.1-2.75,11.5,11.5,0,0,1-2.52-4,13.89,13.89,0,0,1,0-9.57,11.5,11.5,0,0,1,2.52-4,12.38,12.38,0,0,1,4.1-2.78,15.12,15.12,0,0,1,11,0,12.35,12.35,0,0,1,4.07,2.78,11.87,11.87,0,0,1,2.55,4,13.37,13.37,0,0,1,.87,4.79,13.52,13.52,0,0,1-.85,4.78,11.5,11.5,0,0,1-2.52,4,11.93,11.93,0,0,1-4.09,2.75A14.16,14.16,0,0,1,156,489.15Zm-5.41-12.57a6.71,6.71,0,0,0,1.53,4.6,5,5,0,0,0,3.88,1.73,4.88,4.88,0,0,0,2.13-.46,4.94,4.94,0,0,0,1.68-1.3,6.14,6.14,0,0,0,1.14-2,7.81,7.81,0,0,0,.42-2.56,6.69,6.69,0,0,0-1.53-4.6,4.9,4.9,0,0,0-3.84-1.74,5.15,5.15,0,0,0-2.15.46,5.05,5.05,0,0,0-1.71,1.3,6.12,6.12,0,0,0-1.13,2A7.61,7.61,0,0,0,150.62,476.58Z" transform="translate(0 97.73)" fill="#1d1e2c"/><path d="M187.24,489.15a9.6,9.6,0,0,1-4.85-1.18,8.49,8.49,0,0,1-3.29-3.3v4h-6.42V454.94h7.4v13.45a8.88,8.88,0,0,1,3.21-3.26,9.83,9.83,0,0,1,9-.18,10.33,10.33,0,0,1,3.33,2.7,12.67,12.67,0,0,1,2.17,4.05,15.31,15.31,0,0,1,.79,5,13.9,13.9,0,0,1-.86,4.92,12.23,12.23,0,0,1-2.38,4,10.91,10.91,0,0,1-3.6,2.63A10.61,10.61,0,0,1,187.24,489.15Zm-2.08-6.24a5.54,5.54,0,0,0,2.36-.49,5.62,5.62,0,0,0,1.83-1.31,6.5,6.5,0,0,0,1.2-2,6.82,6.82,0,0,0,.44-2.47,7.38,7.38,0,0,0-.42-2.48,6.77,6.77,0,0,0-1.13-2.05,5.22,5.22,0,0,0-1.74-1.39,4.75,4.75,0,0,0-2.17-.51,4.93,4.93,0,0,0-3.21,1.2,8,8,0,0,0-2.24,3v5.09a5.78,5.78,0,0,0,2.14,2.47A5.41,5.41,0,0,0,185.16,482.91Z" transform="translate(0 97.73)" fill="#1d1e2c"/><path d="M202.18,454.94h7.39V480c0,1.85.79,2.78,2.36,2.78a5.61,5.61,0,0,0,1.22-.16,4.46,4.46,0,0,0,1.23-.49l1,5.55a14.58,14.58,0,0,1-3.19,1,17.29,17.29,0,0,1-3.37.36,6.73,6.73,0,0,1-4.9-1.66,6.41,6.41,0,0,1-1.71-4.81Z" transform="translate(0 97.73)" fill="#1d1e2c"/><path d="M229.36,489.15a14.42,14.42,0,0,1-5.48-1,12.07,12.07,0,0,1-4.11-2.71,11.53,11.53,0,0,1-2.57-3.95,12.68,12.68,0,0,1-.88-4.69,13.86,13.86,0,0,1,.88-5,12.35,12.35,0,0,1,2.54-4.1,12,12,0,0,1,4.09-2.77,14.2,14.2,0,0,1,5.53-1,13.94,13.94,0,0,1,5.5,1,12.13,12.13,0,0,1,4.07,2.75,11.7,11.7,0,0,1,2.52,4,13.38,13.38,0,0,1,.86,4.76c0,.44,0,.86-.05,1.28a9.25,9.25,0,0,1-.14,1.08H224.18a5,5,0,0,0,1.78,3.72,5.68,5.68,0,0,0,3.63,1.27,6.68,6.68,0,0,0,3.12-.78,4,4,0,0,0,2-2.13l6.29,1.76a11.24,11.24,0,0,1-4.44,4.67A13.78,13.78,0,0,1,229.36,489.15Zm5.13-14.89a5.57,5.57,0,0,0-1.66-3.65,5,5,0,0,0-3.56-1.34,5,5,0,0,0-3.58,1.36,5.65,5.65,0,0,0-1.65,3.63Z" transform="translate(0 97.73)" fill="#1d1e2c"/><path d="M284.06,488.69h-7.4V475.05a5.58,5.58,0,0,0-.88-3.49,2.8,2.8,0,0,0-2.27-1.09,3.77,3.77,0,0,0-1.5.33,4.82,4.82,0,0,0-1.41.9,7.49,7.49,0,0,0-1.18,1.36,7.58,7.58,0,0,0-.85,1.71v13.92h-7.4V475.05a5.52,5.52,0,0,0-.88-3.49,2.78,2.78,0,0,0-2.26-1.09,4.51,4.51,0,0,0-2.89,1.18,6.77,6.77,0,0,0-2.06,3.12v13.92h-7.4V464.42h6.66v4.06a8.8,8.8,0,0,1,3.63-3.37,11.7,11.7,0,0,1,5.34-1.16,8.81,8.81,0,0,1,2.66.37,6.5,6.5,0,0,1,2,1,5.29,5.29,0,0,1,1.34,1.5,6.34,6.34,0,0,1,.74,1.83,9.57,9.57,0,0,1,3.66-3.49,10.65,10.65,0,0,1,5.17-1.23,7.15,7.15,0,0,1,3.73.86,6.13,6.13,0,0,1,2.19,2.22,8.46,8.46,0,0,1,1,3,20.24,20.24,0,0,1,.26,3.14Z" transform="translate(0 97.73)" fill="#1d1e2c"/><path d="M320,465.48a4.57,4.57,0,0,0-1-.69,17.88,17.88,0,0,0-2.08-1.07,20.23,20.23,0,0,0-2.73-1,10.78,10.78,0,0,0-3-.41c-2.71,0-4.06.9-4.06,2.72a2.18,2.18,0,0,0,.43,1.39,3.94,3.94,0,0,0,1.3,1,10.82,10.82,0,0,0,2.15.81l3,.84a38.67,38.67,0,0,1,4.26,1.41,11.39,11.39,0,0,1,3.21,1.89,7.59,7.59,0,0,1,2,2.75,9.55,9.55,0,0,1,.72,3.89,9.65,9.65,0,0,1-1,4.69,8.77,8.77,0,0,1-2.75,3.1,11.85,11.85,0,0,1-3.93,1.71,19.86,19.86,0,0,1-4.58.53,25,25,0,0,1-3.7-.28,25.67,25.67,0,0,1-3.7-.81,28.81,28.81,0,0,1-3.48-1.27A19.14,19.14,0,0,1,298,485l3.33-6.61a7,7,0,0,0,1.21.88,17.16,17.16,0,0,0,2.52,1.29,25.6,25.6,0,0,0,3.35,1.16,14,14,0,0,0,3.74.51c2.68,0,4-.82,4-2.45a2.08,2.08,0,0,0-.61-1.53,5.75,5.75,0,0,0-1.66-1.09,19,19,0,0,0-2.52-.9l-3.17-.92a29.61,29.61,0,0,1-3.93-1.5,10.47,10.47,0,0,1-2.75-1.88,6.9,6.9,0,0,1-1.62-2.45,9.07,9.07,0,0,1-.53-3.23,10.39,10.39,0,0,1,1-4.58,9.88,9.88,0,0,1,2.64-3.35,11.37,11.37,0,0,1,3.86-2.06,15.37,15.37,0,0,1,4.64-.7,17.37,17.37,0,0,1,3.38.33,24.42,24.42,0,0,1,3.19.83,22.41,22.41,0,0,1,2.84,1.16q1.32.64,2.43,1.29Z" transform="translate(0 97.73)" fill="#1d1e2c"/><path d="M339.68,489.15a14.16,14.16,0,0,1-5.53-1,11.84,11.84,0,0,1-4.09-2.75,11.5,11.5,0,0,1-2.52-4,13.74,13.74,0,0,1,0-9.57,11.5,11.5,0,0,1,2.52-4,12.34,12.34,0,0,1,4.09-2.78,14,14,0,0,1,5.53-1,13.8,13.8,0,0,1,5.5,1,12.46,12.46,0,0,1,4.07,2.78,11.85,11.85,0,0,1,2.54,4,13.38,13.38,0,0,1,.88,4.79,13.53,13.53,0,0,1-.86,4.78,11.5,11.5,0,0,1-2.52,4,11.84,11.84,0,0,1-4.09,2.75A14.15,14.15,0,0,1,339.68,489.15Zm-5.41-12.57a6.7,6.7,0,0,0,1.52,4.6,5,5,0,0,0,3.89,1.73,4.81,4.81,0,0,0,2.12-.46,5.08,5.08,0,0,0,1.69-1.3,5.94,5.94,0,0,0,1.13-2,7.55,7.55,0,0,0,.42-2.56,6.69,6.69,0,0,0-1.53-4.6,4.86,4.86,0,0,0-3.83-1.74,5.15,5.15,0,0,0-2.15.46,4.87,4.87,0,0,0-1.71,1.3,6.14,6.14,0,0,0-1.14,2A7.87,7.87,0,0,0,334.27,476.58Z" transform="translate(0 97.73)" fill="#1d1e2c"/><path d="M356.23,454.94h7.4V480c0,1.85.78,2.78,2.36,2.78a5.77,5.77,0,0,0,1.22-.16,4.46,4.46,0,0,0,1.23-.49l1,5.55a14.49,14.49,0,0,1-3.18,1,17.38,17.38,0,0,1-3.38.36,6.73,6.73,0,0,1-4.9-1.66,6.41,6.41,0,0,1-1.71-4.81Z" transform="translate(0 97.73)" fill="#1d1e2c"/><path d="M377.59,488.69,369,464.42h7.63l5.32,18.35,5.36-18.35h6.89l-8.55,24.27Z" transform="translate(0 97.73)" fill="#1d1e2c"/><path d="M397,461.64v-6.7h7.4v6.7Zm0,27.05V464.42h7.4v24.27Z" transform="translate(0 97.73)" fill="#1d1e2c"/><path d="M432.88,488.69h-7.39V475.05a5.45,5.45,0,0,0-.9-3.49,3,3,0,0,0-2.38-1.09,4.07,4.07,0,0,0-1.58.33,6.14,6.14,0,0,0-1.52.9,6.82,6.82,0,0,0-1.32,1.36,6.67,6.67,0,0,0-.9,1.71v13.92h-7.4V464.42h6.66v4.06a8.91,8.91,0,0,1,3.79-3.35,12.92,12.92,0,0,1,5.64-1.18,7.33,7.33,0,0,1,3.79.86,6.06,6.06,0,0,1,2.22,2.22,8.46,8.46,0,0,1,1,3,20.2,20.2,0,0,1,.25,3.14Z" transform="translate(0 97.73)" fill="#1d1e2c"/><path d="M447.22,488.78a9.82,9.82,0,0,1-4.39-1,10.34,10.34,0,0,1-3.4-2.63,12.45,12.45,0,0,1-2.2-3.89,15.11,15.11,0,0,1,0-9.73,12.43,12.43,0,0,1,2.31-4,10.62,10.62,0,0,1,8.14-3.63,9.6,9.6,0,0,1,4.83,1.18,9.15,9.15,0,0,1,3.31,3.26v-4h6.42V487a11.56,11.56,0,0,1-1,5,10.81,10.81,0,0,1-2.89,3.77,13.16,13.16,0,0,1-4.43,2.38,18.71,18.71,0,0,1-5.69.83,16.34,16.34,0,0,1-6.71-1.25,14.16,14.16,0,0,1-4.85-3.61l4-4a9.76,9.76,0,0,0,3.33,2.43,10.24,10.24,0,0,0,4.26.9,8.48,8.48,0,0,0,2.54-.37,6.06,6.06,0,0,0,2.13-1.13,5.22,5.22,0,0,0,1.45-2,7.25,7.25,0,0,0,.53-2.94v-2.35a7.2,7.2,0,0,1-3.18,3.07A10,10,0,0,1,447.22,488.78Zm2.54-5.87a5.21,5.21,0,0,0,3.06-1,6.46,6.46,0,0,0,2.07-2.42v-5.09a6.65,6.65,0,0,0-2.26-3.08,5.39,5.39,0,0,0-3.24-1.13,4.6,4.6,0,0,0-2.19.53,5.39,5.39,0,0,0-1.71,1.44,6.59,6.59,0,0,0-1.11,2.08,7.63,7.63,0,0,0-.4,2.42,6.88,6.88,0,0,0,.44,2.48,6,6,0,0,0,1.23,2,5.5,5.5,0,0,0,4.11,1.76Z" transform="translate(0 97.73)" fill="#1d1e2c"/></g></g><rect x="503.93" y="110.59" width="463.12" height="30.72" rx="5" fill="#f7f7f7"/><g clip-path="url(#clip-path)"><rect x="503.48" width="483.73" height="476.14" rx="5" fill="#f7f7f7"/></g><rect x="503.93" y="334.85" width="463.12" height="30.72" rx="5" fill="#f7f7f7"/><g clip-path="url(#clip-path-2)"><rect x="503.48" y="224.26" width="483.73" height="476.14" rx="5" fill="#f7f7f7"/></g><rect x="503.93" y="445.42" width="463.12" height="30.72" rx="5" fill="#f7f7f7"/><g clip-path="url(#clip-path-3)"><rect x="503.48" y="334.83" width="483.73" height="476.14" rx="5" fill="#f7f7f7"/></g><g clip-path="url(#clip-path-4)"><rect x="503.48" y="110.59" width="483.73" height="476.14" rx="5" fill="url(#linear-gradient)"/></g><g clip-path="url(#clip-path-5)"><rect x="503.48" y="110.59" width="483.73" height="476.14" rx="5" fill="url(#linear-gradient)"/></g><g clip-path="url(#clip-path-6)"><rect x="502.99" y="110.59" width="484.49" height="476.14" rx="5" fill="url(#linear-gradient-3)"/></g><g clip-path="url(#clip-path-7)"><rect x="503.48" y="110.59" width="483.73" height="476.14" rx="5" fill="url(#linear-gradient)"/></g><g clip-path="url(#clip-path-8)"><rect x="503.48" y="110.59" width="483.73" height="476.14" rx="5" fill="url(#linear-gradient)"/></g></g></g></svg>