<?xml version="1.0" encoding="utf-8"?>
<!-- Generator: Adobe Illustrator 25.4.1, SVG Export Plug-In . SVG Version: 6.00 Build 0)  -->
<svg version="1.1" id="Layer_1" xmlns="http://www.w3.org/2000/svg" xmlns:xlink="http://www.w3.org/1999/xlink" x="0px" y="0px"
	 viewBox="0 0 150 90" style="enable-background:new 0 0 150 90;" xml:space="preserve">
<style type="text/css">
	.st0{opacity:0.75;clip-path:url(#SVGID_00000121264656586846561180000013388059345193036451_);}
	.st1{opacity:0.1;clip-path:url(#SVGID_00000121264656586846561180000013388059345193036451_);}
	.st2{clip-path:url(#SVGID_00000138545950877375690460000004926515149735642008_);}
	
		.st3{fill:none;stroke:url(#SVGID_00000161623903056466536960000004042030379060409508_);stroke-width:0.25;stroke-linecap:round;stroke-linejoin:round;}
	.st4{clip-path:url(#SVGID_00000063592755687041745190000003362419796646603198_);}
	
		.st5{fill:none;stroke:url(#SVGID_00000106107416590874173710000002299219032896038283_);stroke-width:0.25;stroke-linecap:round;stroke-linejoin:round;}
	.st6{clip-path:url(#SVGID_00000084528928790478658190000009781265517815505815_);}
	
		.st7{fill:none;stroke:url(#SVGID_00000123407613392724404490000015966511231219642503_);stroke-width:0.25;stroke-linecap:round;stroke-linejoin:round;}
	.st8{enable-background:new    ;}
	.st9{fill:#FFFFFF;}
</style>
<rect y="0" width="150" height="90"/>
<g>
	<defs>
		<rect id="SVGID_1_" y="0" width="150" height="90"/>
	</defs>
	<clipPath id="SVGID_00000142894115694545870600000006353777648354088113_">
		<use xlink:href="#SVGID_1_"  style="overflow:visible;"/>
	</clipPath>
	<g style="opacity:0.75;clip-path:url(#SVGID_00000142894115694545870600000006353777648354088113_);">
		
			<image style="overflow:visible;" width="321" height="271" xlink:href="E599B86B6AB26E9E.png"  transform="matrix(1 0 0 1 -64 -73)">
		</image>
	</g>
	<g style="opacity:0.1;clip-path:url(#SVGID_00000142894115694545870600000006353777648354088113_);">
		<g>
			<defs>
				<rect id="SVGID_00000086675410033923404540000007236262939514341778_" x="50.3" y="-34.3" width="50.9" height="151.9"/>
			</defs>
			<clipPath id="SVGID_00000080187201205015109200000009777184329949487531_">
				<use xlink:href="#SVGID_00000086675410033923404540000007236262939514341778_"  style="overflow:visible;"/>
			</clipPath>
			<g style="clip-path:url(#SVGID_00000080187201205015109200000009777184329949487531_);">
				
					<linearGradient id="SVGID_00000133491849189426401530000006187448161704683904_" gradientUnits="userSpaceOnUse" x1="3366.8325" y1="2859.1562" x2="3316.084" y2="2859.1562" gradientTransform="matrix(4.489700e-11 1 1 -4.489700e-11 -2783.4622 -3350.2156)">
					<stop  offset="0" style="stop-color:#D8EBFD"/>
					<stop  offset="1" style="stop-color:#D8EBFD;stop-opacity:0"/>
				</linearGradient>
				
					<path style="fill:none;stroke:url(#SVGID_00000133491849189426401530000006187448161704683904_);stroke-width:0.25;stroke-linecap:round;stroke-linejoin:round;" d="
					M92.6,100.6l-8.4-8.4H101L92.6,100.6z M92.6,100.6l8.4,8.4l-8.4,8.4l-8.4-8.4L92.6,100.6z M92.6,66.9l-8.4,8.4L92.6,66.9z
					 M92.6,66.9v16.8V66.9z M92.6,66.9c4.7,0,8.4,3.8,8.4,8.4c0,4.7-3.8,8.4-8.4,8.4V66.9z M92.6,66.9c0,8.6,0,11.6,0,16.8V66.9z
					 M84.2,75.4l8.4,8.4L84.2,75.4z M84.2,75.4l-8.4,8.4V66.9L84.2,75.4z M67.2,117.5l8.4-8.4l-8.4-8.4V117.5z M67.2,117.5v-16.8
					V117.5z M67.2,117.5H50.4v-16.8h16.9V117.5z M67.3,66.9c4.7,0,8.4-3.8,8.4-8.4c0-4.7-3.8-8.4-8.4-8.4
					C67.3,58.7,67.3,61.7,67.3,66.9z M67.3,66.9v8.4V66.9z M58.8,41.7c0,4.7-3.8,8.4-8.4,8.4c0-5.3,0-8.2,0-16.8L58.8,41.7z
					 M58.8,41.7c0-4.7-3.8-8.4-8.4-8.4L58.8,41.7z M58.8,41.7c0,4.7,3.8,8.4,8.4,8.4L58.8,41.7z M58.8,41.7c0-4.7,3.8-8.4,8.4-8.4
					L58.8,41.7z M50.4,33.2h16.9H50.4z M50.4,33.2V16.4h16.9L50.4,33.2z M75.7,100.6c4.7,0,8.4,3.8,8.4,8.4c0,4.7-3.8,8.4-8.4,8.4
					C75.7,112.2,75.7,109.3,75.7,100.6z M75.7,100.6c4.7,0,8.4-3.8,8.4-8.4c0-4.7-3.8-8.4-8.4-8.4c-4.7,0-8.4,3.8-8.4,8.4
					L75.7,100.6z M75.7,100.6c-4.7,0-8.4-3.8-8.4-8.4L75.7,100.6z M67.2,92.2l-8.4,8.4l-8.4-8.4l8.4-8.4L67.2,92.2z M67.3-17.3
					l8.4,8.4l8.4-8.4H67.3z M67.3-17.3h16.9H67.3z M67.3-17.3c4.7,0,8.4-3.8,8.4-8.4L67.3-17.3z M67.3-17.3c-4.7,0-8.4-3.8-8.4-8.4
					L67.3-17.3z M84.2-17.3v16.8H101L84.2-17.3z M84.2-17.3H101H84.2z M84.2-17.3l-8.4-8.4L84.2-17.3z M84.2-17.3l8.4-8.4L84.2-17.3
					z M84.1,16.4l-8.4,8.4l8.4,8.4V16.4L84.1,16.4z M84.1,16.4V8V16.4z M92.6-25.7l8.4-8.4v16.8L92.6-25.7z M92.6-25.7l8.4,8.4
					L92.6-25.7z M92.6-25.7l-8.4-8.4l-8.4,8.4H92.6z M101-17.3v16.8V-17.3z M101-0.4c-4.7,0-8.4,3.8-8.4,8.4s3.8,8.4,8.4,8.4
					C101,7.8,101,4.8,101-0.4z M67.2,33.2V16.4V33.2z M67.2,33.2c4.7,0,8.4,3.8,8.4,8.4s-3.8,8.4-8.4,8.4V33.2z M67.2,33.2h25.3
					H67.2z M67.2,16.4c4.7,0,8.4-3.8,8.4-8.4L67.2,16.4z M67.2,16.4c0-5.3,0-8.2,0-16.8c4.7,0,8.4,3.8,8.4,8.4L67.2,16.4z
					 M58.9-25.7c0,4.7-3.8,8.4-8.4,8.4c0-5.3,0-8.2,0-16.8C55.1-34.1,58.9-30.4,58.9-25.7z M58.9-25.7c0-4.7,3.8-8.4,8.4-8.4
					c4.7,0,8.4,3.8,8.4,8.4H58.9z M75.7,8h8.4H75.7z M92.6,33.2l-8.4-8.4l8.4-8.4l8.4,8.4L92.6,33.2z M92.6,33.2
					c4.7,0,8.4,3.8,8.4,8.4c0,4.7-3.8,8.4-8.4,8.4V33.2z M92.6,33.2c-4.7,0-8.4,3.8-8.4,8.4s3.8,8.4,8.4,8.4V33.2z M92.6,50.1H67.2
					H92.6z M84.1,8h8.4H84.1z M84.1,8l-6,6L84.1,8z M84.1,8l6-6L84.1,8z M84.1,8v-8.4V8z M84.1,8l-6-6L84.1,8z M84.1,8l6,6L84.1,8z
					 M58.9,75.4h8.4H58.9z M67.3,75.4h8.4H67.3z M67.3,75.4l-6,6L67.3,75.4z M67.3,75.4l6-6L67.3,75.4z M67.3,75.4v8.4V75.4z
					 M67.3,75.4l-6-6L67.3,75.4z M67.3,75.4l6,6L67.3,75.4z M101,50.1l-8.4,8.4l8.4,8.4V50.1z M84.2,83.8l8.4,8.4l8.4-8.4H84.2z
					 M75.7,66.9h16.9V50.1H75.7V66.9z M79.2,63.4h9.8v-9.8h-9.8V63.4z M53.9,114h9.8l0-9.8h-9.8V114z M50.4,83.8
					c4.7,0,8.4-3.8,8.4-8.4c0-4.7-3.8-8.4-8.4-8.4C50.4,75.6,50.4,78.5,50.4,83.8z M50.5,58.5l8.4,8.4l8.4-8.4l-8.4-8.4L50.5,58.5z
					 M67.3-8.9l8.4,8.4l8.4-8.4H67.3z M75.7,33.2l-8.4-8.4l8.4-8.4V33.2z M50.4-0.4h16.9v-16.8H50.4V-0.4z M54-4h9.8v-9.8H54V-4z
					 M87.7-4h9.8v-9.8h-9.8V-4z M53.9,29.7h9.8v-9.8h-9.8V29.7z M50.4,8l8.4,8.4L67.2,8l-8.4-8.4L50.4,8z"/>
			</g>
		</g>
	</g>
	<g style="opacity:0.1;clip-path:url(#SVGID_00000142894115694545870600000006353777648354088113_);">
		<g>
			<defs>
				<rect id="SVGID_00000129193282791653878180000010518998534262518181_" x="101.3" y="-26.3" width="50.9" height="151.9"/>
			</defs>
			<clipPath id="SVGID_00000141414157059069144480000012854937841526058379_">
				<use xlink:href="#SVGID_00000129193282791653878180000010518998534262518181_"  style="overflow:visible;"/>
			</clipPath>
			<g style="clip-path:url(#SVGID_00000141414157059069144480000012854937841526058379_);">
				
					<linearGradient id="SVGID_00000013896630026290128360000003213178199721543359_" gradientUnits="userSpaceOnUse" x1="3374.8325" y1="2910.1562" x2="3324.084" y2="2910.1562" gradientTransform="matrix(4.489700e-11 1 1 -4.489700e-11 -2783.4622 -3350.2156)">
					<stop  offset="0" style="stop-color:#D8EBFD"/>
					<stop  offset="1" style="stop-color:#D8EBFD;stop-opacity:0"/>
				</linearGradient>
				
					<path style="fill:none;stroke:url(#SVGID_00000013896630026290128360000003213178199721543359_);stroke-width:0.25;stroke-linecap:round;stroke-linejoin:round;" d="
					M143.6,108.6l-8.4-8.4H152L143.6,108.6z M143.6,108.6l8.4,8.4l-8.4,8.4l-8.4-8.4L143.6,108.6z M143.6,74.9l-8.4,8.4L143.6,74.9z
					 M143.6,74.9v16.8V74.9z M143.6,74.9c4.7,0,8.4,3.8,8.4,8.4c0,4.7-3.8,8.4-8.4,8.4V74.9z M143.6,74.9c0,8.6,0,11.6,0,16.8V74.9z
					 M135.2,83.4l8.4,8.4L135.2,83.4z M135.2,83.4l-8.4,8.4V74.9L135.2,83.4z M118.2,125.5l8.4-8.4l-8.4-8.4V125.5z M118.2,125.5
					v-16.8V125.5z M118.2,125.5h-16.9v-16.8h16.9V125.5z M118.3,74.9c4.7,0,8.4-3.8,8.4-8.4c0-4.7-3.8-8.4-8.4-8.4
					C118.3,66.7,118.3,69.7,118.3,74.9z M118.3,74.9v8.4V74.9z M109.8,49.7c0,4.7-3.8,8.4-8.4,8.4c0-5.3,0-8.2,0-16.8L109.8,49.7z
					 M109.8,49.7c0-4.7-3.8-8.4-8.4-8.4L109.8,49.7z M109.8,49.7c0,4.7,3.8,8.4,8.4,8.4L109.8,49.7z M109.8,49.7
					c0-4.7,3.8-8.4,8.4-8.4L109.8,49.7z M101.4,41.2h16.9H101.4z M101.4,41.2V24.4h16.9L101.4,41.2z M126.7,108.6
					c4.7,0,8.4,3.8,8.4,8.4c0,4.7-3.8,8.4-8.4,8.4C126.7,120.2,126.7,117.3,126.7,108.6z M126.7,108.6c4.7,0,8.4-3.8,8.4-8.4
					c0-4.7-3.8-8.4-8.4-8.4c-4.7,0-8.4,3.8-8.4,8.4L126.7,108.6z M126.7,108.6c-4.7,0-8.4-3.8-8.4-8.4L126.7,108.6z M118.2,100.2
					l-8.4,8.4l-8.4-8.4l8.4-8.4L118.2,100.2z M118.3-9.3l8.4,8.4l8.4-8.4H118.3z M118.3-9.3h16.9H118.3z M118.3-9.3
					c4.7,0,8.4-3.8,8.4-8.4L118.3-9.3z M118.3-9.3c-4.7,0-8.4-3.8-8.4-8.4L118.3-9.3z M135.2-9.3V7.6H152L135.2-9.3z M135.2-9.3H152
					H135.2z M135.2-9.3l-8.4-8.4L135.2-9.3z M135.2-9.3l8.4-8.4L135.2-9.3z M135.1,24.4l-8.4,8.4l8.4,8.4V24.4L135.1,24.4z
					 M135.1,24.4V16V24.4z M143.6-17.7l8.4-8.4v16.8L143.6-17.7z M143.6-17.7l8.4,8.4L143.6-17.7z M143.6-17.7l-8.4-8.4l-8.4,8.4
					H143.6z M152-9.3V7.6V-9.3z M152,7.6c-4.7,0-8.4,3.8-8.4,8.4s3.8,8.4,8.4,8.4C152,15.8,152,12.8,152,7.6z M118.2,41.2V24.4V41.2
					z M118.2,41.2c4.7,0,8.4,3.8,8.4,8.4s-3.8,8.4-8.4,8.4V41.2z M118.2,41.2h25.3H118.2z M118.2,24.4c4.7,0,8.4-3.8,8.4-8.4
					L118.2,24.4z M118.2,24.4c0-5.3,0-8.2,0-16.8c4.7,0,8.4,3.8,8.4,8.4L118.2,24.4z M109.9-17.7c0,4.7-3.8,8.4-8.4,8.4
					c0-5.3,0-8.2,0-16.8C106.1-26.1,109.9-22.4,109.9-17.7z M109.9-17.7c0-4.7,3.8-8.4,8.4-8.4c4.7,0,8.4,3.8,8.4,8.4H109.9z
					 M126.7,16h8.4H126.7z M143.6,41.2l-8.4-8.4l8.4-8.4l8.4,8.4L143.6,41.2z M143.6,41.2c4.7,0,8.4,3.8,8.4,8.4
					c0,4.7-3.8,8.4-8.4,8.4V41.2z M143.6,41.2c-4.7,0-8.4,3.8-8.4,8.4s3.8,8.4,8.4,8.4V41.2z M143.6,58.1h-25.3H143.6z M135.1,16
					h8.4H135.1z M135.1,16l-6,6L135.1,16z M135.1,16l6-6L135.1,16z M135.1,16V7.6V16z M135.1,16l-6-6L135.1,16z M135.1,16l6,6
					L135.1,16z M109.9,83.4h8.4H109.9z M118.3,83.4h8.4H118.3z M118.3,83.4l-6,6L118.3,83.4z M118.3,83.4l6-6L118.3,83.4z
					 M118.3,83.4v8.4V83.4z M118.3,83.4l-6-6L118.3,83.4z M118.3,83.4l6,6L118.3,83.4z M152,58.1l-8.4,8.4l8.4,8.4V58.1z
					 M135.2,91.8l8.4,8.4l8.4-8.4H135.2z M126.7,74.9h16.9V58.1h-16.9V74.9z M130.2,71.4h9.8v-9.8h-9.8V71.4z M104.9,122h9.8v-9.8
					h-9.8V122z M101.4,91.8c4.7,0,8.4-3.8,8.4-8.4c0-4.7-3.8-8.4-8.4-8.4C101.4,83.6,101.4,86.5,101.4,91.8z M101.5,66.5l8.4,8.4
					l8.4-8.4l-8.4-8.4L101.5,66.5z M118.3-0.9l8.4,8.4l8.4-8.4H118.3z M126.7,41.2l-8.4-8.4l8.4-8.4V41.2z M101.4,7.6h16.9V-9.3
					h-16.9V7.6z M105,4h9.8v-9.8H105V4z M138.7,4h9.8v-9.8h-9.8V4z M104.9,37.7h9.8v-9.8h-9.8V37.7z M101.4,16l8.4,8.4l8.4-8.4
					l-8.4-8.4L101.4,16z"/>
			</g>
		</g>
	</g>
	<g style="opacity:0.1;clip-path:url(#SVGID_00000142894115694545870600000006353777648354088113_);">
		<g>
			<defs>
				<rect id="SVGID_00000095299332347304723780000006925609615131407020_" x="-0.3" y="-34.3" width="50.9" height="151.9"/>
			</defs>
			<clipPath id="SVGID_00000100344297849335566140000004160994007095192720_">
				<use xlink:href="#SVGID_00000095299332347304723780000006925609615131407020_"  style="overflow:visible;"/>
			</clipPath>
			<g style="clip-path:url(#SVGID_00000100344297849335566140000004160994007095192720_);">
				
					<linearGradient id="SVGID_00000106829086628735656230000002457659016275344768_" gradientUnits="userSpaceOnUse" x1="-2814.5027" y1="3406.5627" x2="-2865.2515" y2="3406.5627" gradientTransform="matrix(0 -1 -1 0 3431.6584 -2747.7795)">
					<stop  offset="0" style="stop-color:#D8EBFD"/>
					<stop  offset="1" style="stop-color:#D8EBFD;stop-opacity:0"/>
				</linearGradient>
				
					<path style="fill:none;stroke:url(#SVGID_00000106829086628735656230000002457659016275344768_);stroke-width:0.25;stroke-linecap:round;stroke-linejoin:round;" d="
					M8.2-17.3l8.4,8.4H-0.2L8.2-17.3z M8.2-17.3l-8.4-8.4l8.4-8.4l8.4,8.4L8.2-17.3z M8.2,16.4L16.6,8L8.2,16.4z M8.2,16.4V-0.4
					V16.4z M8.2,16.4c-4.7,0-8.4-3.8-8.4-8.4c0-4.7,3.8-8.4,8.4-8.4V16.4z M8.2,16.4c0-8.6,0-11.6,0-16.8V16.4z M16.6,8L8.2-0.4
					L16.6,8z M16.6,8l8.4-8.4v16.8L16.6,8z M33.6-34.1l-8.4,8.4l8.4,8.4V-34.1z M33.6-34.1v16.8V-34.1z M33.6-34.1h16.9v16.8H33.6
					V-34.1z M33.5,16.4c-4.7,0-8.4,3.8-8.4,8.4c0,4.7,3.8,8.4,8.4,8.4C33.5,24.6,33.5,21.7,33.5,16.4z M33.5,16.4V8V16.4z M42,41.7
					c0-4.7,3.8-8.4,8.4-8.4c0,5.3,0,8.2,0,16.8L42,41.7z M42,41.7c0,4.7,3.8,8.4,8.4,8.4L42,41.7z M42,41.7c0-4.7-3.8-8.4-8.4-8.4
					L42,41.7z M42,41.7c0,4.7-3.8,8.4-8.4,8.4L42,41.7z M50.4,50.1H33.6H50.4z M50.4,50.1v16.8H33.6L50.4,50.1z M25.1-17.3
					c-4.7,0-8.4-3.8-8.4-8.4c0-4.7,3.8-8.4,8.4-8.4C25.1-28.9,25.1-25.9,25.1-17.3z M25.1-17.3c-4.7,0-8.4,3.8-8.4,8.4
					c0,4.7,3.8,8.4,8.4,8.4c4.7,0,8.4-3.8,8.4-8.4L25.1-17.3z M25.1-17.3c4.7,0,8.4,3.8,8.4,8.4L25.1-17.3z M33.6-8.9l8.4-8.4
					l8.4,8.4L42-0.4L33.6-8.9z M33.5,100.6l-8.4-8.4l-8.4,8.4H33.5z M33.5,100.6H16.6H33.5z M33.5,100.6c-4.7,0-8.4,3.8-8.4,8.4
					L33.5,100.6z M33.5,100.6c4.7,0,8.4,3.8,8.4,8.4L33.5,100.6z M16.6,100.6V83.8H-0.2L16.6,100.6z M16.6,100.6H-0.2H16.6z
					 M16.6,100.6l8.4,8.4L16.6,100.6z M16.6,100.6l-8.4,8.4L16.6,100.6z M16.7,66.9l8.4-8.4l-8.4-8.4V66.9L16.7,66.9z M16.7,66.9
					v8.4V66.9z M8.2,109.1l-8.4,8.4v-16.8L8.2,109.1z M8.2,109.1l-8.4-8.4L8.2,109.1z M8.2,109.1l8.4,8.4l8.4-8.4H8.2z M-0.2,100.6
					V83.8V100.6z M-0.2,83.8c4.7,0,8.4-3.8,8.4-8.4s-3.8-8.4-8.4-8.4C-0.2,75.6-0.2,78.5-0.2,83.8z M33.6,50.1v16.8V50.1z
					 M33.6,50.1c-4.7,0-8.4-3.8-8.4-8.4s3.8-8.4,8.4-8.4V50.1z M33.6,50.1H8.2H33.6z M33.6,66.9c-4.7,0-8.4,3.8-8.4,8.4L33.6,66.9z
					 M33.6,66.9c0,5.3,0,8.2,0,16.8c-4.7,0-8.4-3.8-8.4-8.4L33.6,66.9z M41.9,109.1c0-4.7,3.8-8.4,8.4-8.4c0,5.3,0,8.2,0,16.8
					C45.7,117.5,41.9,113.7,41.9,109.1z M41.9,109.1c0,4.7-3.8,8.4-8.4,8.4s-8.4-3.8-8.4-8.4H41.9z M25.1,75.4h-8.4H25.1z M8.2,50.1
					l8.4,8.4l-8.4,8.4l-8.4-8.4L8.2,50.1z M8.2,50.1c-4.7,0-8.4-3.8-8.4-8.4c0-4.7,3.8-8.4,8.4-8.4V50.1z M8.2,50.1
					c4.7,0,8.4-3.8,8.4-8.4s-3.8-8.4-8.4-8.4V50.1z M8.2,33.2h25.3H8.2z M16.7,75.4H8.3H16.7z M16.7,75.4l6-6L16.7,75.4z M16.7,75.4
					l-6,6L16.7,75.4z M16.7,75.4v8.4V75.4z M16.7,75.4l6,6L16.7,75.4z M16.7,75.4l-6-6L16.7,75.4z M41.9,8h-8.4H41.9z M33.5,8h-8.4
					H33.5z M33.5,8l6-6L33.5,8z M33.5,8l-6,6L33.5,8z M33.5,8v-8.4V8z M33.5,8l6,6L33.5,8z M33.5,8l-6-6L33.5,8z M-0.2,33.2l8.4-8.4
					l-8.4-8.4V33.2z M16.6-0.4L8.2-8.9l-8.4,8.4H16.6z M25.1,16.4H8.2v16.8h16.9V16.4z M21.6,19.9h-9.8v9.8h9.8V19.9z M46.9-30.6
					h-9.8v9.8h9.8V-30.6z M50.4-0.4C45.8-0.4,42,3.3,42,8c0,4.7,3.8,8.4,8.4,8.4C50.4,7.8,50.4,4.8,50.4-0.4z M50.3,24.8l-8.4-8.4
					l-8.4,8.4l8.4,8.4L50.3,24.8z M33.5,92.2l-8.4-8.4l-8.4,8.4H33.5z M25.1,50.1l8.4,8.4l-8.4,8.4V50.1z M50.3,83.8H33.5v16.8h16.9
					V83.8z M46.8,87.3H37v9.8h9.8V87.3z M13.1,87.3H3.3v9.8h9.8V87.3z M46.9,53.6h-9.8v9.8h9.8V53.6z M50.4,75.4L42,66.9l-8.4,8.4
					l8.4,8.4L50.4,75.4z"/>
			</g>
		</g>
	</g>
</g>
<g>
	<g class="st8">
		<path class="st9" d="M12.7,23.7l2.5,7.6l2.5-7.6h2.6l-4,10.7h-2.1L10,23.7H12.7z"/>
		<path class="st9" d="M23.9,34.5c-0.7,0-1.3-0.1-1.8-0.3c-0.5-0.2-1-0.5-1.3-0.9c-0.4-0.4-0.6-0.8-0.8-1.3c-0.2-0.5-0.3-1-0.3-1.5
			c0-0.6,0.1-1.1,0.3-1.6c0.2-0.5,0.5-1,0.8-1.3c0.4-0.4,0.8-0.7,1.3-0.9c0.5-0.2,1.1-0.3,1.8-0.3c0.7,0,1.3,0.1,1.8,0.3
			c0.5,0.2,1,0.5,1.3,0.9c0.4,0.4,0.6,0.8,0.8,1.3c0.2,0.5,0.3,1,0.3,1.6c0,0.1,0,0.3,0,0.4c0,0.1,0,0.3,0,0.4h-5.8
			c0,0.5,0.2,0.9,0.6,1.2c0.3,0.3,0.7,0.4,1.2,0.4c0.4,0,0.7-0.1,1-0.3c0.3-0.2,0.5-0.4,0.7-0.7l2,0.6c-0.3,0.6-0.8,1.1-1.4,1.5
			C25.6,34.3,24.8,34.5,23.9,34.5z M25.5,29.6c0-0.5-0.2-0.9-0.5-1.2c-0.3-0.3-0.7-0.4-1.2-0.4c-0.5,0-0.9,0.1-1.2,0.4
			c-0.3,0.3-0.5,0.7-0.5,1.2H25.5z"/>
		<path class="st9" d="M34.2,28.5c-0.6,0-1.1,0.1-1.6,0.3c-0.5,0.2-0.8,0.5-1,0.8v4.7h-2.4v-7.9h2.2V28c0.3-0.5,0.6-0.9,1-1.2
			c0.4-0.3,0.9-0.5,1.4-0.5c0.1,0,0.2,0,0.2,0c0,0,0.1,0,0.2,0V28.5z"/>
		<path class="st9" d="M38.3,34.5c-0.7,0-1.3-0.1-2-0.3c-0.7-0.2-1.2-0.5-1.7-0.9l0.9-1.5c0.5,0.3,1,0.6,1.4,0.8
			c0.5,0.2,0.9,0.3,1.3,0.3c0.3,0,0.6-0.1,0.7-0.2s0.3-0.3,0.3-0.5c0-0.2-0.1-0.4-0.3-0.5s-0.6-0.3-1.1-0.4c-0.5-0.2-1-0.3-1.3-0.4
			c-0.4-0.1-0.7-0.3-0.9-0.5c-0.2-0.2-0.4-0.4-0.5-0.6c-0.1-0.2-0.2-0.5-0.2-0.8c0-0.4,0.1-0.8,0.2-1.1c0.2-0.3,0.4-0.6,0.7-0.8
			c0.3-0.2,0.6-0.4,1-0.5c0.4-0.1,0.8-0.2,1.3-0.2c0.6,0,1.1,0.1,1.7,0.2c0.5,0.2,1,0.5,1.5,0.9l-0.9,1.4c-0.5-0.3-0.9-0.5-1.2-0.7
			c-0.4-0.1-0.7-0.2-1-0.2c-0.3,0-0.5,0.1-0.7,0.2c-0.2,0.1-0.3,0.3-0.3,0.5c0,0.2,0.1,0.4,0.3,0.5c0.2,0.1,0.6,0.2,1.1,0.4
			c0.6,0.2,1,0.3,1.4,0.5c0.4,0.2,0.7,0.3,0.9,0.5c0.2,0.2,0.4,0.4,0.5,0.6s0.2,0.5,0.2,0.9c0,0.8-0.3,1.4-0.9,1.9
			C40.1,34.3,39.3,34.5,38.3,34.5z"/>
		<path class="st9" d="M45,34.5c-0.4,0-0.8-0.1-1.1-0.2c-0.3-0.1-0.6-0.3-0.9-0.5c-0.2-0.2-0.4-0.5-0.6-0.8c-0.1-0.3-0.2-0.6-0.2-1
			c0-0.4,0.1-0.7,0.2-1.1c0.2-0.3,0.4-0.6,0.7-0.8c0.3-0.2,0.7-0.4,1.1-0.5c0.4-0.1,0.9-0.2,1.4-0.2c0.3,0,0.7,0,1,0.1
			c0.3,0.1,0.6,0.1,0.8,0.2v-0.4c0-0.9-0.5-1.4-1.6-1.4c-0.4,0-0.8,0.1-1.2,0.2c-0.4,0.1-0.8,0.4-1.2,0.7l-0.7-1.5
			c0.5-0.3,1.1-0.6,1.6-0.8c0.6-0.2,1.2-0.3,1.8-0.3c1.2,0,2.1,0.3,2.8,0.8s1,1.4,1,2.5v2c0,0.2,0,0.4,0.1,0.5
			c0.1,0.1,0.2,0.2,0.4,0.2v2c-0.2,0.1-0.4,0.1-0.6,0.1c-0.2,0-0.3,0-0.5,0c-0.5,0-0.8-0.1-1-0.3s-0.4-0.4-0.4-0.7l0-0.4
			c-0.4,0.5-0.8,0.8-1.3,1C46,34.4,45.5,34.5,45,34.5z M45.7,32.8c0.3,0,0.5,0,0.8-0.1s0.4-0.2,0.6-0.4c0.2-0.2,0.3-0.4,0.3-0.6
			v-0.8c-0.2-0.1-0.4-0.1-0.7-0.2c-0.2,0-0.5-0.1-0.7-0.1c-0.4,0-0.8,0.1-1.1,0.3c-0.3,0.2-0.4,0.5-0.4,0.8c0,0.3,0.1,0.5,0.3,0.7
			C45.1,32.7,45.3,32.8,45.7,32.8z"/>
		<path class="st9" d="M56.6,33.9c-0.3,0.1-0.7,0.3-1.1,0.4c-0.4,0.1-0.9,0.2-1.3,0.2c-0.3,0-0.6,0-0.9-0.1
			c-0.3-0.1-0.5-0.2-0.7-0.4c-0.2-0.2-0.4-0.4-0.5-0.7c-0.1-0.3-0.2-0.6-0.2-1v-4.1h-1v-1.8h1v-2.5h2.4v2.5H56v1.8h-1.6v3.3
			c0,0.3,0.1,0.4,0.2,0.6c0.1,0.1,0.3,0.2,0.5,0.2c0.2,0,0.4,0,0.6-0.1c0.2-0.1,0.4-0.1,0.5-0.2L56.6,33.9z"/>
		<path class="st9" d="M57.5,25.5v-2.2h2.4v2.2H57.5z M57.5,34.3v-7.9h2.4v7.9H57.5z"/>
		<path class="st9" d="M61.6,23.4H64v8.2c0,0.6,0.3,0.9,0.8,0.9c0.1,0,0.3,0,0.4-0.1c0.1,0,0.3-0.1,0.4-0.2l0.3,1.8
			c-0.3,0.1-0.6,0.3-1,0.3s-0.8,0.1-1.1,0.1c-0.7,0-1.2-0.2-1.6-0.5s-0.6-0.9-0.6-1.6V23.4z"/>
		<path class="st9" d="M66.6,25.5v-2.2H69v2.2H66.6z M66.6,34.3v-7.9H69v7.9H66.6z"/>
		<path class="st9" d="M75.8,33.9c-0.3,0.1-0.7,0.3-1.1,0.4c-0.4,0.1-0.9,0.2-1.3,0.2c-0.3,0-0.6,0-0.9-0.1
			c-0.3-0.1-0.5-0.2-0.7-0.4c-0.2-0.2-0.4-0.4-0.5-0.7c-0.1-0.3-0.2-0.6-0.2-1v-4.1h-1v-1.8h1v-2.5h2.4v2.5h1.6v1.8h-1.6v3.3
			c0,0.3,0.1,0.4,0.2,0.6c0.1,0.1,0.3,0.2,0.5,0.2c0.2,0,0.4,0,0.6-0.1c0.2-0.1,0.4-0.1,0.5-0.2L75.8,33.9z"/>
		<path class="st9" d="M76.8,35.5c0.2,0.1,0.4,0.1,0.6,0.2c0.2,0,0.3,0,0.5,0c0.3,0,0.5-0.1,0.7-0.3s0.3-0.6,0.4-1.1l-3-7.9h2.5
			l1.8,5.8l1.6-5.8h2.3l-3,9.2c-0.2,0.7-0.6,1.2-1.1,1.6c-0.5,0.4-1.2,0.6-1.9,0.6c-0.2,0-0.4,0-0.6-0.1s-0.4-0.1-0.6-0.2V35.5z"/>
		<path class="st9" d="M13.2,52.6c-0.4,0-0.8-0.1-1.1-0.2c-0.3-0.1-0.6-0.3-0.9-0.5c-0.2-0.2-0.4-0.5-0.6-0.8s-0.2-0.6-0.2-1
			c0-0.4,0.1-0.7,0.2-1.1c0.2-0.3,0.4-0.6,0.7-0.8s0.7-0.4,1.1-0.5c0.4-0.1,0.9-0.2,1.4-0.2c0.3,0,0.7,0,1,0.1
			c0.3,0.1,0.6,0.1,0.8,0.2v-0.4c0-0.9-0.5-1.4-1.6-1.4c-0.4,0-0.8,0.1-1.2,0.2c-0.4,0.1-0.8,0.4-1.2,0.7l-0.7-1.5
			c0.5-0.3,1.1-0.6,1.6-0.8c0.6-0.2,1.2-0.3,1.8-0.3c1.2,0,2.1,0.3,2.8,0.8s1,1.4,1,2.5v2c0,0.2,0,0.4,0.1,0.5s0.2,0.2,0.4,0.2v2
			c-0.2,0.1-0.4,0.1-0.6,0.1c-0.2,0-0.3,0-0.5,0c-0.5,0-0.8-0.1-1-0.3c-0.2-0.2-0.4-0.4-0.4-0.7l0-0.4c-0.4,0.5-0.8,0.8-1.3,1
			C14.2,52.4,13.7,52.6,13.2,52.6z M13.9,50.8c0.3,0,0.5,0,0.8-0.1s0.4-0.2,0.6-0.4c0.2-0.2,0.3-0.4,0.3-0.6V49
			c-0.2-0.1-0.4-0.1-0.7-0.2s-0.5-0.1-0.7-0.1c-0.4,0-0.8,0.1-1.1,0.3c-0.3,0.2-0.4,0.5-0.4,0.8c0,0.3,0.1,0.5,0.3,0.7
			C13.2,50.7,13.5,50.8,13.9,50.8z"/>
		<path class="st9" d="M24.8,52c-0.3,0.1-0.7,0.3-1.1,0.4s-0.9,0.2-1.3,0.2c-0.3,0-0.6,0-0.9-0.1c-0.3-0.1-0.5-0.2-0.7-0.4
			c-0.2-0.2-0.4-0.4-0.5-0.7c-0.1-0.3-0.2-0.6-0.2-1v-4.1h-1v-1.8h1V42h2.4v2.5h1.6v1.8h-1.6v3.3c0,0.3,0.1,0.4,0.2,0.6
			c0.1,0.1,0.3,0.2,0.5,0.2c0.2,0,0.4,0,0.6-0.1c0.2-0.1,0.4-0.1,0.5-0.2L24.8,52z"/>
		<path class="st9" d="M29.2,43.6v-2.2h2.4v2.2H29.2z M29.2,52.4v-7.9h2.4v7.9H29.2z"/>
		<path class="st9" d="M38.4,52c-0.3,0.1-0.7,0.3-1.1,0.4s-0.9,0.2-1.3,0.2c-0.3,0-0.6,0-0.9-0.1c-0.3-0.1-0.5-0.2-0.7-0.4
			c-0.2-0.2-0.4-0.4-0.5-0.7c-0.1-0.3-0.2-0.6-0.2-1v-4.1h-1v-1.8h1V42h2.4v2.5h1.6v1.8h-1.6v3.3c0,0.3,0.1,0.4,0.2,0.6
			c0.1,0.1,0.3,0.2,0.5,0.2c0.2,0,0.4,0,0.6-0.1c0.2-0.1,0.4-0.1,0.5-0.2L38.4,52z"/>
		<path class="st9" d="M42.5,52.6c-0.7,0-1.3-0.1-2-0.3c-0.7-0.2-1.2-0.5-1.7-0.9l0.9-1.5c0.5,0.3,1,0.6,1.4,0.8
			c0.5,0.2,0.9,0.3,1.3,0.3c0.3,0,0.6-0.1,0.7-0.2s0.3-0.3,0.3-0.5s-0.1-0.4-0.3-0.5c-0.2-0.1-0.6-0.3-1.1-0.4
			c-0.5-0.2-1-0.3-1.3-0.4s-0.7-0.3-0.9-0.5c-0.2-0.2-0.4-0.4-0.5-0.6C39.1,47.6,39,47.3,39,47c0-0.4,0.1-0.8,0.2-1.1
			c0.2-0.3,0.4-0.6,0.7-0.8c0.3-0.2,0.6-0.4,1-0.5c0.4-0.1,0.8-0.2,1.3-0.2c0.6,0,1.1,0.1,1.7,0.2c0.5,0.2,1,0.5,1.5,0.9l-0.9,1.4
			c-0.5-0.3-0.9-0.5-1.2-0.7c-0.4-0.1-0.7-0.2-1-0.2c-0.3,0-0.5,0.1-0.7,0.2c-0.2,0.1-0.3,0.3-0.3,0.5c0,0.2,0.1,0.4,0.3,0.5
			c0.2,0.1,0.6,0.2,1.1,0.4c0.6,0.2,1,0.3,1.4,0.5c0.4,0.2,0.7,0.3,0.9,0.5c0.2,0.2,0.4,0.4,0.5,0.6c0.1,0.2,0.2,0.5,0.2,0.9
			c0,0.8-0.3,1.4-0.9,1.9S43.5,52.6,42.5,52.6z"/>
		<path class="st9" d="M55.1,52.6c-0.6,0-1.1-0.1-1.6-0.4c-0.5-0.3-0.8-0.6-1.1-1.1v1.3h-2.1v-11h2.4v4.4c0.3-0.5,0.6-0.8,1-1.1
			c0.4-0.3,1-0.4,1.5-0.4c0.5,0,1,0.1,1.4,0.3c0.4,0.2,0.8,0.5,1.1,0.9c0.3,0.4,0.5,0.8,0.7,1.3c0.2,0.5,0.3,1,0.3,1.6
			c0,0.6-0.1,1.1-0.3,1.6c-0.2,0.5-0.4,0.9-0.8,1.3c-0.3,0.4-0.7,0.7-1.2,0.9C56.1,52.5,55.6,52.6,55.1,52.6z M54.4,50.5
			c0.3,0,0.5-0.1,0.8-0.2s0.4-0.2,0.6-0.4c0.2-0.2,0.3-0.4,0.4-0.6c0.1-0.2,0.1-0.5,0.1-0.8c0-0.3,0-0.5-0.1-0.8
			c-0.1-0.3-0.2-0.5-0.4-0.7c-0.2-0.2-0.3-0.3-0.6-0.5s-0.5-0.2-0.7-0.2c-0.4,0-0.7,0.1-1,0.4c-0.3,0.3-0.6,0.6-0.7,1v1.7
			c0.2,0.3,0.4,0.6,0.7,0.8C53.8,50.4,54.1,50.5,54.4,50.5z"/>
		<path class="st9" d="M63.8,52.6c-0.7,0-1.3-0.1-1.8-0.3c-0.5-0.2-1-0.5-1.3-0.9c-0.4-0.4-0.6-0.8-0.8-1.3c-0.2-0.5-0.3-1-0.3-1.5
			c0-0.6,0.1-1.1,0.3-1.6c0.2-0.5,0.5-1,0.8-1.3c0.4-0.4,0.8-0.7,1.3-0.9c0.5-0.2,1.1-0.3,1.8-0.3c0.7,0,1.3,0.1,1.8,0.3
			c0.5,0.2,1,0.5,1.3,0.9c0.4,0.4,0.6,0.8,0.8,1.3c0.2,0.5,0.3,1,0.3,1.5c0,0.1,0,0.3,0,0.4c0,0.1,0,0.3,0,0.4h-5.8
			c0,0.5,0.2,0.9,0.6,1.2c0.3,0.3,0.7,0.4,1.2,0.4c0.4,0,0.7-0.1,1-0.3c0.3-0.2,0.5-0.4,0.7-0.7l2,0.6c-0.3,0.6-0.8,1.1-1.4,1.5
			C65.5,52.4,64.7,52.6,63.8,52.6z M65.4,47.7c0-0.5-0.2-0.9-0.5-1.2c-0.3-0.3-0.7-0.4-1.2-0.4c-0.5,0-0.9,0.1-1.2,0.4
			c-0.3,0.3-0.5,0.7-0.5,1.2H65.4z"/>
		<path class="st9" d="M72.2,52.6c-0.7,0-1.3-0.1-2-0.3c-0.7-0.2-1.2-0.5-1.7-0.9l0.9-1.5c0.5,0.3,1,0.6,1.4,0.8
			c0.5,0.2,0.9,0.3,1.3,0.3c0.3,0,0.6-0.1,0.7-0.2s0.3-0.3,0.3-0.5s-0.1-0.4-0.3-0.5c-0.2-0.1-0.6-0.3-1.1-0.4
			c-0.5-0.2-1-0.3-1.3-0.4s-0.7-0.3-0.9-0.5c-0.2-0.2-0.4-0.4-0.5-0.6c-0.1-0.2-0.2-0.5-0.2-0.8c0-0.4,0.1-0.8,0.2-1.1
			c0.2-0.3,0.4-0.6,0.7-0.8c0.3-0.2,0.6-0.4,1-0.5c0.4-0.1,0.8-0.2,1.3-0.2c0.6,0,1.1,0.1,1.7,0.2c0.5,0.2,1,0.5,1.5,0.9l-0.9,1.4
			c-0.5-0.3-0.9-0.5-1.2-0.7c-0.4-0.1-0.7-0.2-1-0.2c-0.3,0-0.5,0.1-0.7,0.2c-0.2,0.1-0.3,0.3-0.3,0.5c0,0.2,0.1,0.4,0.3,0.5
			c0.2,0.1,0.6,0.2,1.1,0.4c0.6,0.2,1,0.3,1.4,0.5c0.4,0.2,0.7,0.3,0.9,0.5c0.2,0.2,0.4,0.4,0.5,0.6c0.1,0.2,0.2,0.5,0.2,0.9
			c0,0.8-0.3,1.4-0.9,1.9S73.2,52.6,72.2,52.6z"/>
		<path class="st9" d="M81.7,52c-0.3,0.1-0.7,0.3-1.1,0.4c-0.4,0.1-0.9,0.2-1.3,0.2c-0.3,0-0.6,0-0.8-0.1c-0.3-0.1-0.5-0.2-0.7-0.4
			c-0.2-0.2-0.4-0.4-0.5-0.7c-0.1-0.3-0.2-0.6-0.2-1v-4.1h-1v-1.8h1V42h2.4v2.5h1.6v1.8h-1.6v3.3c0,0.3,0.1,0.4,0.2,0.6
			c0.1,0.1,0.3,0.2,0.5,0.2c0.2,0,0.4,0,0.6-0.1c0.2-0.1,0.4-0.1,0.5-0.2L81.7,52z"/>
	</g>
</g>
<g>
	<g class="st8">
		<path class="st9" d="M16,16c0,0.3-0.1,0.5-0.2,0.7c-0.1,0.2-0.3,0.4-0.4,0.5c-0.2,0.1-0.4,0.3-0.6,0.3s-0.5,0.1-0.8,0.1h-3.2v-6.6
			h3.4c0.2,0,0.4,0,0.6,0.1c0.2,0.1,0.3,0.2,0.5,0.4c0.1,0.2,0.2,0.3,0.3,0.5s0.1,0.4,0.1,0.6c0,0.3-0.1,0.6-0.2,0.9
			s-0.4,0.5-0.7,0.6c0.4,0.1,0.7,0.3,0.9,0.6C15.9,15.2,16,15.6,16,16z M11.9,12V14h1.9c0.1,0,0.2,0,0.4-0.1s0.2-0.1,0.3-0.2
			c0.1-0.1,0.1-0.2,0.2-0.3c0-0.1,0.1-0.2,0.1-0.4c0-0.3-0.1-0.5-0.2-0.7c-0.2-0.2-0.4-0.3-0.6-0.3H11.9z M15,15.8
			c0-0.1,0-0.3-0.1-0.4c0-0.1-0.1-0.2-0.2-0.3c-0.1-0.1-0.2-0.2-0.3-0.2c-0.1-0.1-0.2-0.1-0.4-0.1h-2.2v2H14c0.1,0,0.3,0,0.4-0.1
			c0.1-0.1,0.2-0.1,0.3-0.2s0.2-0.2,0.2-0.3S15,16,15,15.8z"/>
		<path class="st9" d="M17,10.9h1v5.4c0,0.2,0,0.3,0.1,0.4c0.1,0.1,0.2,0.2,0.4,0.2c0.1,0,0.1,0,0.2,0c0.1,0,0.2-0.1,0.3-0.1
			l0.1,0.8c-0.1,0.1-0.3,0.1-0.5,0.2c-0.2,0-0.4,0.1-0.5,0.1c-0.4,0-0.6-0.1-0.8-0.3S17,17,17,16.7V10.9z"/>
		<path class="st9" d="M22,17.8c-0.4,0-0.7-0.1-1-0.2c-0.3-0.1-0.6-0.3-0.8-0.5c-0.2-0.2-0.4-0.5-0.5-0.8c-0.1-0.3-0.2-0.6-0.2-1
			c0-0.3,0.1-0.7,0.2-1c0.1-0.3,0.3-0.6,0.5-0.8c0.2-0.2,0.5-0.4,0.8-0.5c0.3-0.1,0.6-0.2,1-0.2c0.4,0,0.7,0.1,1,0.2
			c0.3,0.1,0.6,0.3,0.8,0.5c0.2,0.2,0.4,0.5,0.5,0.8c0.1,0.3,0.2,0.6,0.2,1c0,0.3-0.1,0.7-0.2,1c-0.1,0.3-0.3,0.6-0.5,0.8
			c-0.2,0.2-0.5,0.4-0.8,0.5C22.7,17.7,22.3,17.8,22,17.8z M20.5,15.3c0,0.2,0,0.5,0.1,0.7c0.1,0.2,0.2,0.4,0.3,0.5
			c0.1,0.1,0.3,0.3,0.5,0.3c0.2,0.1,0.4,0.1,0.6,0.1c0.2,0,0.4,0,0.6-0.1c0.2-0.1,0.3-0.2,0.5-0.3c0.1-0.1,0.2-0.3,0.3-0.5
			c0.1-0.2,0.1-0.4,0.1-0.7c0-0.2,0-0.4-0.1-0.6c-0.1-0.2-0.2-0.4-0.3-0.5c-0.1-0.1-0.3-0.3-0.5-0.3c-0.2-0.1-0.4-0.1-0.6-0.1
			c-0.2,0-0.4,0-0.6,0.1s-0.3,0.2-0.5,0.4c-0.1,0.1-0.2,0.3-0.3,0.5C20.6,14.9,20.5,15.1,20.5,15.3z"/>
		<path class="st9" d="M25.1,15.3c0-0.3,0.1-0.7,0.2-1c0.1-0.3,0.3-0.6,0.5-0.8c0.2-0.2,0.5-0.4,0.8-0.5c0.3-0.1,0.7-0.2,1-0.2
			c0.5,0,0.9,0.1,1.3,0.3c0.4,0.2,0.6,0.5,0.8,0.9l-1,0.3c-0.1-0.2-0.3-0.4-0.5-0.5c-0.2-0.1-0.4-0.2-0.7-0.2c-0.2,0-0.4,0-0.6,0.1
			s-0.3,0.2-0.5,0.3c-0.1,0.1-0.2,0.3-0.3,0.5c-0.1,0.2-0.1,0.4-0.1,0.7c0,0.2,0,0.5,0.1,0.7c0.1,0.2,0.2,0.4,0.3,0.5
			c0.1,0.1,0.3,0.3,0.5,0.3c0.2,0.1,0.4,0.1,0.6,0.1c0.1,0,0.2,0,0.4-0.1s0.2-0.1,0.3-0.1c0.1-0.1,0.2-0.1,0.3-0.2
			c0.1-0.1,0.1-0.2,0.2-0.3l1,0.3c-0.2,0.4-0.4,0.7-0.8,0.9s-0.8,0.3-1.3,0.3c-0.4,0-0.7-0.1-1-0.2c-0.3-0.1-0.6-0.3-0.8-0.6
			c-0.2-0.2-0.4-0.5-0.5-0.8C25.1,15.9,25.1,15.6,25.1,15.3z"/>
		<path class="st9" d="M34,17.7l-1.6-2.2l-0.8,0.8v1.5h-1v-6.8h1v4.3l2.2-2.4H35l-1.9,2l2,2.8H34z"/>
		<path class="st9" d="M35.1,15.3c0-0.3,0.1-0.7,0.2-1c0.1-0.3,0.3-0.6,0.5-0.8c0.2-0.2,0.5-0.4,0.8-0.5c0.3-0.1,0.7-0.2,1-0.2
			c0.5,0,0.9,0.1,1.3,0.3c0.4,0.2,0.6,0.5,0.8,0.9l-1,0.3c-0.1-0.2-0.3-0.4-0.5-0.5c-0.2-0.1-0.4-0.2-0.7-0.2c-0.2,0-0.4,0-0.6,0.1
			s-0.3,0.2-0.5,0.3c-0.1,0.1-0.2,0.3-0.3,0.5c-0.1,0.2-0.1,0.4-0.1,0.7c0,0.2,0,0.5,0.1,0.7c0.1,0.2,0.2,0.4,0.3,0.5
			c0.1,0.1,0.3,0.3,0.5,0.3c0.2,0.1,0.4,0.1,0.6,0.1c0.1,0,0.2,0,0.4-0.1s0.2-0.1,0.3-0.1c0.1-0.1,0.2-0.1,0.3-0.2
			c0.1-0.1,0.1-0.2,0.2-0.3l1,0.3c-0.2,0.4-0.4,0.7-0.8,0.9s-0.8,0.3-1.3,0.3c-0.4,0-0.7-0.1-1-0.2c-0.3-0.1-0.6-0.3-0.8-0.6
			c-0.2-0.2-0.4-0.5-0.5-0.8C35.2,15.9,35.1,15.6,35.1,15.3z"/>
		<path class="st9" d="M45,17.7h-1V15c0-0.4-0.1-0.8-0.2-1c-0.2-0.2-0.4-0.3-0.7-0.3c-0.1,0-0.3,0-0.4,0.1s-0.3,0.1-0.4,0.2
			s-0.2,0.2-0.3,0.4s-0.2,0.3-0.2,0.5v2.9h-1v-6.8h1v2.9c0.2-0.3,0.4-0.6,0.8-0.8s0.7-0.3,1-0.3c0.3,0,0.6,0.1,0.7,0.2
			s0.4,0.3,0.5,0.4c0.1,0.2,0.2,0.4,0.2,0.6c0,0.2,0.1,0.5,0.1,0.8V17.7z"/>
		<path class="st9" d="M47.5,17.8c-0.2,0-0.5,0-0.7-0.1c-0.2-0.1-0.4-0.2-0.5-0.3c-0.1-0.1-0.3-0.3-0.3-0.5
			c-0.1-0.2-0.1-0.4-0.1-0.6c0-0.2,0-0.4,0.1-0.6s0.2-0.3,0.4-0.5c0.2-0.1,0.4-0.2,0.7-0.3c0.3-0.1,0.5-0.1,0.8-0.1
			c0.2,0,0.5,0,0.7,0.1c0.2,0,0.4,0.1,0.6,0.2v-0.3c0-0.4-0.1-0.6-0.3-0.8c-0.2-0.2-0.5-0.3-0.9-0.3c-0.3,0-0.5,0-0.8,0.1
			s-0.5,0.2-0.8,0.4l-0.3-0.7c0.6-0.4,1.3-0.6,2-0.6c0.7,0,1.2,0.2,1.6,0.5c0.4,0.3,0.6,0.8,0.6,1.5v1.8c0,0.2,0.1,0.3,0.3,0.3v0.9
			c-0.1,0-0.2,0-0.3,0s-0.1,0-0.2,0c-0.2,0-0.4,0-0.5-0.1c-0.1-0.1-0.2-0.2-0.2-0.4l0-0.3c-0.2,0.3-0.5,0.5-0.8,0.7
			S47.8,17.8,47.5,17.8z M47.8,17.1c0.2,0,0.5,0,0.7-0.1c0.2-0.1,0.4-0.2,0.5-0.4c0.1-0.1,0.2-0.2,0.2-0.4v-0.6
			c-0.2-0.1-0.4-0.1-0.6-0.2s-0.4-0.1-0.6-0.1c-0.4,0-0.7,0.1-0.9,0.2c-0.2,0.2-0.3,0.4-0.3,0.6c0,0.2,0.1,0.4,0.3,0.6
			C47.2,17,47.5,17.1,47.8,17.1z"/>
		<path class="st9" d="M51.4,12.1v-1.1h1v1.1H51.4z M51.4,17.7v-4.9h1v4.9H51.4z"/>
		<path class="st9" d="M58,17.7h-1V15c0-0.5-0.1-0.8-0.2-1c-0.1-0.2-0.4-0.3-0.6-0.3c-0.1,0-0.3,0-0.4,0.1c-0.1,0.1-0.3,0.1-0.4,0.2
			c-0.1,0.1-0.2,0.2-0.3,0.4c-0.1,0.1-0.2,0.3-0.2,0.5v2.9h-1v-4.9h0.9v1c0.2-0.3,0.5-0.6,0.8-0.8c0.4-0.2,0.7-0.3,1.2-0.3
			c0.3,0,0.5,0.1,0.7,0.2c0.2,0.1,0.3,0.2,0.4,0.4c0.1,0.2,0.2,0.4,0.2,0.6c0,0.2,0.1,0.5,0.1,0.8V17.7z"/>
		<path class="st9" d="M59.2,17.7v-1.2H60v1.2H59.2z"/>
		<path class="st9" d="M60.9,15.3c0-0.3,0.1-0.7,0.2-1c0.1-0.3,0.3-0.6,0.5-0.8c0.2-0.2,0.5-0.4,0.8-0.5c0.3-0.1,0.7-0.2,1-0.2
			c0.5,0,0.9,0.1,1.3,0.3c0.4,0.2,0.6,0.5,0.8,0.9l-1,0.3c-0.1-0.2-0.3-0.4-0.5-0.5c-0.2-0.1-0.4-0.2-0.7-0.2c-0.2,0-0.4,0-0.6,0.1
			s-0.3,0.2-0.5,0.3c-0.1,0.1-0.2,0.3-0.3,0.5C62,14.8,62,15,62,15.3c0,0.2,0,0.5,0.1,0.7c0.1,0.2,0.2,0.4,0.3,0.5
			c0.1,0.1,0.3,0.3,0.5,0.3c0.2,0.1,0.4,0.1,0.6,0.1c0.1,0,0.2,0,0.4-0.1s0.2-0.1,0.3-0.1c0.1-0.1,0.2-0.1,0.3-0.2
			c0.1-0.1,0.1-0.2,0.2-0.3l1,0.3c-0.2,0.4-0.4,0.7-0.8,0.9s-0.8,0.3-1.3,0.3c-0.4,0-0.7-0.1-1-0.2c-0.3-0.1-0.6-0.3-0.8-0.6
			c-0.2-0.2-0.4-0.5-0.5-0.8C61,15.9,60.9,15.6,60.9,15.3z"/>
		<path class="st9" d="M68.6,17.8c-0.4,0-0.7-0.1-1-0.2c-0.3-0.1-0.6-0.3-0.8-0.5c-0.2-0.2-0.4-0.5-0.5-0.8c-0.1-0.3-0.2-0.6-0.2-1
			c0-0.3,0.1-0.7,0.2-1c0.1-0.3,0.3-0.6,0.5-0.8c0.2-0.2,0.5-0.4,0.8-0.5c0.3-0.1,0.6-0.2,1-0.2c0.4,0,0.7,0.1,1,0.2
			c0.3,0.1,0.6,0.3,0.8,0.5c0.2,0.2,0.4,0.5,0.5,0.8c0.1,0.3,0.2,0.6,0.2,1c0,0.3-0.1,0.7-0.2,1c-0.1,0.3-0.3,0.6-0.5,0.8
			c-0.2,0.2-0.5,0.4-0.8,0.5C69.3,17.7,68.9,17.8,68.6,17.8z M67.1,15.3c0,0.2,0,0.5,0.1,0.7c0.1,0.2,0.2,0.4,0.3,0.5
			c0.1,0.1,0.3,0.3,0.5,0.3c0.2,0.1,0.4,0.1,0.6,0.1c0.2,0,0.4,0,0.6-0.1c0.2-0.1,0.3-0.2,0.5-0.3c0.1-0.1,0.2-0.3,0.3-0.5
			c0.1-0.2,0.1-0.4,0.1-0.7c0-0.2,0-0.4-0.1-0.6c-0.1-0.2-0.2-0.4-0.3-0.5c-0.1-0.1-0.3-0.3-0.5-0.3c-0.2-0.1-0.4-0.1-0.6-0.1
			c-0.2,0-0.4,0-0.6,0.1s-0.3,0.2-0.5,0.4c-0.1,0.1-0.2,0.3-0.3,0.5C67.1,14.9,67.1,15.1,67.1,15.3z"/>
		<path class="st9" d="M79.4,17.7h-1V15c0-0.5-0.1-0.8-0.2-1c-0.2-0.2-0.4-0.3-0.7-0.3c-0.3,0-0.6,0.1-0.8,0.3s-0.4,0.5-0.5,0.8v2.9
			h-1V15c0-0.5-0.1-0.8-0.2-1c-0.1-0.2-0.4-0.3-0.6-0.3c-0.3,0-0.6,0.1-0.8,0.3c-0.2,0.2-0.4,0.5-0.5,0.8v2.9h-1v-4.9h0.9v1
			c0.2-0.3,0.4-0.6,0.8-0.8c0.3-0.2,0.7-0.3,1.1-0.3s0.7,0.1,1,0.3c0.2,0.2,0.4,0.5,0.4,0.8c0.2-0.4,0.5-0.6,0.8-0.8
			c0.3-0.2,0.7-0.3,1.1-0.3c0.3,0,0.5,0.1,0.7,0.2c0.2,0.1,0.3,0.3,0.5,0.4c0.1,0.2,0.2,0.4,0.2,0.6c0,0.2,0.1,0.5,0.1,0.8V17.7z"/>
	</g>
</g>
<path class="st9" d="M21.6,55.8"/>
<path class="st9" d="M58.2-2.6"/>
</svg>
