<svg xmlns="http://www.w3.org/2000/svg" viewBox="0 0 150 90"><g id="Layer_2" data-name="Layer 2"><g id="Layer_1-2" data-name="Layer 1"><rect width="150" height="90" fill="#fff"/><path d="M70.88,83a10.38,10.38,0,1,0-10.4-10.38A10.4,10.4,0,0,0,70.88,83Z" fill="#4360df" fill-rule="evenodd"/><path d="M71,72.38a10.47,10.47,0,0,0,1.73.08c1.78-.1,2.85-1,2.78-2.38a2.61,2.61,0,0,0-3-2.15,4.74,4.74,0,0,0-4.25,4.51,6.45,6.45,0,0,1,1-.13A10.36,10.36,0,0,1,71,72.38Zm-4.58,3a2.47,2.47,0,0,0,2.79,2,4.42,4.42,0,0,0,4-4.14,4.83,4.83,0,0,1-.92.12,9.39,9.39,0,0,1-1.63-.06,8.48,8.48,0,0,0-1.63-.07C67.36,73.33,66.34,74.16,66.41,75.41Z" fill="#fff" fill-rule="evenodd"/><path d="M126.47,87a6.25,6.25,0,1,0-6.26-6.25A6.25,6.25,0,0,0,126.47,87Z" fill="#090909" fill-rule="evenodd"/><path d="M126.53,80.61a5.71,5.71,0,0,0,1,0c1.07-.06,1.72-.61,1.67-1.43a1.57,1.57,0,0,0-1.77-1.3,2.87,2.87,0,0,0-2.56,2.72,4.17,4.17,0,0,1,.59-.08A6.72,6.72,0,0,1,126.53,80.61Zm-2.75,1.83a1.48,1.48,0,0,0,1.68,1.19,2.65,2.65,0,0,0,2.42-2.49,3.45,3.45,0,0,1-.55.07,6.19,6.19,0,0,1-1,0,6,6,0,0,0-1,0C124.35,81.18,123.73,81.69,123.78,82.44Z" fill="#fff" fill-rule="evenodd"/><g opacity="0.4"><path d="M149.75,65a8,8,0,1,1,0-16.08H150V0H0V90H150V65Z" fill="none"/><path d="M142,57a7.75,7.75,0,0,0,7.75,7.73l.25,0V49.27h-.25A7.75,7.75,0,0,0,142,57Z" fill="none"/><path d="M141.68,57a8.07,8.07,0,0,0,8.07,8l.25,0V64.7l-.25,0a7.73,7.73,0,1,1,0-15.46H150V49h-.25A8.06,8.06,0,0,0,141.68,57Z" fill="#bbbfc5"/></g><g opacity="0.6"><path d="M149.75,62.77a5.78,5.78,0,1,1,0-11.55H150V0H0V90H150V62.75Z" fill="none"/><path d="M144.27,57a5.49,5.49,0,0,0,5.48,5.47l.25,0V51.54h-.25A5.48,5.48,0,0,0,144.27,57Z" fill="none"/><path d="M144,57a5.79,5.79,0,0,0,5.79,5.78l.25,0v-.31l-.25,0a5.47,5.47,0,1,1,0-10.93H150v-.31h-.25A5.79,5.79,0,0,0,144,57Z" fill="#bbbfc5"/></g><path d="M149.75,60.11a3.12,3.12,0,1,1,0-6.24l.25,0V0H0V90H150V60.09Z" fill="none"/><path d="M146.62,57a3.12,3.12,0,0,0,3.13,3.12l.25,0v-6.2l-.25,0A3.13,3.13,0,0,0,146.62,57Z" fill="#9da4ae"/><path d="M149.24,58.43a.74.74,0,0,1-.84-.6c0-.37.29-.62.8-.65a3.78,3.78,0,0,1,.49,0H150v-.28h-.22a4.18,4.18,0,0,0-.52,0l-.29,0a1.44,1.44,0,0,1,1-1.29V0H0V90H150V58.09A1.22,1.22,0,0,1,149.24,58.43Z" fill="none"/><path d="M149.2,57.18c-.51,0-.82.28-.8.65a.74.74,0,0,0,.84.6,1.22,1.22,0,0,0,.76-.34v-.88h-.31A3.78,3.78,0,0,0,149.2,57.18Z" fill="#fff"/><path d="M149,56.94l.29,0a4.18,4.18,0,0,1,.52,0H150V55.65A1.44,1.44,0,0,0,149,56.94Z" fill="#fff"/><g opacity="0.4" style="isolation:isolate"><path d="M25.06,71.15a19,19,0,1,1,19.08-19A19.08,19.08,0,0,1,25.06,71.15Zm0-37.75A18.72,18.72,0,1,0,43.83,52.11,18.76,18.76,0,0,0,25.06,33.4Z" fill="#bbbfc5"/></g><g opacity="0.6" style="isolation:isolate"><path d="M25.06,65.73A13.62,13.62,0,1,1,38.71,52.11,13.65,13.65,0,0,1,25.06,65.73Zm0-26.91A13.3,13.3,0,1,0,38.4,52.11,13.33,13.33,0,0,0,25.06,38.82Z" fill="#bbbfc5"/></g><path d="M25.06,59.59a7.48,7.48,0,1,0-7.5-7.48A7.49,7.49,0,0,0,25.06,59.59Z" fill="#bbbfc5" fill-rule="evenodd"/><path d="M25.14,52a7,7,0,0,0,1.24,0c1.28-.07,2.06-.72,2-1.71a1.88,1.88,0,0,0-2.12-1.55A3.42,3.42,0,0,0,23.2,52a4.19,4.19,0,0,1,.7-.09A7,7,0,0,1,25.14,52Zm-3.3,2.18a1.77,1.77,0,0,0,2,1.43,3.19,3.19,0,0,0,2.9-3,3.87,3.87,0,0,1-.66.09,6.34,6.34,0,0,1-1.18,0,7.36,7.36,0,0,0-1.18,0C22.52,52.63,21.79,53.23,21.84,54.13Z" fill="#fff" fill-rule="evenodd"/><g opacity="0.2"><path d="M0,69.21V90H9.61a13,13,0,0,0,2.6-7.77A13.09,13.09,0,0,0,0,69.21Z" fill="none"/><path d="M0,0V68.9A13.4,13.4,0,0,1,12.52,82.23,13.24,13.24,0,0,1,10,90H150V0Z" fill="none"/><path d="M0,68.9v.31a13.09,13.09,0,0,1,12.21,13A13,13,0,0,1,9.61,90H10a13.24,13.24,0,0,0,2.52-7.77A13.4,13.4,0,0,0,0,68.9Z" fill="#090909"/></g><g opacity="0.4"><path d="M8.36,82.18A9.3,9.3,0,0,0,0,73V90H4.06A9.27,9.27,0,0,0,8.36,82.18Z" fill="none"/><path d="M0,0V72.64a9.61,9.61,0,0,1,8.68,9.54A9.56,9.56,0,0,1,4.61,90H150V0Z" fill="none"/><path d="M8.68,82.18A9.61,9.61,0,0,0,0,72.64V73a9.3,9.3,0,0,1,8.36,9.23A9.27,9.27,0,0,1,4.06,90h.55A9.56,9.56,0,0,0,8.68,82.18Z" fill="#090909"/></g><g opacity="0.6"><path d="M0,0V75.37a6.9,6.9,0,0,1,6,6.81A6.91,6.91,0,0,1,0,89v1H150V0Z" fill="none"/><path d="M5.65,82.18A6.58,6.58,0,0,0,0,75.69v13A6.58,6.58,0,0,0,5.65,82.18Z" fill="none"/><path d="M6,82.18a6.9,6.9,0,0,0-6-6.81v.32a6.58,6.58,0,0,1,5.65,6.49A6.58,6.58,0,0,1,0,88.68V89A6.91,6.91,0,0,0,6,82.18Z" fill="#090909"/></g><path d="M0,0V78.58a3.73,3.73,0,0,1,2.8,3.6A3.73,3.73,0,0,1,0,85.79V90H150V0Z" fill="none"/><path d="M2.8,82.18A3.73,3.73,0,0,0,0,78.58v7.21A3.73,3.73,0,0,0,2.8,82.18Z" fill="#090909"/><path d="M0,0V80.53a.86.86,0,0,1,.72.74.8.8,0,0,1-.72.81V90H150V0Z" fill="none"/><path d="M.72,81.27A.86.86,0,0,0,0,80.53v1.55A.8.8,0,0,0,.72,81.27Z" fill="#fff"/><path d="M37.48,58.12a.78.78,0,1,0-.78-.78A.78.78,0,0,0,37.48,58.12Z" fill="#67778e" fill-rule="evenodd"/><path d="M43.72,49.1a.78.78,0,1,0-.78-.78A.78.78,0,0,0,43.72,49.1Z" fill="#4360df" fill-rule="evenodd"/><path d="M50,43.5a.78.78,0,1,0-.78-.78A.78.78,0,0,0,50,43.5Z" fill="#67778e" fill-rule="evenodd"/><path d="M51.52,55.63a.78.78,0,1,0-.78-.78A.78.78,0,0,0,51.52,55.63Z" fill="#4360df" fill-rule="evenodd"/><path d="M107.67,69.94a.78.78,0,0,0,.78-.78.78.78,0,0,0-1.56,0A.78.78,0,0,0,107.67,69.94Z" fill="#090909" fill-rule="evenodd"/><path d="M105.18,87.05a.78.78,0,1,0,0-1.55.78.78,0,1,0,0,1.55Z" fill="#4360df" fill-rule="evenodd"/><path d="M142,65.59a.78.78,0,1,0-.78-.78A.78.78,0,0,0,142,65.59Z" fill="#090909" fill-rule="evenodd"/><path d="M45,70.56a.77.77,0,0,0,.78-.77.78.78,0,0,0-1.56,0A.77.77,0,0,0,45,70.56Z" fill="#67778e" fill-rule="evenodd"/><path d="M34.36,69a.78.78,0,1,0-.78-.78A.78.78,0,0,0,34.36,69Z" fill="#67778e" fill-rule="evenodd"/><path d="M34.36,77.72a.78.78,0,1,0-.78-.78A.78.78,0,0,0,34.36,77.72Z" fill="#4360df" fill-rule="evenodd"/><path d="M7.84,73.05a.78.78,0,1,0-.78-.78A.78.78,0,0,0,7.84,73.05Z" fill="#090909" fill-rule="evenodd"/><g opacity="0.2"><path d="M25.15,78.5A26.29,26.29,0,1,0,0,44.34V60.08A26.41,26.41,0,0,0,25.15,78.5Z" fill="none"/><path d="M0,0V43.37A26.6,26.6,0,1,1,0,61.05V90H150V0Z" fill="none"/><path d="M25.15,78.81A26.6,26.6,0,1,0,0,43.37v1A26.29,26.29,0,1,1,0,60.08v1A26.71,26.71,0,0,0,25.15,78.81Z" fill="#bbbfc5"/></g><g opacity="0.2"><path d="M138.87,57a10.92,10.92,0,0,0,10.92,10.89H150V46.15h-.21A10.92,10.92,0,0,0,138.87,57Z" fill="none"/><path d="M149.79,68.23a11.2,11.2,0,1,1,0-22.4H150V0H0V90H150V68.22Z" fill="none"/><path d="M138.56,57a11.23,11.23,0,0,0,11.23,11.2H150v-.31h-.21a10.89,10.89,0,1,1,0-21.78H150v-.31h-.21A11.23,11.23,0,0,0,138.56,57Z" fill="#bbbfc5"/></g><g opacity="0.6"><path d="M0,0V90H119.82a11.42,11.42,0,1,1,13.3,0H150V0Z" fill="none"/><path d="M137.58,80.75A11.12,11.12,0,1,0,120.36,90h12.22A11.07,11.07,0,0,0,137.58,80.75Z" fill="none"/><path d="M137.89,80.75A11.43,11.43,0,1,0,119.82,90h.54a11.11,11.11,0,1,1,12.22,0h.54A11.38,11.38,0,0,0,137.89,80.75Z" fill="#090909"/></g><g opacity="0.4"><path d="M0,0V90H113.5a15.77,15.77,0,0,1-3-9.25,16,16,0,0,1,31.93,0,15.77,15.77,0,0,1-3,9.25H150V0Z" fill="none"/><path d="M126.47,65.14a15.65,15.65,0,0,0-15.66,15.61A15.41,15.41,0,0,0,113.89,90h25.16a15.47,15.47,0,0,0,3.07-9.25A15.65,15.65,0,0,0,126.47,65.14Z" fill="none"/><path d="M126.47,64.83a16,16,0,0,0-16,15.92,15.77,15.77,0,0,0,3,9.25h.39a15.41,15.41,0,0,1-3.08-9.25,15.66,15.66,0,0,1,31.31,0A15.47,15.47,0,0,1,139.05,90h.39a15.77,15.77,0,0,0,3-9.25A16,16,0,0,0,126.47,64.83Z" fill="#090909"/></g><g opacity="0.2"><path d="M0,0V90H106.23a22.31,22.31,0,1,1,40.63,0H150V0Z" fill="none"/><path d="M126.55,58.9a21.91,21.91,0,0,0-20,31.1h40a21.91,21.91,0,0,0-20-31.1Z" fill="none"/><path d="M126.55,58.59A22.22,22.22,0,0,0,106.23,90h.34a22,22,0,1,1,40,0h.34a22,22,0,0,0,2-9.17A22.29,22.29,0,0,0,126.55,58.59Z" fill="#090909"/></g><g opacity="0.6"><path d="M0,0V90H63.64a18.89,18.89,0,1,1,14.49,0H150V0Z" fill="none"/><path d="M89.46,72.61A18.58,18.58,0,1,0,64.54,90H77.23A18.54,18.54,0,0,0,89.46,72.61Z" fill="none"/><path d="M89.77,72.61A18.89,18.89,0,1,0,63.64,90h.9a18.58,18.58,0,1,1,12.69,0h.9A18.85,18.85,0,0,0,89.77,72.61Z" fill="#4360df"/></g><g opacity="0.4"><path d="M70.88,46.56A26,26,0,0,0,51.46,90H90.31A26,26,0,0,0,70.88,46.56Z" fill="none"/><path d="M0,0V90H51a26.44,26.44,0,1,1,39.68,0H150V0Z" fill="none"/><path d="M70.88,46.25A26.33,26.33,0,0,0,51,90h.42a26.12,26.12,0,1,1,38.85,0h.41A26.32,26.32,0,0,0,70.88,46.25Z" fill="#4360df"/></g><g opacity="0.2"><path d="M0,0V90H38.36A36.56,36.56,0,0,1,34,72.74a37,37,0,0,1,73.94,0A36.55,36.55,0,0,1,103.67,90H150V0Z" fill="none"/><path d="M71,36.19A36.52,36.52,0,0,0,38.71,90h64.61A36.52,36.52,0,0,0,71,36.19Z" fill="none"/><path d="M71,35.87A37,37,0,0,0,34,72.74,36.56,36.56,0,0,0,38.36,90h.35a36.62,36.62,0,1,1,69-17.26A36.29,36.29,0,0,1,103.32,90h.35A36.55,36.55,0,0,0,108,72.74,37,37,0,0,0,71,35.87Z" fill="#4360df"/></g><g style="isolation:isolate"><g style="isolation:isolate"><path d="M11.11,34.35V23.66h4a5.9,5.9,0,0,1,2.32.42,4.71,4.71,0,0,1,2.67,2.84,6.6,6.6,0,0,1,0,4.27A4.85,4.85,0,0,1,19,32.88,4.71,4.71,0,0,1,17.29,34a5.85,5.85,0,0,1-2.19.39ZM17.92,29a4.06,4.06,0,0,0-.19-1.29,3,3,0,0,0-.55-1,2.42,2.42,0,0,0-.89-.65,3,3,0,0,0-1.19-.22H13.58v6.35H15.1a2.87,2.87,0,0,0,1.21-.24,2.43,2.43,0,0,0,.88-.67,3.25,3.25,0,0,0,.54-1A4,4,0,0,0,17.92,29Z" fill="#1d1e2c"/><path d="M25.47,34.5a4.59,4.59,0,0,1-1.78-.33,3.77,3.77,0,0,1-1.34-.88A3.72,3.72,0,0,1,21.52,32a4,4,0,0,1-.29-1.53,4.39,4.39,0,0,1,.29-1.62,3.86,3.86,0,0,1,.82-1.33,3.91,3.91,0,0,1,1.33-.9,4.66,4.66,0,0,1,1.8-.34,4.53,4.53,0,0,1,1.79.34,3.78,3.78,0,0,1,2.15,2.19,4.3,4.3,0,0,1,.28,1.55c0,.14,0,.28,0,.42a3.09,3.09,0,0,1,0,.35H23.79a1.6,1.6,0,0,0,.58,1.21,1.81,1.81,0,0,0,1.18.42,2.21,2.21,0,0,0,1-.26,1.32,1.32,0,0,0,.65-.69l2.05.57a3.71,3.71,0,0,1-1.45,1.52A4.48,4.48,0,0,1,25.47,34.5Zm1.67-4.85a1.82,1.82,0,0,0-.54-1.19A1.63,1.63,0,0,0,25.44,28a1.57,1.57,0,0,0-1.16.44,1.84,1.84,0,0,0-.54,1.18Z" fill="#1d1e2c"/><path d="M33.9,34.5a6.14,6.14,0,0,1-2-.33,4.29,4.29,0,0,1-1.66-.94l.86-1.47a7.06,7.06,0,0,0,1.41.77,3.53,3.53,0,0,0,1.31.27,1.32,1.32,0,0,0,.72-.17.52.52,0,0,0,.26-.48.56.56,0,0,0-.32-.5,4.88,4.88,0,0,0-1.14-.4c-.53-.15-1-.3-1.35-.44a3.87,3.87,0,0,1-.89-.47,1.51,1.51,0,0,1-.5-.58,1.89,1.89,0,0,1-.15-.79,2.45,2.45,0,0,1,.24-1.09,2.41,2.41,0,0,1,.66-.85,3.2,3.2,0,0,1,1-.54,4,4,0,0,1,1.26-.2,5.55,5.55,0,0,1,1.66.25,4.13,4.13,0,0,1,1.5.87l-.93,1.44a6,6,0,0,0-1.21-.67,2.74,2.74,0,0,0-1-.21,1.34,1.34,0,0,0-.66.15.56.56,0,0,0-.27.51.53.53,0,0,0,.29.49,4.4,4.4,0,0,0,1.09.37,14.59,14.59,0,0,1,1.43.45,4.31,4.31,0,0,1,.94.5,1.73,1.73,0,0,1,.52.64,2.06,2.06,0,0,1,.17.86,2.28,2.28,0,0,1-.87,1.87A3.73,3.73,0,0,1,33.9,34.5Z" fill="#1d1e2c"/><path d="M38.3,25.54V23.36h2.41v2.18Zm0,8.81v-7.9h2.41v7.9Z" fill="#1d1e2c"/><path d="M45.43,34.38A3.23,3.23,0,0,1,44,34.06a3.32,3.32,0,0,1-1.1-.86,3.91,3.91,0,0,1-.72-1.26,4.63,4.63,0,0,1-.26-1.55,4.75,4.75,0,0,1,.27-1.62A4.11,4.11,0,0,1,43,27.48a3.35,3.35,0,0,1,1.16-.87,3.49,3.49,0,0,1,1.49-.32,3.07,3.07,0,0,1,1.57.39,2.89,2.89,0,0,1,1.08,1.06V26.45h2.09v7.36a3.62,3.62,0,0,1-1.28,2.85,4.27,4.27,0,0,1-1.45.77,6,6,0,0,1-1.85.27,5.31,5.31,0,0,1-2.18-.4A4.52,4.52,0,0,1,42,36.12l1.29-1.31a3,3,0,0,0,1.09.79,3.23,3.23,0,0,0,1.38.3,2.82,2.82,0,0,0,.83-.12,2.09,2.09,0,0,0,.69-.37,1.78,1.78,0,0,0,.48-.65,2.44,2.44,0,0,0,.17-.95V33a2.39,2.39,0,0,1-1,1A3.3,3.3,0,0,1,45.43,34.38Zm.83-1.91a1.71,1.71,0,0,0,1-.31,2.16,2.16,0,0,0,.68-.79V29.71a2.21,2.21,0,0,0-.74-1,1.77,1.77,0,0,0-1-.37,1.59,1.59,0,0,0-.72.17,1.91,1.91,0,0,0-.55.47,2,2,0,0,0-.36.68,2.34,2.34,0,0,0-.13.79,2.28,2.28,0,0,0,.14.8,2,2,0,0,0,.4.64,1.91,1.91,0,0,0,.59.43A1.86,1.86,0,0,0,46.26,32.47Z" fill="#1d1e2c"/><path d="M59.61,34.35H57.2V29.91a1.83,1.83,0,0,0-.29-1.14,1,1,0,0,0-.78-.35,1.32,1.32,0,0,0-.51.1,2,2,0,0,0-.5.3,2.25,2.25,0,0,0-.43.44,2.29,2.29,0,0,0-.29.56v4.53H52v-7.9h2.17v1.32a2.81,2.81,0,0,1,1.24-1.09,4.1,4.1,0,0,1,1.83-.39,2.5,2.5,0,0,1,1.24.28,2,2,0,0,1,.72.73,2.87,2.87,0,0,1,.34,1,7.23,7.23,0,0,1,.08,1Z" fill="#1d1e2c"/><path d="M61.21,25.54V23.36h2.4v2.18Zm0,8.81v-7.9h2.4v7.9Z" fill="#1d1e2c"/><path d="M72.88,34.35h-2.4V29.91a1.77,1.77,0,0,0-.3-1.14,1,1,0,0,0-.77-.35,1.32,1.32,0,0,0-.51.1,2,2,0,0,0-.5.3,2.25,2.25,0,0,0-.43.44,2.29,2.29,0,0,0-.29.56v4.53H65.27v-7.9h2.17v1.32a2.84,2.84,0,0,1,1.23-1.09,4.12,4.12,0,0,1,1.84-.39,2.43,2.43,0,0,1,1.23.28,2,2,0,0,1,.72.73,2.67,2.67,0,0,1,.34,1,6,6,0,0,1,.08,1Z" fill="#1d1e2c"/><path d="M77.55,34.38a3.23,3.23,0,0,1-1.43-.32A3.32,3.32,0,0,1,75,33.2a3.91,3.91,0,0,1-.72-1.26A4.63,4.63,0,0,1,74,30.39a4.52,4.52,0,0,1,.28-1.62,3.91,3.91,0,0,1,.75-1.29,3.44,3.44,0,0,1,1.16-.87,3.49,3.49,0,0,1,1.49-.32,3.07,3.07,0,0,1,1.57.39,2.89,2.89,0,0,1,1.08,1.06V26.45h2.09v7.36a3.62,3.62,0,0,1-1.28,2.85,4.27,4.27,0,0,1-1.45.77,6,6,0,0,1-1.85.27,5.31,5.31,0,0,1-2.18-.4,4.52,4.52,0,0,1-1.58-1.18l1.29-1.31a3,3,0,0,0,1.09.79,3.23,3.23,0,0,0,1.38.3,2.82,2.82,0,0,0,.83-.12,2.09,2.09,0,0,0,.69-.37,1.78,1.78,0,0,0,.48-.65,2.44,2.44,0,0,0,.17-.95V33a2.39,2.39,0,0,1-1,1A3.3,3.3,0,0,1,77.55,34.38Zm.83-1.91a1.71,1.71,0,0,0,1-.31,2.16,2.16,0,0,0,.68-.79V29.71a2.21,2.21,0,0,0-.74-1,1.77,1.77,0,0,0-1-.37,1.59,1.59,0,0,0-.72.17A1.91,1.91,0,0,0,77,29a2,2,0,0,0-.36.68,2.34,2.34,0,0,0-.13.79,2.28,2.28,0,0,0,.14.8,2,2,0,0,0,.4.64,1.91,1.91,0,0,0,.59.43A1.86,1.86,0,0,0,78.38,32.47Z" fill="#1d1e2c"/><path d="M16,52a9.42,9.42,0,0,1-1.14.39,4.78,4.78,0,0,1-1.29.18,3.35,3.35,0,0,1-.85-.11,2.11,2.11,0,0,1-.7-.36,1.69,1.69,0,0,1-.47-.66,2.42,2.42,0,0,1-.17-1V46.33h-1V44.51h1V42h2.4v2.52h1.61v1.82H13.82v3.29a.73.73,0,0,0,.2.57.76.76,0,0,0,.5.17,1.81,1.81,0,0,0,.55-.09,3.51,3.51,0,0,0,.5-.19Z" fill="#1d1e2c"/><path d="M24.59,52.41H22.18V48a1.75,1.75,0,0,0-.3-1.13,1,1,0,0,0-.83-.36,1.2,1.2,0,0,0-.46.1,1.67,1.67,0,0,0-.48.28,2.63,2.63,0,0,0-.43.45,1.94,1.94,0,0,0-.3.57v4.53H17v-11h2.41v4.41a3,3,0,0,1,1.15-1.09,3.23,3.23,0,0,1,1.57-.38,2.57,2.57,0,0,1,1.29.28,2,2,0,0,1,.75.7,2.63,2.63,0,0,1,.36,1,6.18,6.18,0,0,1,.09,1Z" fill="#1d1e2c"/><path d="M30,52.56a4.75,4.75,0,0,1-1.78-.32,4,4,0,0,1-1.34-.88A3.79,3.79,0,0,1,26,50.07a4.2,4.2,0,0,1-.29-1.53A4.61,4.61,0,0,1,26,46.92a4,4,0,0,1,.83-1.33,3.81,3.81,0,0,1,1.33-.9,4.66,4.66,0,0,1,1.8-.33,4.57,4.57,0,0,1,1.79.33,4,4,0,0,1,1.32.89,3.75,3.75,0,0,1,.83,1.31,4.43,4.43,0,0,1,.27,1.55c0,.14,0,.27,0,.41a2.94,2.94,0,0,1,0,.35H28.27a1.62,1.62,0,0,0,.58,1.21,1.83,1.83,0,0,0,1.18.42,2.18,2.18,0,0,0,1-.26,1.28,1.28,0,0,0,.65-.69l2.05.57A3.68,3.68,0,0,1,32.31,52,4.53,4.53,0,0,1,30,52.56Zm1.67-4.85a1.84,1.84,0,0,0-.54-1.19,1.78,1.78,0,0,0-2.33,0,1.88,1.88,0,0,0-.53,1.18Z" fill="#1d1e2c"/><path d="M39.29,52.41V47h-1V45.15h1v-.64a4.33,4.33,0,0,1,.2-1.34,3.08,3.08,0,0,1,.55-1,2.36,2.36,0,0,1,.88-.64A2.73,2.73,0,0,1,42,41.27a5.36,5.36,0,0,1,2.07.47l-.44,1.8a3.66,3.66,0,0,0-.53-.17,2.86,2.86,0,0,0-.55-.07c-.6,0-.89.37-.89,1.12v.73h1.83V47H41.7v5.43Z" fill="#1d1e2c"/><path d="M47,52.56a2.25,2.25,0,0,1-1.85-.76,3.5,3.5,0,0,1-.62-2.24V44.51h2.41V49a1.81,1.81,0,0,0,.28,1.1,1,1,0,0,0,.82.39,1.87,1.87,0,0,0,.93-.26,2.2,2.2,0,0,0,.8-.89V44.51h2.4V49.7a.78.78,0,0,0,.12.5.54.54,0,0,0,.4.18v2c-.23.05-.43.08-.59.1l-.44,0c-.86,0-1.35-.34-1.47-1l0-.48a3.27,3.27,0,0,1-1.34,1.15A4.23,4.23,0,0,1,47,52.56Z" fill="#1d1e2c"/><path d="M59.13,52a9.42,9.42,0,0,1-1.14.39,4.65,4.65,0,0,1-1.28.18,3.24,3.24,0,0,1-.85-.11,2.16,2.16,0,0,1-.71-.36,1.8,1.8,0,0,1-.47-.66,2.61,2.61,0,0,1-.17-1V46.33h-1V44.51h1V42h2.41v2.52h1.61v1.82H56.92v3.29a.73.73,0,0,0,.19.57.76.76,0,0,0,.5.17,1.92,1.92,0,0,0,.56-.09,3.35,3.35,0,0,0,.49-.19Z" fill="#1d1e2c"/><path d="M62.45,52.56a2.24,2.24,0,0,1-1.84-.76A3.44,3.44,0,0,1,60,49.56V44.51H62.4V49a1.81,1.81,0,0,0,.28,1.1.94.94,0,0,0,.81.39,1.88,1.88,0,0,0,.94-.26,2.19,2.19,0,0,0,.79-.89V44.51h2.41V49.7a.78.78,0,0,0,.12.5.52.52,0,0,0,.39.18v2c-.23.05-.42.08-.58.1l-.44,0c-.86,0-1.35-.34-1.47-1L65.6,51a3.24,3.24,0,0,1-1.35,1.15A4.17,4.17,0,0,1,62.45,52.56Z" fill="#1d1e2c"/><path d="M74.51,46.57a4.63,4.63,0,0,0-1.58.28,2,2,0,0,0-1,.82v4.74H69.5v-7.9h2.21V46.1a3.33,3.33,0,0,1,1.05-1.25,2.39,2.39,0,0,1,1.36-.46h.39Z" fill="#1d1e2c"/><path d="M78.91,52.56a4.8,4.8,0,0,1-1.79-.32,4.16,4.16,0,0,1-1.34-.88A3.91,3.91,0,0,1,75,50.07a4.2,4.2,0,0,1-.29-1.53A4.61,4.61,0,0,1,75,46.92a3.82,3.82,0,0,1,2.16-2.23,5,5,0,0,1,3.59,0,4,4,0,0,1,1.32.89,3.72,3.72,0,0,1,.82,1.31,4.22,4.22,0,0,1,.28,1.55c0,.14,0,.27,0,.41a2.94,2.94,0,0,1,0,.35H77.22a1.58,1.58,0,0,0,.58,1.21,1.83,1.83,0,0,0,1.18.42,2.21,2.21,0,0,0,1-.26,1.32,1.32,0,0,0,.65-.69l2,.57A3.65,3.65,0,0,1,81.25,52,4.47,4.47,0,0,1,78.91,52.56Zm1.67-4.85A1.8,1.8,0,0,0,80,46.52a1.61,1.61,0,0,0-1.15-.43,1.63,1.63,0,0,0-1.17.44,1.83,1.83,0,0,0-.53,1.18Z" fill="#1d1e2c"/></g></g><g style="isolation:isolate"><g style="isolation:isolate"><path d="M14.74,12.67a1.33,1.33,0,0,0-.27-.22,2.22,2.22,0,0,0-.41-.22,3.52,3.52,0,0,0-.52-.17A2.86,2.86,0,0,0,13,12a1.63,1.63,0,0,0-1,.24.87.87,0,0,0-.21,1.07,1,1,0,0,0,.3.27,3.19,3.19,0,0,0,.51.2l.72.19a7.67,7.67,0,0,1,.91.27,2.55,2.55,0,0,1,.68.36,1.46,1.46,0,0,1,.43.53,1.61,1.61,0,0,1,.16.76,1.91,1.91,0,0,1-.19.86,1.65,1.65,0,0,1-.52.59,2.34,2.34,0,0,1-.77.34,4,4,0,0,1-.94.1,4.78,4.78,0,0,1-1.46-.22,4.18,4.18,0,0,1-1.27-.67l.48-.89a2,2,0,0,0,.35.27,2.91,2.91,0,0,0,.53.27,4.13,4.13,0,0,0,.65.22,3,3,0,0,0,.74.08,1.81,1.81,0,0,0,.95-.21.78.78,0,0,0,.21-1,1.18,1.18,0,0,0-.36-.29,3.07,3.07,0,0,0-.57-.23l-.76-.22a5.87,5.87,0,0,1-.86-.27,2.08,2.08,0,0,1-.61-.35,1.24,1.24,0,0,1-.37-.48,1.62,1.62,0,0,1-.13-.66,2,2,0,0,1,.19-.86,1.86,1.86,0,0,1,.51-.64A2.17,2.17,0,0,1,12,11.2a3.16,3.16,0,0,1,1-.13,3.53,3.53,0,0,1,1.23.21,4.5,4.5,0,0,1,1,.53Z" fill="#1d1e2c"/><path d="M19,17.47l-.54.21a2.19,2.19,0,0,1-.73.11,1.65,1.65,0,0,1-.46-.06,1.07,1.07,0,0,1-.38-.2.8.8,0,0,1-.25-.34,1.24,1.24,0,0,1-.1-.5V13.64h-.64v-.79h.64v-1.6h1v1.6h1.06v.79H17.61v2.72a.5.5,0,0,0,.16.38.55.55,0,0,0,.36.11,1.14,1.14,0,0,0,.41-.07l.29-.12Z" fill="#1d1e2c"/><path d="M21,17.81a2,2,0,0,1-.66-.11,1.82,1.82,0,0,1-.52-.32,1.54,1.54,0,0,1-.34-.49,1.5,1.5,0,0,1-.13-.6,1.33,1.33,0,0,1,.15-.63,1.49,1.49,0,0,1,.43-.48,2.08,2.08,0,0,1,.65-.32,3.09,3.09,0,0,1,.83-.11,3.82,3.82,0,0,1,.68.06,3.26,3.26,0,0,1,.6.17v-.34a1.14,1.14,0,0,0-.3-.84,1.23,1.23,0,0,0-.89-.3,2,2,0,0,0-.76.14,3.92,3.92,0,0,0-.78.41l-.32-.65a3.48,3.48,0,0,1,2-.63,2.22,2.22,0,0,1,1.56.51,1.9,1.9,0,0,1,.56,1.47v1.76q0,.33.27.33v.88l-.26,0h-.21a.65.65,0,0,1-.46-.15.67.67,0,0,1-.2-.38l0-.31a2.11,2.11,0,0,1-.8.65A2.25,2.25,0,0,1,21,17.81Zm.28-.75a1.82,1.82,0,0,0,.7-.14,1.26,1.26,0,0,0,.52-.37.47.47,0,0,0,.19-.36v-.64a3,3,0,0,0-.55-.16,3.77,3.77,0,0,0-.57-.05,1.54,1.54,0,0,0-.9.24.71.71,0,0,0-.35.62.78.78,0,0,0,.27.61A1,1,0,0,0,21.32,17.06Z" fill="#1d1e2c"/><path d="M27.66,17.47l-.54.21a2.19,2.19,0,0,1-.73.11,1.76,1.76,0,0,1-.46-.06,1,1,0,0,1-.37-.2.82.82,0,0,1-.26-.34,1.24,1.24,0,0,1-.09-.5V13.64h-.64v-.79h.64v-1.6h1v1.6h1.06v.79H26.23v2.72a.54.54,0,0,0,.16.38.55.55,0,0,0,.36.11,1.14,1.14,0,0,0,.41-.07l.29-.12Z" fill="#1d1e2c"/><path d="M29.87,17.81a1.38,1.38,0,0,1-1.16-.5,2.36,2.36,0,0,1-.39-1.48v-3h1v2.78c0,.87.31,1.31.93,1.31a1.44,1.44,0,0,0,.83-.27,1.71,1.71,0,0,0,.6-.78v-3h1v3.66a.4.4,0,0,0,.06.25.28.28,0,0,0,.22.08v.88l-.26,0h-.19a.77.77,0,0,1-.48-.16.47.47,0,0,1-.2-.39l0-.49a2.13,2.13,0,0,1-.85.81A2.46,2.46,0,0,1,29.87,17.81Z" fill="#1d1e2c"/><path d="M35.8,17.81a3.57,3.57,0,0,1-1.16-.19,3,3,0,0,1-1-.54l.4-.65a4,4,0,0,0,.87.48,2.62,2.62,0,0,0,.87.16,1.29,1.29,0,0,0,.73-.18.57.57,0,0,0,.26-.5.47.47,0,0,0-.3-.45,6.39,6.39,0,0,0-.93-.3q-.45-.12-.78-.24a1.87,1.87,0,0,1-.53-.26.87.87,0,0,1-.3-.34,1.14,1.14,0,0,1-.09-.48,1.59,1.59,0,0,1,.14-.66,1.43,1.43,0,0,1,.4-.48,1.8,1.8,0,0,1,.6-.31,2.57,2.57,0,0,1,.75-.1,3.07,3.07,0,0,1,1,.17,2.64,2.64,0,0,1,.85.48l-.44.62a2.27,2.27,0,0,0-1.44-.54,1.24,1.24,0,0,0-.66.16.57.57,0,0,0-.26.52.66.66,0,0,0,.05.25.53.53,0,0,0,.19.17,1.39,1.39,0,0,0,.32.14l.5.13c.33.08.61.16.85.24a2.49,2.49,0,0,1,.59.29,1.05,1.05,0,0,1,.35.38,1.22,1.22,0,0,1,.11.53,1.32,1.32,0,0,1-.53,1.1A2.29,2.29,0,0,1,35.8,17.81Z" fill="#1d1e2c"/></g></g></g></g></svg>